  0
SECTION
  2
HEADER
  9
$ACADVER
  1
AC1015
  9
$ACADMAINTVER
 70
     6
  9
$DWGCODEPAGE
  3
ANSI_949
  9
$INSBASE
 10
0.0
 20
0.0
 30
0.0
  9
$EXTMIN
 10
0.0
 20
0.0
 30
0.0
  9
$EXTMAX
 10
297.0
 20
210.0
 30
0.0
  9
$LIMMIN
 10
0.0
 20
0.0
  9
$LIMMAX
 10
297.0
 20
210.0
  9
$ORTHOMODE
 70
     0
  9
$REGENMODE
 70
     1
  9
$FILLMODE
 70
     1
  9
$QTEXTMODE
 70
     0
  9
$MIRRTEXT
 70
     1
  9
$LTSCALE
 40
1.0
  9
$ATTMODE
 70
     1
  9
$TEXTSIZE
 40
3.5
  9
$TRACEWID
 40
1.0
  9
$TEXTSTYLE
  7
Standard
  9
$CLAYER
  8
0
  9
$CELTYPE
  6
ByLayer
  9
$CECOLOR
 62
   256
  9
$CELTSCALE
 40
1.0
  9
$DISPSILH
 70
     0
  9
$DIMSCALE
 40
1.0
  9
$DIMASZ
 40
3.302
  9
$DIMEXO
 40
1.0
  9
$DIMDLI
 40
3.75
  9
$DIMRND
 40
0.0
  9
$DIMDLE
 40
0.0
  9
$DIMEXE
 40
1.0
  9
$DIMTP
 40
0.0
  9
$DIMTM
 40
0.0
  9
$DIMTXT
 40
3.5
  9
$DIMCEN
 40
2.5
  9
$DIMTSZ
 40
0.0
  9
$DIMTOL
 70
     0
  9
$DIMLIM
 70
     0
  9
$DIMTIH
 70
     1
  9
$DIMTOH
 70
     1
  9
$DIMSE1
 70
     0
  9
$DIMSE2
 70
     0
  9
$DIMTAD
 70
     1
  9
$DIMZIN
 70
     1
  9
$DIMBLK
  1

  9
$DIMASO
 70
     1
  9
$DIMSHO
 70
     1
  9
$DIMPOST
  1

  9
$DIMAPOST
  1

  9
$DIMALT
 70
     0
  9
$DIMALTD
 70
     3
  9
$DIMALTF
 40
0.0393700787
  9
$DIMLFAC
 40
10.0
  9
$DIMTOFL
 70
     1
  9
$DIMTVP
 40
0.0
  9
$DIMTIX
 70
     0
  9
$DIMSOXD
 70
     0
  9
$DIMSAH
 70
     0
  9
$DIMBLK1
  1

  9
$DIMBLK2
  1

  9
$DIMSTYLE
  2
ISO-25
  9
$DIMCLRD
 70
     0
  9
$DIMCLRE
 70
     0
  9
$DIMCLRT
 70
     0
  9
$DIMTFAC
 40
1.0
  9
$DIMGAP
 40
1.524
  9
$DIMJUST
 70
     0
  9
$DIMSD1
 70
     0
  9
$DIMSD2
 70
     0
  9
$DIMTOLJ
 70
     0
  9
$DIMTZIN
 70
     1
  9
$DIMALTZ
 70
     0
  9
$DIMALTTZ
 70
     0
  9
$DIMUPT
 70
     0
  9
$DIMDEC
 70
     2
  9
$DIMTDEC
 70
     2
  9
$DIMALTU
 70
     2
  9
$DIMALTTD
 70
     3
  9
$DIMTXSTY
  7
Standard
  9
$DIMAUNIT
 70
     0
  9
$DIMADEC
 70
     2
  9
$DIMALTRND
 40
0.0
  9
$DIMAZIN
 70
     0
  9
$DIMDSEP
 70
    44
  9
$DIMATFIT
 70
     3
  9
$DIMFRAC
 70
     0
  9
$DIMLDRBLK
  1

  9
$DIMLUNIT
 70
     2
  9
$DIMLWD
 70
    -2
  9
$DIMLWE
 70
    -2
  9
$DIMTMOVE
 70
     0
  9
$LUNITS
 70
     2
  9
$LUPREC
 70
     2
  9
$SKETCHINC
 40
1.0
  9
$FILLETRAD
 40
10.0
  9
$AUNITS
 70
     0
  9
$AUPREC
 70
     2
  9
$MENU
  1
.
  9
$ELEVATION
 40
0.0
  9
$PELEVATION
 40
0.0
  9
$THICKNESS
 40
0.0
  9
$LIMCHECK
 70
     0
  9
$CHAMFERA
 40
0.0
  9
$CHAMFERB
 40
0.0
  9
$CHAMFERC
 40
0.0
  9
$CHAMFERD
 40
0.0
  9
$SKPOLY
 70
     0
  9
$TDCREATE
 40
2459389.614145139
  9
$TDUCREATE
 40
2459389.239145139
  9
$TDUPDATE
 40
2459389.614146898
  9
$TDUUPDATE
 40
2459389.239146898
  9
$TDINDWG
 40
0.0000000116
  9
$TDUSRTIMER
 40
0.0000000116
  9
$USRTIMER
 70
     1
  9
$ANGBASE
 50
0.0
  9
$ANGDIR
 70
     0
  9
$PDMODE
 70
     0
  9
$PDSIZE
 40
-1.0
  9
$PLINEWID
 40
0.0
  9
$SPLFRAME
 70
     0
  9
$SPLINETYPE
 70
     6
  9
$SPLINESEGS
 70
     8
  9
$HANDSEED
  5
1B6
  9
$SURFTAB1
 70
     6
  9
$SURFTAB2
 70
     6
  9
$SURFTYPE
 70
     6
  9
$SURFU
 70
     6
  9
$SURFV
 70
     6
  9
$UCSBASE
  2

  9
$UCSNAME
  2

  9
$UCSORG
 10
0.0
 20
0.0
 30
0.0
  9
$UCSXDIR
 10
1.0
 20
0.0
 30
0.0
  9
$UCSYDIR
 10
0.0
 20
1.0
 30
0.0
  9
$UCSORTHOREF
  2

  9
$UCSORTHOVIEW
 70
     0
  9
$UCSORGTOP
 10
0.0
 20
0.0
 30
0.0
  9
$UCSORGBOTTOM
 10
0.0
 20
0.0
 30
0.0
  9
$UCSORGLEFT
 10
0.0
 20
0.0
 30
0.0
  9
$UCSORGRIGHT
 10
0.0
 20
0.0
 30
0.0
  9
$UCSORGFRONT
 10
0.0
 20
0.0
 30
0.0
  9
$UCSORGBACK
 10
0.0
 20
0.0
 30
0.0
  9
$PUCSBASE
  2

  9
$PUCSNAME
  2

  9
$PUCSORG
 10
0.0
 20
0.0
 30
0.0
  9
$PUCSXDIR
 10
1.0
 20
0.0
 30
0.0
  9
$PUCSYDIR
 10
0.0
 20
1.0
 30
0.0
  9
$PUCSORTHOREF
  2

  9
$PUCSORTHOVIEW
 70
     0
  9
$PUCSORGTOP
 10
0.0
 20
0.0
 30
0.0
  9
$PUCSORGBOTTOM
 10
0.0
 20
0.0
 30
0.0
  9
$PUCSORGLEFT
 10
0.0
 20
0.0
 30
0.0
  9
$PUCSORGRIGHT
 10
0.0
 20
0.0
 30
0.0
  9
$PUCSORGFRONT
 10
0.0
 20
0.0
 30
0.0
  9
$PUCSORGBACK
 10
0.0
 20
0.0
 30
0.0
  9
$USERI1
 70
     0
  9
$USERI2
 70
     0
  9
$USERI3
 70
     0
  9
$USERI4
 70
     0
  9
$USERI5
 70
     0
  9
$USERR1
 40
0.0
  9
$USERR2
 40
0.0
  9
$USERR3
 40
0.0
  9
$USERR4
 40
0.0
  9
$USERR5
 40
0.0
  9
$WORLDVIEW
 70
     1
  9
$SHADEDGE
 70
     3
  9
$SHADEDIF
 70
    70
  9
$TILEMODE
 70
     1
  9
$MAXACTVP
 70
    64
  9
$PINSBASE
 10
0.0
 20
0.0
 30
0.0
  9
$PLIMCHECK
 70
     0
  9
$PEXTMIN
 10
1.0000000000E+20
 20
1.0000000000E+20
 30
1.0000000000E+20
  9
$PEXTMAX
 10
-1.0000000000E+20
 20
-1.0000000000E+20
 30
-1.0000000000E+20
  9
$PLIMMIN
 10
0.0
 20
0.0
  9
$PLIMMAX
 10
420.0
 20
297.0
  9
$UNITMODE
 70
     0
  9
$VISRETAIN
 70
     1
  9
$PLINEGEN
 70
     0
  9
$PSLTSCALE
 70
     1
  9
$TREEDEPTH
 70
  3020
  9
$CMLSTYLE
  2
Standard
  9
$CMLJUST
 70
     0
  9
$CMLSCALE
 40
20.0
  9
$PROXYGRAPHICS
 70
     1
  9
$MEASUREMENT
 70
     1
  9
$CELWEIGHT
370
    -1
  9
$ENDCAPS
280
     0
  9
$JOINSTYLE
280
     0
  9
$LWDISPLAY
290
     1
  9
$INSUNITS
 70
     4
  9
$HYPERLINKBASE
  1

  9
$STYLESHEET
  1

  9
$XEDIT
290
     1
  9
$CEPSNTYPE
380
     0
  9
$PSTYLEMODE
290
     1
  9
$FINGERPRINTGUID
  2
{fe43ab46-b304-42a4-8dc0-fd44731791b2}
  9
$VERSIONGUID
  2
{FAEB1C32-E019-11D5-929B-00C0DF256EC4}
  9
$EXTNAMES
290
     1
  9
$PSVPSCALE
 40
0.0
  9
$OLESTARTUP
290
     0
  0
ENDSEC
  0
SECTION
  2
CLASSES
  0
CLASS
  1
ACDBDICTIONARYWDFLT
  2
AcDbDictionaryWithDefault
  3
ObjectDBX Classes
 90
        0
280
     0
281
     0
  0
CLASS
  1
VISUALSTYLE
  2
AcDbVisualStyle
  3
ObjectDBX Classes
 90
     4095
280
     0
281
     0
  0
CLASS
  1
MATERIAL
  2
AcDbMaterial
  3
ObjectDBX Classes
 90
     1153
280
     0
281
     0
  0
CLASS
  1
SCALE
  2
AcDbScale
  3
ObjectDBX Classes
 90
     1153
280
     0
281
     0
  0
CLASS
  1
TABLESTYLE
  2
AcDbTableStyle
  3
ObjectDBX Classes
 90
     4095
280
     0
281
     0
  0
CLASS
  1
MLEADERSTYLE
  2
AcDbMLeaderStyle
  3
ACDB_MLEADERSTYLE_CLASS
 90
     4095
280
     0
281
     0
  0
CLASS
  1
SUN
  2
AcDbSun
  3
SCENEOE
 90
     1153
280
     0
281
     0
  0
CLASS
  1
ACDBPLACEHOLDER
  2
AcDbPlaceHolder
  3
ObjectDBX Classes
 90
        0
280
     0
281
     0
  0
CLASS
  1
LAYOUT
  2
AcDbLayout
  3
ObjectDBX Classes
 90
        0
280
     0
281
     0
  0
ENDSEC
  0
SECTION
  2
TABLES
  0
TABLE
  2
VPORT
  5
8
330
0
100
AcDbSymbolTable
 70
     1
  0
VPORT
  5
29
330
8
100
AcDbSymbolTableRecord
100
AcDbViewportTableRecord
  2
*Active
 70
     0
 10
0.0
 20
0.0
 11
1.0
 21
1.0
 12
148.5
 22
105.0
 13
0.0
 23
0.0
 14
10.0
 24
10.0
 15
10.0
 25
10.0
 16
0.0
 26
0.0
 36
1.0
 17
0.0
 27
0.0
 37
0.0
 40
210.0
 41
1.4142857143
 42
50.0
 43
0.0
 44
0.0
 50
0.0
 51
0.0
 71
     0
 72
  2000
 73
     1
 74
     3
 75
     0
 76
     0
 77
     0
 78
     0
281
     0
 65
     1
110
0.0
120
0.0
130
0.0
111
1.0
121
0.0
131
0.0
112
0.0
122
1.0
132
0.0
 79
     0
146
0.0
  0
ENDTAB
  0
TABLE
  2
LTYPE
  5
5
330
0
100
AcDbSymbolTable
 70
     6
  0
LTYPE
  5
14
330
5
100
AcDbSymbolTableRecord
100
AcDbLinetypeTableRecord
  2
ByBlock
 70
     0
  3

 72
    65
 73
     0
 40
0.0
  0
LTYPE
  5
15
330
5
100
AcDbSymbolTableRecord
100
AcDbLinetypeTableRecord
  2
ByLayer
 70
     0
  3

 72
    65
 73
     0
 40
0.0
  0
LTYPE
  5
16
330
5
100
AcDbSymbolTableRecord
100
AcDbLinetypeTableRecord
  2
Continuous
 70
     0
  3
Solid line
 72
    65
 73
     0
 40
0.0
  0
LTYPE
  5
6E
330
5
100
AcDbSymbolTableRecord
100
AcDbLinetypeTableRecord
  2
HIDDEN
 70
     0
  3
Hidden __ __ __ __ __ __ __ __ __ __ __ __ __ __
 72
    65
 73
     2
 40
1.905
 49
1.27
 74
     0
 49
-0.635
 74
     0
  0
LTYPE
  5
6F
330
5
100
AcDbSymbolTableRecord
100
AcDbLinetypeTableRecord
  2
PHANTOM
 70
     0
  3
Phantom ______  __  __  ______  __  __  ______
 72
    65
 73
     6
 40
12.7
 49
6.35
 74
     0
 49
-1.27
 74
     0
 49
1.27
 74
     0
 49
-1.27
 74
     0
 49
1.27
 74
     0
 49
-1.27
 74
     0
  0
LTYPE
  5
70
330
5
100
AcDbSymbolTableRecord
100
AcDbLinetypeTableRecord
  2
CENTER
 70
     0
  3
Center ____ _ ____ _ ____ _ ____ _ ____ _ ____
 72
    65
 73
     4
 40
10.16
 49
6.35
 74
     0
 49
-1.27
 74
     0
 49
1.27
 74
     0
 49
-1.27
 74
     0
  0
LTYPE
  5
71
330
5
100
AcDbSymbolTableRecord
100
AcDbLinetypeTableRecord
  2
CENTERX2
 70
     0
  3
Center (2x) ________  __  ________  __  _____
 72
    65
 73
     4
 40
20.32
 49
12.7
 74
     0
 49
-2.54
 74
     0
 49
2.54
 74
     0
 49
-2.54
 74
     0
  0
LTYPE
  5
72
330
5
100
AcDbSymbolTableRecord
100
AcDbLinetypeTableRecord
  2
DOT2
 70
     0
  3
Dot (.5x) ........................................
 72
    65
 73
     2
 40
0.635
 49
0.0
 74
     0
 49
-0.635
 74
     0
  0
ENDTAB
  0
TABLE
  2
LAYER
  5
2
330
0
100
AcDbSymbolTable
 70
     1
  0
LAYER
  5
10
330
2
100
AcDbSymbolTableRecord
100
AcDbLayerTableRecord
  2
0
 70
     0
 62
     7
  6
Continuous
370
    -3
390
F
  0
ENDTAB
  0
TABLE
  2
STYLE
  5
3
330
0
100
AcDbSymbolTable
 70
     3
  0
STYLE
  5
11
330
3
100
AcDbSymbolTableRecord
100
AcDbTextStyleTableRecord
  2
Standard
 70
     0
 40
0.0
 41
1.0
 50
0.0
 71
     0
 42
3.5
  3
txt
  4

  0
STYLE
  5
7A
330
3
100
AcDbSymbolTableRecord
100
AcDbTextStyleTableRecord
  2
SLDTEXTSTYLE0
 70
     0
 40
0.0
 41
0.75
 50
0.0
 71
     0
 42
3.5
  3
TXT
  4

  0
STYLE
  5
D6
330
3
100
AcDbSymbolTableRecord
100
AcDbTextStyleTableRecord
  2
SLDTEXTSTYLE1
 70
     0
 40
0.0
 41
0.75
 50
0.0
 71
     0
 42
3.5
  3
TXT
  4
bigfont
  0
ENDTAB
  0
TABLE
  2
VIEW
  5
6
330
0
100
AcDbSymbolTable
 70
     0
  0
ENDTAB
  0
TABLE
  2
UCS
  5
7
330
0
100
AcDbSymbolTable
 70
     0
  0
ENDTAB
  0
TABLE
  2
APPID
  5
9
330
0
100
AcDbSymbolTable
 70
     1
  0
APPID
  5
12
330
9
100
AcDbSymbolTableRecord
100
AcDbRegAppTableRecord
  2
ACAD
 70
     0
  0
ENDTAB
  0
TABLE
  2
DIMSTYLE
  5
A
330
0
100
AcDbSymbolTable
 70
     6
100
AcDbDimStyleTable
  0
DIMSTYLE
105
27
330
A
100
AcDbSymbolTableRecord
100
AcDbDimStyleTableRecord
  2
ISO-25
 70
     0
 41
2.5
 42
0.625
 43
3.75
 44
1.25
 73
     0
 74
     0
 77
     1
 78
     8
140
2.5
141
2.5
143
0.0393700787
147
0.625
171
     3
172
     1
178
     0
271
     2
272
     2
274
     3
278
    44
283
     0
284
     8
340
11
  0
DIMSTYLE
105
7B
102
{ACAD_REACTORS
330
79
330
BF
102
}
330
A
100
AcDbSymbolTableRecord
100
AcDbDimStyleTableRecord
  2
SLDDIMSTYLE0
 70
     0
 41
3.302
 44
0.0
 45
0.000000001
 73
     0
 74
     0
 77
     1
 78
     4
 79
     1
140
3.5
144
10.0
147
0.875
173
     1
178
     0
271
     2
272
     2
276
     2
284
    12
340
7A
  0
DIMSTYLE
105
9C
102
{ACAD_REACTORS
330
9B
102
}
330
A
100
AcDbSymbolTableRecord
100
AcDbDimStyleTableRecord
  2
SLDDIMSTYLE1
 70
     0
 41
3.302
 44
0.0
 73
     0
 74
     0
 77
     1
 78
    12
 79
     3
140
3.5
144
10.0
147
0.875
173
     1
178
     0
179
     2
272
     2
276
     2
284
    12
340
7A
  0
DIMSTYLE
105
A7
102
{ACAD_REACTORS
330
A6
330
B3
330
D8
330
E2
330
EE
330
FA
102
}
330
A
100
AcDbSymbolTableRecord
100
AcDbDimStyleTableRecord
  2
SLDDIMSTYLE2
 70
     0
 41
3.302
 44
0.0
 45
0.000000001
 73
     0
 74
     0
 77
     1
 78
     4
 79
     1
140
3.5
144
10.0
147
0.875
172
     1
173
     1
178
     0
271
     2
272
     2
276
     2
284
    12
289
     0
340
7A
  0
DIMSTYLE
105
CA
102
{ACAD_REACTORS
330
C9
102
}
330
A
100
AcDbSymbolTableRecord
100
AcDbDimStyleTableRecord
  2
SLDDIMSTYLE3
 70
     0
 41
3.302
 44
0.0
 45
0.000000001
 73
     0
 74
     0
 77
     1
 78
     4
 79
     1
140
3.5
141
0.0
144
10.0
147
0.875
172
     1
173
     1
178
     0
271
     2
272
     2
276
     2
284
    12
340
7A
341
CB
343
CB
  0
DIMSTYLE
105
107
102
{ACAD_REACTORS
330
106
102
}
330
A
100
AcDbSymbolTableRecord
100
AcDbDimStyleTableRecord
  2
SLDDIMSTYLE4
 70
     0
 41
3.302
 44
0.0
 45
0.000000001
 73
     0
 74
     0
 77
     1
 78
     4
 79
     1
140
3.5
141
0.0
144
10.0
147
0.875
172
     1
173
     1
178
     0
271
     2
272
     2
276
     2
284
    12
340
7A
341
CB
343
CB
  0
ENDTAB
  0
TABLE
  2
BLOCK_RECORD
  5
1
330
0
100
AcDbSymbolTable
 70
    24
  0
BLOCK_RECORD
  5
1F
330
1
100
AcDbSymbolTableRecord
100
AcDbBlockTableRecord
  2
*Model_Space
340
22
  0
BLOCK_RECORD
  5
1B
330
1
100
AcDbSymbolTableRecord
100
AcDbBlockTableRecord
  2
*Paper_Space
340
1E
  0
BLOCK_RECORD
  5
23
330
1
100
AcDbSymbolTableRecord
100
AcDbBlockTableRecord
  2
*Paper_Space0
340
26
  0
BLOCK_RECORD
  5
7C
330
1
100
AcDbSymbolTableRecord
100
AcDbBlockTableRecord
  2
_D
340
0
  0
BLOCK_RECORD
  5
9D
330
1
100
AcDbSymbolTableRecord
100
AcDbBlockTableRecord
  2
_D_1
340
0
  0
BLOCK_RECORD
  5
A8
330
1
100
AcDbSymbolTableRecord
100
AcDbBlockTableRecord
  2
_D_2
340
0
  0
BLOCK_RECORD
  5
B4
330
1
100
AcDbSymbolTableRecord
100
AcDbBlockTableRecord
  2
_D_3
340
0
  0
BLOCK_RECORD
  5
C0
330
1
100
AcDbSymbolTableRecord
100
AcDbBlockTableRecord
  2
_D_4
340
0
  0
BLOCK_RECORD
  5
CB
330
1
100
AcDbSymbolTableRecord
100
AcDbBlockTableRecord
  2
_None
340
0
  0
BLOCK_RECORD
  5
CE
330
1
100
AcDbSymbolTableRecord
100
AcDbBlockTableRecord
  2
_D_5
340
0
  0
BLOCK_RECORD
  5
D9
330
1
100
AcDbSymbolTableRecord
100
AcDbBlockTableRecord
  2
_D_6
340
0
  0
BLOCK_RECORD
  5
E3
330
1
100
AcDbSymbolTableRecord
100
AcDbBlockTableRecord
  2
_D_7
340
0
  0
BLOCK_RECORD
  5
EF
330
1
100
AcDbSymbolTableRecord
100
AcDbBlockTableRecord
  2
_D_8
340
0
  0
BLOCK_RECORD
  5
FB
330
1
100
AcDbSymbolTableRecord
100
AcDbBlockTableRecord
  2
_D_9
340
0
  0
BLOCK_RECORD
  5
108
330
1
100
AcDbSymbolTableRecord
100
AcDbBlockTableRecord
  2
_D_10
340
0
  0
BLOCK_RECORD
  5
110
330
1
100
AcDbSymbolTableRecord
100
AcDbBlockTableRecord
  2
SW_CENTERMARKSYMBOL_0
340
0
102
{BLKREFS
331
11B
102
}
  0
BLOCK_RECORD
  5
11C
330
1
100
AcDbSymbolTableRecord
100
AcDbBlockTableRecord
  2
SW_CENTERMARKSYMBOL_1
340
0
102
{BLKREFS
331
127
102
}
  0
BLOCK_RECORD
  5
128
330
1
100
AcDbSymbolTableRecord
100
AcDbBlockTableRecord
  2
SW_CENTERMARKSYMBOL_2
340
0
102
{BLKREFS
331
133
102
}
  0
BLOCK_RECORD
  5
134
330
1
100
AcDbSymbolTableRecord
100
AcDbBlockTableRecord
  2
SW_CENTERMARKSYMBOL_3
340
0
102
{BLKREFS
331
13F
102
}
  0
BLOCK_RECORD
  5
140
330
1
100
AcDbSymbolTableRecord
100
AcDbBlockTableRecord
  2
SW_CENTERMARKSYMBOL_4
340
0
102
{BLKREFS
331
14B
102
}
  0
BLOCK_RECORD
  5
14C
330
1
100
AcDbSymbolTableRecord
100
AcDbBlockTableRecord
  2
SW_CENTERMARKSYMBOL_5
340
0
102
{BLKREFS
331
157
102
}
  0
BLOCK_RECORD
  5
158
330
1
100
AcDbSymbolTableRecord
100
AcDbBlockTableRecord
  2
SW_CENTERMARKSYMBOL_6
340
0
102
{BLKREFS
331
163
102
}
  0
BLOCK_RECORD
  5
164
330
1
100
AcDbSymbolTableRecord
100
AcDbBlockTableRecord
  2
SW_CENTERMARKSYMBOL_7
340
0
102
{BLKREFS
331
16F
102
}
  0
BLOCK_RECORD
  5
170
330
1
100
AcDbSymbolTableRecord
100
AcDbBlockTableRecord
  2
SW_CENTERMARKSYMBOL_8
340
0
102
{BLKREFS
331
17B
102
}
  0
BLOCK_RECORD
  5
17C
330
1
100
AcDbSymbolTableRecord
100
AcDbBlockTableRecord
  2
SW_CENTERMARKSYMBOL_9
340
0
102
{BLKREFS
331
187
102
}
  0
BLOCK_RECORD
  5
188
330
1
100
AcDbSymbolTableRecord
100
AcDbBlockTableRecord
  2
SW_CENTERMARKSYMBOL_10
340
0
102
{BLKREFS
331
193
102
}
  0
ENDTAB
  0
ENDSEC
  0
SECTION
  2
BLOCKS
  0
BLOCK
  5
20
330
1F
100
AcDbEntity
  8
0
100
AcDbBlockBegin
  2
*Model_Space
 70
     0
 10
0.0
 20
0.0
 30
0.0
  3
*Model_Space
  1

  0
ENDBLK
  5
21
330
1F
100
AcDbEntity
  8
0
100
AcDbBlockEnd
  0
BLOCK
  5
1C
330
1B
100
AcDbEntity
 67
     1
  8
0
100
AcDbBlockBegin
  2
*Paper_Space
 70
     0
 10
0.0
 20
0.0
 30
0.0
  3
*Paper_Space
  1

  0
ENDBLK
  5
1D
330
1B
100
AcDbEntity
 67
     1
  8
0
100
AcDbBlockEnd
  0
BLOCK
  5
24
330
23
100
AcDbEntity
  8
0
100
AcDbBlockBegin
  2
*Paper_Space0
 70
     0
 10
0.0
 20
0.0
 30
0.0
  3
*Paper_Space0
  1

  0
ENDBLK
  5
25
330
23
100
AcDbEntity
  8
0
100
AcDbBlockEnd
  0
BLOCK
  5
7D
330
7C
100
AcDbEntity
  8
0
100
AcDbBlockBegin
  2
_D
 70
     0
 10
0.0
 20
0.0
 30
0.0
  3
_D
  1

  0
SOLID
  5
7F
330
7C
100
AcDbEntity
  8
0
  6
Continuous
 62
     7
370
    18
100
AcDbTrace
 10
119.873779028
 20
67.367823677
 30
0.0
 11
116.571779028
 21
67.875823677
 31
0.0
 12
116.571779028
 22
66.859823677
 32
0.0
 13
116.571779028
 23
66.859823677
 33
0.0
  0
SOLID
  5
80
330
7C
100
AcDbEntity
  8
0
  6
Continuous
 62
     7
370
    18
100
AcDbTrace
 10
59.873779028
 20
67.367823677
 30
0.0
 11
63.175779028
 21
66.859823677
 31
0.0
 12
63.175779028
 22
67.875823677
 32
0.0
 13
63.175779028
 23
67.875823677
 33
0.0
  0
LINE
  5
81
330
7C
100
AcDbEntity
  8
0
  6
Continuous
 62
     7
370
     0
100
AcDbLine
 10
119.873779028
 20
50.7079360365
 30
0.0
 11
119.873779028
 21
68.367823677
 31
0.0
  0
LINE
  5
82
330
7C
100
AcDbEntity
  8
0
  6
Continuous
 62
     7
370
     0
100
AcDbLine
 10
59.873779028
 20
50.7079360365
 30
0.0
 11
59.873779028
 21
68.367823677
 31
0.0
  0
LINE
  5
83
330
7C
100
AcDbEntity
  8
0
  6
Continuous
 62
     7
370
     0
100
AcDbLine
 10
119.873779028
 20
67.367823677
 30
0.0
 11
59.873779028
 21
67.367823677
 31
0.0
  0
MTEXT
  5
84
330
7C
100
AcDbEntity
  8
0
  6
Continuous
 62
     7
370
    18
100
AcDbMText
 10
79.1600577428
 20
71.8795607662
 30
0.0
 40
3.5
 41
0.0
 71
     1
 72
     1
  1
%%c
  7
SLDTEXTSTYLE0
 73
     1
 44
1.0
  0
MTEXT
  5
85
330
7C
100
AcDbEntity
  8
0
  6
Continuous
 62
     7
370
    18
100
AcDbMText
 10
84.4384951412
 20
71.9330329429
 30
0.0
 40
3.5
 41
0.0
 71
     1
 72
     1
  1
600.00
  7
SLDTEXTSTYLE0
 73
     1
 44
1.0
  0
ENDBLK
  5
7E
330
7C
100
AcDbEntity
  8
0
100
AcDbBlockEnd
  0
BLOCK
  5
9E
330
9D
100
AcDbEntity
  8
0
100
AcDbBlockBegin
  2
_D_1
 70
     0
 10
0.0
 20
0.0
 30
0.0
  3
_D_1
  1

  0
ARC
  5
A0
330
9D
100
AcDbEntity
  8
0
  6
Continuous
 62
     7
370
    18
100
AcDbCircle
 10
89.873779028
 20
145.6739325843
 30
0.0
 40
7.495541136372637
100
AcDbArc
 50
120.0
 51
180.0
  0
ARC
  5
A1
330
9D
100
AcDbEntity
  8
0
  6
Continuous
 62
     7
370
    18
100
AcDbCircle
 10
89.873779028
 20
145.6739325843
 30
0.0
 40
7.495541136372637
100
AcDbArc
 50
74.8784375628
 51
120.0
  0
ARC
  5
A2
330
9D
100
AcDbEntity
  8
0
  6
Continuous
 62
     7
370
    18
100
AcDbCircle
 10
89.873779028
 20
145.6739325843
 30
0.0
 40
7.495541136372637
100
AcDbArc
 50
180.0
 51
225.1215624372
  0
SOLID
  5
A3
330
9D
100
AcDbEntity
  8
0
  6
Continuous
 62
     7
370
    18
100
AcDbTrace
 10
86.1260084598
 20
152.1652616235
 30
0.0
 11
89.4223158368
 21
152.7089763247
 31
0.0
 12
89.1064567416
 22
153.6746310414
 32
0.0
 13
89.1064567416
 23
153.6746310414
 33
0.0
  0
SOLID
  5
A4
330
9D
100
AcDbEntity
  8
0
  6
Continuous
 62
     7
370
    18
100
AcDbTrace
 10
82.3782378916
 20
145.6739325843
 30
0.0
 11
82.5613097729
 21
142.3381039486
 31
0.0
 12
83.5555208365
 22
142.5473893065
 32
0.0
 13
83.5555208365
 23
142.5473893065
 33
0.0
  0
MTEXT
  5
A5
330
9D
100
AcDbEntity
  8
0
  6
Continuous
 62
     7
370
    18
100
AcDbMText
 10
77.6263946222
 20
148.2357270631
 30
0.0
 40
3.5
 41
0.0
 71
     1
 72
     1
  1
60¡Æ
  7
SLDTEXTSTYLE0
 11
0.4717909724790602
 21
0.8817104276843178
 31
0.0
 73
     1
 44
1.0
  0
ENDBLK
  5
9F
330
9D
100
AcDbEntity
  8
0
100
AcDbBlockEnd
  0
BLOCK
  5
A9
330
A8
100
AcDbEntity
  8
0
100
AcDbBlockBegin
  2
_D_2
 70
     0
 10
0.0
 20
0.0
 30
0.0
  3
_D_2
  1

  0
SOLID
  5
AB
330
A8
100
AcDbEntity
  8
0
  6
Continuous
 62
     7
370
    18
100
AcDbTrace
 10
114.873779028
 20
187.4142671689
 30
0.0
 11
118.175779028
 21
186.9062671689
 31
0.0
 12
118.175779028
 22
187.9222671689
 32
0.0
 13
118.175779028
 23
187.9222671689
 33
0.0
  0
SOLID
  5
AC
330
A8
100
AcDbEntity
  8
0
  6
Continuous
 62
     7
370
    18
100
AcDbTrace
 10
108.373779028
 20
187.4142671689
 30
0.0
 11
105.071779028
 21
187.9222671689
 31
0.0
 12
105.071779028
 22
186.9062671689
 32
0.0
 13
105.071779028
 23
186.9062671689
 33
0.0
  0
LINE
  5
AD
330
A8
100
AcDbEntity
  8
0
  6
Continuous
 62
     7
370
     0
100
AcDbLine
 10
114.873779028
 20
153.4239325843
 30
0.0
 11
114.873779028
 21
188.4142671689
 31
0.0
  0
LINE
  5
AE
330
A8
100
AcDbEntity
  8
0
  6
Continuous
 62
     7
370
     0
100
AcDbLine
 10
108.373779028
 20
153.4239325843
 30
0.0
 11
108.373779028
 21
188.4142671689
 31
0.0
  0
LINE
  5
AF
330
A8
100
AcDbEntity
  8
0
  6
Continuous
 62
     7
370
     0
100
AcDbLine
 10
114.873779028
 20
187.4142671689
 30
0.0
 11
121.223779028
 21
187.4142671689
 31
0.0
  0
LINE
  5
B0
330
A8
100
AcDbEntity
  8
0
  6
Continuous
 62
     7
370
     0
100
AcDbLine
 10
114.873779028
 20
187.4142671689
 30
0.0
 11
108.373779028
 21
187.4142671689
 31
0.0
  0
LINE
  5
B1
330
A8
100
AcDbEntity
  8
0
  6
Continuous
 62
     7
370
     0
100
AcDbLine
 10
108.373779028
 20
187.4142671689
 30
0.0
 11
102.023779028
 21
187.4142671689
 31
0.0
  0
MTEXT
  5
B2
330
A8
100
AcDbEntity
  8
0
  6
Continuous
 62
     7
370
    18
100
AcDbMText
 10
105.4127016911
 20
191.9260040835
 30
0.0
 40
3.5
 41
0.0
 71
     1
 72
     1
  1
65.00
  7
SLDTEXTSTYLE0
 73
     1
 44
1.0
  0
ENDBLK
  5
AA
330
A8
100
AcDbEntity
  8
0
100
AcDbBlockEnd
  0
BLOCK
  5
B5
330
B4
100
AcDbEntity
  8
0
100
AcDbBlockBegin
  2
_D_3
 70
     0
 10
0.0
 20
0.0
 30
0.0
  3
_D_3
  1

  0
SOLID
  5
B7
330
B4
100
AcDbEntity
  8
0
  6
Continuous
 62
     7
370
    18
100
AcDbTrace
 10
128.8629925111
 20
152.4239325843
 30
0.0
 11
129.3709925111
 21
155.7259325843
 31
0.0
 12
128.3549925111
 22
155.7259325843
 32
0.0
 13
128.3549925111
 23
155.7259325843
 33
0.0
  0
SOLID
  5
B8
330
B4
100
AcDbEntity
  8
0
  6
Continuous
 62
     7
370
    18
100
AcDbTrace
 10
128.8629925111
 20
138.9239325843
 30
0.0
 11
128.3549925111
 21
135.6219325843
 31
0.0
 12
129.3709925111
 22
135.6219325843
 32
0.0
 13
129.3709925111
 23
135.6219325843
 33
0.0
  0
LINE
  5
B9
330
B4
100
AcDbEntity
  8
0
  6
Continuous
 62
     7
370
     0
100
AcDbLine
 10
115.873779028
 20
152.4239325843
 30
0.0
 11
129.8629925111
 21
152.4239325843
 31
0.0
  0
LINE
  5
BA
330
B4
100
AcDbEntity
  8
0
  6
Continuous
 62
     7
370
     0
100
AcDbLine
 10
115.873779028
 20
138.9239325843
 30
0.0
 11
129.8629925111
 21
138.9239325843
 31
0.0
  0
LINE
  5
BB
330
B4
100
AcDbEntity
  8
0
  6
Continuous
 62
     7
370
     0
100
AcDbLine
 10
128.8629925111
 20
152.4239325843
 30
0.0
 11
128.8629925111
 21
158.7739325843
 31
0.0
  0
LINE
  5
BC
330
B4
100
AcDbEntity
  8
0
  6
Continuous
 62
     7
370
     0
100
AcDbLine
 10
128.8629925111
 20
152.4239325843
 30
0.0
 11
128.8629925111
 21
138.9239325843
 31
0.0
  0
LINE
  5
BD
330
B4
100
AcDbEntity
  8
0
  6
Continuous
 62
     7
370
     0
100
AcDbLine
 10
128.8629925111
 20
138.9239325843
 30
0.0
 11
128.8629925111
 21
132.5739325843
 31
0.0
  0
MTEXT
  5
BE
330
B4
100
AcDbEntity
  8
0
  6
Continuous
 62
     7
370
    18
100
AcDbMText
 10
124.3512555966
 20
138.5621266275
 30
0.0
 40
3.5
 41
0.0
 71
     1
 72
     1
  1
135.00
  7
SLDTEXTSTYLE0
 11
-7.044195017643634E-15
 21
1.0
 31
0.0
 73
     1
 44
1.0
  0
ENDBLK
  5
B6
330
B4
100
AcDbEntity
  8
0
100
AcDbBlockEnd
  0
BLOCK
  5
C1
330
C0
100
AcDbEntity
  8
0
100
AcDbBlockBegin
  2
_D_4
 70
     0
 10
0.0
 20
0.0
 30
0.0
  3
_D_4
  1

  0
SOLID
  5
C3
330
C0
100
AcDbEntity
  8
0
  6
Continuous
 62
     7
370
    18
100
AcDbTrace
 10
108.373779028
 20
179.9662271965
 30
0.0
 11
105.071779028
 21
180.4742271965
 31
0.0
 12
105.071779028
 22
179.4582271965
 32
0.0
 13
105.071779028
 23
179.4582271965
 33
0.0
  0
SOLID
  5
C4
330
C0
100
AcDbEntity
  8
0
  6
Continuous
 62
     7
370
    18
100
AcDbTrace
 10
89.873779028
 20
179.9662271965
 30
0.0
 11
93.175779028
 21
179.4582271965
 31
0.0
 12
93.175779028
 22
180.4742271965
 32
0.0
 13
93.175779028
 23
180.4742271965
 33
0.0
  0
LINE
  5
C5
330
C0
100
AcDbEntity
  8
0
  6
Continuous
 62
     7
370
     0
100
AcDbLine
 10
108.373779028
 20
153.4239325843
 30
0.0
 11
108.373779028
 21
180.9662271965
 31
0.0
  0
LINE
  5
C6
330
C0
100
AcDbEntity
  8
0
  6
Continuous
 62
     7
370
     0
100
AcDbLine
 10
89.873779028
 20
176.9239325843
 30
0.0
 11
89.873779028
 21
180.9662271965
 31
0.0
  0
LINE
  5
C7
330
C0
100
AcDbEntity
  8
0
  6
Continuous
 62
     7
370
     0
100
AcDbLine
 10
108.373779028
 20
179.9662271965
 30
0.0
 11
89.873779028
 21
179.9662271965
 31
0.0
  0
MTEXT
  5
C8
330
C0
100
AcDbEntity
  8
0
  6
Continuous
 62
     7
370
    18
100
AcDbMText
 10
90.8001054039
 20
184.4779641111
 30
0.0
 40
3.5
 41
0.0
 71
     1
 72
     1
  1
185.00
  7
SLDTEXTSTYLE0
 73
     1
 44
1.0
  0
ENDBLK
  5
C2
330
C0
100
AcDbEntity
  8
0
100
AcDbBlockEnd
  0
BLOCK
  5
CC
330
CB
100
AcDbEntity
  8
0
100
AcDbBlockBegin
  2
_None
 70
     0
 10
0.0
 20
0.0
 30
0.0
  3
_None
  1

  0
ENDBLK
  5
CD
330
CB
100
AcDbEntity
  8
0
100
AcDbBlockEnd
  0
BLOCK
  5
CF
330
CE
100
AcDbEntity
  8
0
100
AcDbBlockBegin
  2
_D_5
 70
     0
 10
0.0
 20
0.0
 30
0.0
  3
_D_5
  1

  0
SOLID
  5
D1
330
CE
100
AcDbEntity
  8
0
  6
Continuous
 62
     7
370
    18
100
AcDbTrace
 10
75.9305938627
 20
169.5413949974
 30
0.0
 11
72.8725868592
 21
170.886705804
 31
0.0
 12
72.6096267094
 22
169.9053251645
 32
0.0
 13
72.6096267094
 23
169.9053251645
 33
0.0
  0
LINE
  5
D2
330
CE
100
AcDbEntity
  8
0
  6
Continuous
 62
     7
370
     0
100
AcDbLine
 10
75.9305938627
 20
169.5413949974
 30
0.0
 11
31.5395975785
 21
181.4359266029
 31
0.0
  0
LINE
  5
D3
330
CE
100
AcDbEntity
  8
0
  6
Continuous
 62
     7
370
     0
100
AcDbLine
 10
75.9305938627
 20
169.5413949974
 30
0.0
 11
76.3169641933
 21
169.4378673793
 31
0.0
  0
MTEXT
  5
D4
330
CE
100
AcDbEntity
  8
0
  6
Continuous
 62
     7
370
    18
100
AcDbMText
 10
32.7046596257
 20
185.783997357
 30
0.0
 40
3.5
 41
0.0
 71
     1
 72
     1
  1
%%c
  7
SLDTEXTSTYLE0
 11
0.9659258262890682
 21
-0.2588190451025209
 31
0.0
 73
     1
 44
1.0
  0
MTEXT
  5
D5
330
CE
100
AcDbEntity
  8
0
  6
Continuous
 62
     7
370
    18
100
AcDbMText
 10
37.8170782489
 20
184.4694873863
 30
0.0
 40
3.5
 41
0.0
 71
     1
 72
     1
  1
4.00
  7
SLDTEXTSTYLE0
 11
0.9659258262890682
 21
-0.2588190451025209
 31
0.0
 73
     1
 44
1.0
  0
MTEXT
  5
D7
330
CE
100
AcDbEntity
  8
0
  6
Continuous
 62
     7
370
    18
100
AcDbMText
 10
46.5600487066
 20
182.1268155127
 30
0.0
 40
3.5
 41
0.0
 71
     1
 72
     1
  1
*8°üÅë
  7
SLDTEXTSTYLE1
 11
0.9659258262890682
 21
-0.2588190451025209
 31
0.0
 73
     1
 44
1.0
  0
ENDBLK
  5
D0
330
CE
100
AcDbEntity
  8
0
100
AcDbBlockEnd
  0
BLOCK
  5
DA
330
D9
100
AcDbEntity
  8
0
100
AcDbBlockBegin
  2
_D_6
 70
     0
 10
0.0
 20
0.0
 30
0.0
  3
_D_6
  1

  0
SOLID
  5
DC
330
D9
100
AcDbEntity
  8
0
  6
Continuous
 62
     7
370
    18
100
AcDbTrace
 10
62.373779028
 20
99.6739325843
 30
0.0
 11
65.675779028
 21
99.1659325843
 31
0.0
 12
65.675779028
 22
100.1819325843
 32
0.0
 13
65.675779028
 23
100.1819325843
 33
0.0
  0
SOLID
  5
DD
330
D9
100
AcDbEntity
  8
0
  6
Continuous
 62
     7
370
    18
100
AcDbTrace
 10
89.873779028
 20
99.6739325843
 30
0.0
 11
86.571779028
 21
100.1819325843
 31
0.0
 12
86.571779028
 22
99.1659325843
 32
0.0
 13
86.571779028
 23
99.1659325843
 33
0.0
  0
LINE
  5
DE
330
D9
100
AcDbEntity
  8
0
  6
Continuous
 62
     7
370
     0
100
AcDbLine
 10
62.373779028
 20
144.2239325843
 30
0.0
 11
62.373779028
 21
98.6739325843
 31
0.0
  0
LINE
  5
DF
330
D9
100
AcDbEntity
  8
0
  6
Continuous
 62
     7
370
     0
100
AcDbLine
 10
89.873779028
 20
114.4239325843
 30
0.0
 11
89.873779028
 21
98.6739325843
 31
0.0
  0
LINE
  5
E0
330
D9
100
AcDbEntity
  8
0
  6
Continuous
 62
     7
370
     0
100
AcDbLine
 10
62.373779028
 20
99.6739325843
 30
0.0
 11
89.873779028
 21
99.6739325843
 31
0.0
  0
MTEXT
  5
E1
330
D9
100
AcDbEntity
  8
0
  6
Continuous
 62
     7
370
    18
100
AcDbMText
 10
68.8910073316
 20
104.1856694988
 30
0.0
 40
3.5
 41
0.0
 71
     1
 72
     1
  1
275.00
  7
SLDTEXTSTYLE0
 73
     1
 44
1.0
  0
ENDBLK
  5
DB
330
D9
100
AcDbEntity
  8
0
100
AcDbBlockEnd
  0
BLOCK
  5
E4
330
E3
100
AcDbEntity
  8
0
100
AcDbBlockBegin
  2
_D_7
 70
     0
 10
0.0
 20
0.0
 30
0.0
  3
_D_7
  1

  0
SOLID
  5
E6
330
E3
100
AcDbEntity
  8
0
  6
Continuous
 62
     7
370
    18
100
AcDbTrace
 10
77.873779028
 20
107.9246411871
 30
0.0
 11
74.571779028
 21
108.4326411871
 31
0.0
 12
74.571779028
 22
107.4166411871
 32
0.0
 13
74.571779028
 23
107.4166411871
 33
0.0
  0
SOLID
  5
E7
330
E3
100
AcDbEntity
  8
0
  6
Continuous
 62
     7
370
    18
100
AcDbTrace
 10
89.873779028
 20
107.9246411871
 30
0.0
 11
93.175779028
 21
107.4166411871
 31
0.0
 12
93.175779028
 22
108.4326411871
 32
0.0
 13
93.175779028
 23
108.4326411871
 33
0.0
  0
LINE
  5
E8
330
E3
100
AcDbEntity
  8
0
  6
Continuous
 62
     7
370
     0
100
AcDbLine
 10
77.873779028
 20
144.9989325843
 30
0.0
 11
77.873779028
 21
106.9246411871
 31
0.0
  0
LINE
  5
E9
330
E3
100
AcDbEntity
  8
0
  6
Continuous
 62
     7
370
     0
100
AcDbLine
 10
89.873779028
 20
114.4239325843
 30
0.0
 11
89.873779028
 21
106.9246411871
 31
0.0
  0
LINE
  5
EA
330
E3
100
AcDbEntity
  8
0
  6
Continuous
 62
     7
370
     0
100
AcDbLine
 10
77.873779028
 20
107.9246411871
 30
0.0
 11
71.523779028
 21
107.9246411871
 31
0.0
  0
LINE
  5
EB
330
E3
100
AcDbEntity
  8
0
  6
Continuous
 62
     7
370
     0
100
AcDbLine
 10
77.873779028
 20
107.9246411871
 30
0.0
 11
89.873779028
 21
107.9246411871
 31
0.0
  0
LINE
  5
EC
330
E3
100
AcDbEntity
  8
0
  6
Continuous
 62
     7
370
     0
100
AcDbLine
 10
89.873779028
 20
107.9246411871
 30
0.0
 11
96.223779028
 21
107.9246411871
 31
0.0
  0
MTEXT
  5
ED
330
E3
100
AcDbEntity
  8
0
  6
Continuous
 62
     7
370
    18
100
AcDbMText
 10
78.1134523966
 20
112.4363781017
 30
0.0
 40
3.5
 41
0.0
 71
     1
 72
     1
  1
120.00
  7
SLDTEXTSTYLE0
 73
     1
 44
1.0
  0
ENDBLK
  5
E5
330
E3
100
AcDbEntity
  8
0
100
AcDbBlockEnd
  0
BLOCK
  5
F0
330
EF
100
AcDbEntity
  8
0
100
AcDbBlockBegin
  2
_D_8
 70
     0
 10
0.0
 20
0.0
 30
0.0
  3
_D_8
  1

  0
SOLID
  5
F2
330
EF
100
AcDbEntity
  8
0
  6
Continuous
 62
     7
370
    18
100
AcDbTrace
 10
77.873779028
 20
187.4142671689
 30
0.0
 11
74.571779028
 21
187.9222671689
 31
0.0
 12
74.571779028
 22
186.9062671689
 32
0.0
 13
74.571779028
 23
186.9062671689
 33
0.0
  0
SOLID
  5
F3
330
EF
100
AcDbEntity
  8
0
  6
Continuous
 62
     7
370
    18
100
AcDbTrace
 10
89.873779028
 20
187.4142671689
 30
0.0
 11
93.175779028
 21
186.9062671689
 31
0.0
 12
93.175779028
 22
187.9222671689
 32
0.0
 13
93.175779028
 23
187.9222671689
 33
0.0
  0
LINE
  5
F4
330
EF
100
AcDbEntity
  8
0
  6
Continuous
 62
     7
370
     0
100
AcDbLine
 10
77.873779028
 20
147.9989325843
 30
0.0
 11
77.873779028
 21
188.4142671689
 31
0.0
  0
LINE
  5
F5
330
EF
100
AcDbEntity
  8
0
  6
Continuous
 62
     7
370
     0
100
AcDbLine
 10
89.873779028
 20
176.9239325843
 30
0.0
 11
89.873779028
 21
188.4142671689
 31
0.0
  0
LINE
  5
F6
330
EF
100
AcDbEntity
  8
0
  6
Continuous
 62
     7
370
     0
100
AcDbLine
 10
77.873779028
 20
187.4142671689
 30
0.0
 11
71.523779028
 21
187.4142671689
 31
0.0
  0
LINE
  5
F7
330
EF
100
AcDbEntity
  8
0
  6
Continuous
 62
     7
370
     0
100
AcDbLine
 10
77.873779028
 20
187.4142671689
 30
0.0
 11
89.873779028
 21
187.4142671689
 31
0.0
  0
LINE
  5
F8
330
EF
100
AcDbEntity
  8
0
  6
Continuous
 62
     7
370
     0
100
AcDbLine
 10
89.873779028
 20
187.4142671689
 30
0.0
 11
96.223779028
 21
187.4142671689
 31
0.0
  0
MTEXT
  5
F9
330
EF
100
AcDbEntity
  8
0
  6
Continuous
 62
     7
370
    18
100
AcDbMText
 10
76.1530762901
 20
191.9260040835
 30
0.0
 40
3.5
 41
0.0
 71
     1
 72
     1
  1
120.00
  7
SLDTEXTSTYLE0
 73
     1
 44
1.0
  0
ENDBLK
  5
F1
330
EF
100
AcDbEntity
  8
0
100
AcDbBlockEnd
  0
BLOCK
  5
FC
330
FB
100
AcDbEntity
  8
0
100
AcDbBlockBegin
  2
_D_9
 70
     0
 10
0.0
 20
0.0
 30
0.0
  3
_D_9
  1

  0
SOLID
  5
FE
330
FB
100
AcDbEntity
  8
0
  6
Continuous
 62
     7
370
    18
100
AcDbTrace
 10
55.8111210409
 20
146.4989325843
 30
0.0
 11
56.3191210409
 21
149.8009325843
 31
0.0
 12
55.3031210409
 22
149.8009325843
 32
0.0
 13
55.3031210409
 23
149.8009325843
 33
0.0
  0
SOLID
  5
FF
330
FB
100
AcDbEntity
  8
0
  6
Continuous
 62
     7
370
    18
100
AcDbTrace
 10
55.8111210409
 20
138.3989325843
 30
0.0
 11
55.3031210409
 21
135.0969325843
 31
0.0
 12
56.3191210409
 22
135.0969325843
 32
0.0
 13
56.3191210409
 23
135.0969325843
 33
0.0
  0
LINE
  5
100
330
FB
100
AcDbEntity
  8
0
  6
Continuous
 62
     7
370
     0
100
AcDbLine
 10
76.373779028
 20
146.4989325843
 30
0.0
 11
54.8111210409
 21
146.4989325843
 31
0.0
  0
LINE
  5
101
330
FB
100
AcDbEntity
  8
0
  6
Continuous
 62
     7
370
     0
100
AcDbLine
 10
76.373779028
 20
138.3989325843
 30
0.0
 11
54.8111210409
 21
138.3989325843
 31
0.0
  0
LINE
  5
102
330
FB
100
AcDbEntity
  8
0
  6
Continuous
 62
     7
370
     0
100
AcDbLine
 10
55.8111210409
 20
146.4989325843
 30
0.0
 11
55.8111210409
 21
152.8489325843
 31
0.0
  0
LINE
  5
103
330
FB
100
AcDbEntity
  8
0
  6
Continuous
 62
     7
370
     0
100
AcDbLine
 10
55.8111210409
 20
146.4989325843
 30
0.0
 11
55.8111210409
 21
138.3989325843
 31
0.0
  0
LINE
  5
104
330
FB
100
AcDbEntity
  8
0
  6
Continuous
 62
     7
370
     0
100
AcDbLine
 10
55.8111210409
 20
138.3989325843
 30
0.0
 11
55.8111210409
 21
132.0489325843
 31
0.0
  0
MTEXT
  5
105
330
FB
100
AcDbEntity
  8
0
  6
Continuous
 62
     7
370
    18
100
AcDbMText
 10
51.2993841264
 20
137.6232837397
 30
0.0
 40
3.5
 41
0.0
 71
     1
 72
     1
  1
81.00
  7
SLDTEXTSTYLE0
 11
-7.044195017643634E-15
 21
1.0
 31
0.0
 73
     1
 44
1.0
  0
ENDBLK
  5
FD
330
FB
100
AcDbEntity
  8
0
100
AcDbBlockEnd
  0
BLOCK
  5
109
330
108
100
AcDbEntity
  8
0
100
AcDbBlockBegin
  2
_D_10
 70
     0
 10
0.0
 20
0.0
 30
0.0
  3
_D_10
  1

  0
SOLID
  5
10B
330
108
100
AcDbEntity
  8
0
  6
Continuous
 62
     7
370
    18
100
AcDbTrace
 10
77.6785023935
 20
146.6550320269
 30
0.0
 11
75.4164826719
 21
149.113595587
 31
0.0
 12
74.7820945369
 22
148.3199913442
 32
0.0
 13
74.7820945369
 23
148.3199913442
 33
0.0
  0
LINE
  5
10C
330
108
100
AcDbEntity
  8
0
  6
Continuous
 62
     7
370
     0
100
AcDbLine
 10
77.6785023935
 20
146.6550320269
 30
0.0
 11
50.322543733
 21
168.5227271066
 31
0.0
  0
LINE
  5
10D
330
108
100
AcDbEntity
  8
0
  6
Continuous
 62
     7
370
     0
100
AcDbLine
 10
77.6785023935
 20
146.6550320269
 30
0.0
 11
78.0690556625
 21
146.3428331416
 31
0.0
  0
MTEXT
  5
10E
330
108
100
AcDbEntity
  8
0
  6
Continuous
 62
     7
370
    18
100
AcDbMText
 10
53.1310904984
 20
172.0361513121
 30
0.0
 40
3.5
 41
0.0
 71
     1
 72
     1
  1
%%c
  7
SLDTEXTSTYLE0
 11
0.7811065381865265
 21
-0.6243977706576637
 31
0.0
 73
     1
 44
1.0
  0
MTEXT
  5
10F
330
108
100
AcDbEntity
  8
0
  6
Continuous
 62
     7
370
    18
100
AcDbMText
 10
57.2875003696
 20
168.7820742348
 30
0.0
 40
3.5
 41
0.0
 71
     1
 72
     1
  1
5.00
  7
SLDTEXTSTYLE0
 11
0.7811065381865265
 21
-0.6243977706576637
 31
0.0
 73
     1
 44
1.0
  0
ENDBLK
  5
10A
330
108
100
AcDbEntity
  8
0
100
AcDbBlockEnd
  0
BLOCK
  5
111
330
110
100
AcDbEntity
  8
0
100
AcDbBlockBegin
  2
SW_CENTERMARKSYMBOL_0
 70
     0
 10
0.0
 20
0.0
 30
0.0
  3
SW_CENTERMARKSYMBOL_0
  1

  0
LINE
  5
113
330
110
100
AcDbEntity
  8
0
  6
Continuous
 62
     0
370
    18
100
AcDbLine
 10
0.0
 20
0.0
 30
0.0
 11
0.0
 21
0.25
 31
0.0
  0
LINE
  5
114
330
110
100
AcDbEntity
  8
0
  6
Continuous
 62
     0
370
    18
100
AcDbLine
 10
0.0
 20
0.0
 30
0.0
 11
-0.25
 21
0.0
 31
0.0
  0
LINE
  5
115
330
110
100
AcDbEntity
  8
0
  6
Continuous
 62
     0
370
    18
100
AcDbLine
 10
0.0
 20
0.0
 30
0.0
 11
0.0
 21
-0.25
 31
0.0
  0
LINE
  5
116
330
110
100
AcDbEntity
  8
0
  6
Continuous
 62
     0
370
    18
100
AcDbLine
 10
0.0
 20
0.0
 30
0.0
 11
0.25
 21
0.0
 31
0.0
  0
LINE
  5
117
330
110
100
AcDbEntity
  8
0
  6
Continuous
 62
     0
370
    18
100
AcDbLine
 10
0.0
 20
0.5
 30
0.0
 11
0.0
 21
30.25
 31
0.0
  0
LINE
  5
118
330
110
100
AcDbEntity
  8
0
  6
Continuous
 62
     0
370
    18
100
AcDbLine
 10
-0.5
 20
0.0
 30
0.0
 11
-30.25
 21
0.0
 31
0.0
  0
LINE
  5
119
330
110
100
AcDbEntity
  8
0
  6
Continuous
 62
     0
370
    18
100
AcDbLine
 10
0.0
 20
-0.5
 30
0.0
 11
0.0
 21
-30.25
 31
0.0
  0
LINE
  5
11A
330
110
100
AcDbEntity
  8
0
  6
Continuous
 62
     0
370
    18
100
AcDbLine
 10
0.5
 20
0.0
 30
0.0
 11
30.25
 21
0.0
 31
0.0
  0
ENDBLK
  5
112
330
110
100
AcDbEntity
  8
0
100
AcDbBlockEnd
  0
BLOCK
  5
11D
330
11C
100
AcDbEntity
  8
0
100
AcDbBlockBegin
  2
SW_CENTERMARKSYMBOL_1
 70
     0
 10
0.0
 20
0.0
 30
0.0
  3
SW_CENTERMARKSYMBOL_1
  1

  0
LINE
  5
11F
330
11C
100
AcDbEntity
  8
0
  6
Continuous
 62
     0
370
    18
100
AcDbLine
 10
0.0
 20
0.0
 30
0.0
 11
0.0
 21
0.25
 31
0.0
  0
LINE
  5
120
330
11C
100
AcDbEntity
  8
0
  6
Continuous
 62
     0
370
    18
100
AcDbLine
 10
0.0
 20
0.0
 30
0.0
 11
-0.25
 21
0.0
 31
0.0
  0
LINE
  5
121
330
11C
100
AcDbEntity
  8
0
  6
Continuous
 62
     0
370
    18
100
AcDbLine
 10
0.0
 20
0.0
 30
0.0
 11
0.0
 21
-0.25
 31
0.0
  0
LINE
  5
122
330
11C
100
AcDbEntity
  8
0
  6
Continuous
 62
     0
370
    18
100
AcDbLine
 10
0.0
 20
0.0
 30
0.0
 11
0.25
 21
0.0
 31
0.0
  0
LINE
  5
123
330
11C
100
AcDbEntity
  8
0
  6
Continuous
 62
     0
370
    18
100
AcDbLine
 10
0.0
 20
0.25
 30
0.0
 11
0.0
 21
0.45
 31
0.0
  0
LINE
  5
124
330
11C
100
AcDbEntity
  8
0
  6
Continuous
 62
     0
370
    18
100
AcDbLine
 10
-0.25
 20
0.0
 30
0.0
 11
-0.45
 21
0.0
 31
0.0
  0
LINE
  5
125
330
11C
100
AcDbEntity
  8
0
  6
Continuous
 62
     0
370
    18
100
AcDbLine
 10
0.0
 20
-0.25
 30
0.0
 11
0.0
 21
-0.45
 31
0.0
  0
LINE
  5
126
330
11C
100
AcDbEntity
  8
0
  6
Continuous
 62
     0
370
    18
100
AcDbLine
 10
0.25
 20
0.0
 30
0.0
 11
0.45
 21
0.0
 31
0.0
  0
ENDBLK
  5
11E
330
11C
100
AcDbEntity
  8
0
100
AcDbBlockEnd
  0
BLOCK
  5
129
330
128
100
AcDbEntity
  8
0
100
AcDbBlockBegin
  2
SW_CENTERMARKSYMBOL_2
 70
     0
 10
0.0
 20
0.0
 30
0.0
  3
SW_CENTERMARKSYMBOL_2
  1

  0
LINE
  5
12B
330
128
100
AcDbEntity
  8
0
  6
Continuous
 62
     0
370
    18
100
AcDbLine
 10
0.0
 20
0.0
 30
0.0
 11
0.0
 21
0.25
 31
0.0
  0
LINE
  5
12C
330
128
100
AcDbEntity
  8
0
  6
Continuous
 62
     0
370
    18
100
AcDbLine
 10
0.0
 20
0.0
 30
0.0
 11
-0.25
 21
0.0
 31
0.0
  0
LINE
  5
12D
330
128
100
AcDbEntity
  8
0
  6
Continuous
 62
     0
370
    18
100
AcDbLine
 10
0.0
 20
0.0
 30
0.0
 11
0.0
 21
-0.25
 31
0.0
  0
LINE
  5
12E
330
128
100
AcDbEntity
  8
0
  6
Continuous
 62
     0
370
    18
100
AcDbLine
 10
0.0
 20
0.0
 30
0.0
 11
0.25
 21
0.0
 31
0.0
  0
LINE
  5
12F
330
128
100
AcDbEntity
  8
0
  6
Continuous
 62
     0
370
    18
100
AcDbLine
 10
0.0
 20
0.25
 30
0.0
 11
0.0
 21
0.45
 31
0.0
  0
LINE
  5
130
330
128
100
AcDbEntity
  8
0
  6
Continuous
 62
     0
370
    18
100
AcDbLine
 10
-0.25
 20
0.0
 30
0.0
 11
-0.45
 21
0.0
 31
0.0
  0
LINE
  5
131
330
128
100
AcDbEntity
  8
0
  6
Continuous
 62
     0
370
    18
100
AcDbLine
 10
0.0
 20
-0.25
 30
0.0
 11
0.0
 21
-0.45
 31
0.0
  0
LINE
  5
132
330
128
100
AcDbEntity
  8
0
  6
Continuous
 62
     0
370
    18
100
AcDbLine
 10
0.25
 20
0.0
 30
0.0
 11
0.45
 21
0.0
 31
0.0
  0
ENDBLK
  5
12A
330
128
100
AcDbEntity
  8
0
100
AcDbBlockEnd
  0
BLOCK
  5
135
330
134
100
AcDbEntity
  8
0
100
AcDbBlockBegin
  2
SW_CENTERMARKSYMBOL_3
 70
     0
 10
0.0
 20
0.0
 30
0.0
  3
SW_CENTERMARKSYMBOL_3
  1

  0
LINE
  5
137
330
134
100
AcDbEntity
  8
0
  6
Continuous
 62
     0
370
    18
100
AcDbLine
 10
0.0
 20
0.0
 30
0.0
 11
0.0
 21
0.25
 31
0.0
  0
LINE
  5
138
330
134
100
AcDbEntity
  8
0
  6
Continuous
 62
     0
370
    18
100
AcDbLine
 10
0.0
 20
0.0
 30
0.0
 11
-0.25
 21
0.0
 31
0.0
  0
LINE
  5
139
330
134
100
AcDbEntity
  8
0
  6
Continuous
 62
     0
370
    18
100
AcDbLine
 10
0.0
 20
0.0
 30
0.0
 11
0.0
 21
-0.25
 31
0.0
  0
LINE
  5
13A
330
134
100
AcDbEntity
  8
0
  6
Continuous
 62
     0
370
    18
100
AcDbLine
 10
0.0
 20
0.0
 30
0.0
 11
0.25
 21
0.0
 31
0.0
  0
LINE
  5
13B
330
134
100
AcDbEntity
  8
0
  6
Continuous
 62
     0
370
    18
100
AcDbLine
 10
0.0
 20
0.25
 30
0.0
 11
0.0
 21
0.45
 31
0.0
  0
LINE
  5
13C
330
134
100
AcDbEntity
  8
0
  6
Continuous
 62
     0
370
    18
100
AcDbLine
 10
-0.25
 20
0.0
 30
0.0
 11
-0.45
 21
0.0
 31
0.0
  0
LINE
  5
13D
330
134
100
AcDbEntity
  8
0
  6
Continuous
 62
     0
370
    18
100
AcDbLine
 10
0.0
 20
-0.25
 30
0.0
 11
0.0
 21
-0.45
 31
0.0
  0
LINE
  5
13E
330
134
100
AcDbEntity
  8
0
  6
Continuous
 62
     0
370
    18
100
AcDbLine
 10
0.25
 20
0.0
 30
0.0
 11
0.45
 21
0.0
 31
0.0
  0
ENDBLK
  5
136
330
134
100
AcDbEntity
  8
0
100
AcDbBlockEnd
  0
BLOCK
  5
141
330
140
100
AcDbEntity
  8
0
100
AcDbBlockBegin
  2
SW_CENTERMARKSYMBOL_4
 70
     0
 10
0.0
 20
0.0
 30
0.0
  3
SW_CENTERMARKSYMBOL_4
  1

  0
LINE
  5
143
330
140
100
AcDbEntity
  8
0
  6
Continuous
 62
     0
370
    18
100
AcDbLine
 10
0.0
 20
0.0
 30
0.0
 11
0.0
 21
0.25
 31
0.0
  0
LINE
  5
144
330
140
100
AcDbEntity
  8
0
  6
Continuous
 62
     0
370
    18
100
AcDbLine
 10
0.0
 20
0.0
 30
0.0
 11
-0.25
 21
0.0
 31
0.0
  0
LINE
  5
145
330
140
100
AcDbEntity
  8
0
  6
Continuous
 62
     0
370
    18
100
AcDbLine
 10
0.0
 20
0.0
 30
0.0
 11
0.0
 21
-0.25
 31
0.0
  0
LINE
  5
146
330
140
100
AcDbEntity
  8
0
  6
Continuous
 62
     0
370
    18
100
AcDbLine
 10
0.0
 20
0.0
 30
0.0
 11
0.25
 21
0.0
 31
0.0
  0
LINE
  5
147
330
140
100
AcDbEntity
  8
0
  6
Continuous
 62
     0
370
    18
100
AcDbLine
 10
0.0
 20
0.25
 30
0.0
 11
0.0
 21
0.45
 31
0.0
  0
LINE
  5
148
330
140
100
AcDbEntity
  8
0
  6
Continuous
 62
     0
370
    18
100
AcDbLine
 10
-0.25
 20
0.0
 30
0.0
 11
-0.45
 21
0.0
 31
0.0
  0
LINE
  5
149
330
140
100
AcDbEntity
  8
0
  6
Continuous
 62
     0
370
    18
100
AcDbLine
 10
0.0
 20
-0.25
 30
0.0
 11
0.0
 21
-0.45
 31
0.0
  0
LINE
  5
14A
330
140
100
AcDbEntity
  8
0
  6
Continuous
 62
     0
370
    18
100
AcDbLine
 10
0.25
 20
0.0
 30
0.0
 11
0.45
 21
0.0
 31
0.0
  0
ENDBLK
  5
142
330
140
100
AcDbEntity
  8
0
100
AcDbBlockEnd
  0
BLOCK
  5
14D
330
14C
100
AcDbEntity
  8
0
100
AcDbBlockBegin
  2
SW_CENTERMARKSYMBOL_5
 70
     0
 10
0.0
 20
0.0
 30
0.0
  3
SW_CENTERMARKSYMBOL_5
  1

  0
LINE
  5
14F
330
14C
100
AcDbEntity
  8
0
  6
Continuous
 62
     0
370
    18
100
AcDbLine
 10
0.0
 20
0.0
 30
0.0
 11
0.0
 21
0.25
 31
0.0
  0
LINE
  5
150
330
14C
100
AcDbEntity
  8
0
  6
Continuous
 62
     0
370
    18
100
AcDbLine
 10
0.0
 20
0.0
 30
0.0
 11
-0.25
 21
0.0
 31
0.0
  0
LINE
  5
151
330
14C
100
AcDbEntity
  8
0
  6
Continuous
 62
     0
370
    18
100
AcDbLine
 10
0.0
 20
0.0
 30
0.0
 11
0.0
 21
-0.25
 31
0.0
  0
LINE
  5
152
330
14C
100
AcDbEntity
  8
0
  6
Continuous
 62
     0
370
    18
100
AcDbLine
 10
0.0
 20
0.0
 30
0.0
 11
0.25
 21
0.0
 31
0.0
  0
LINE
  5
153
330
14C
100
AcDbEntity
  8
0
  6
Continuous
 62
     0
370
    18
100
AcDbLine
 10
0.0
 20
0.25
 30
0.0
 11
0.0
 21
0.45
 31
0.0
  0
LINE
  5
154
330
14C
100
AcDbEntity
  8
0
  6
Continuous
 62
     0
370
    18
100
AcDbLine
 10
-0.25
 20
0.0
 30
0.0
 11
-0.45
 21
0.0
 31
0.0
  0
LINE
  5
155
330
14C
100
AcDbEntity
  8
0
  6
Continuous
 62
     0
370
    18
100
AcDbLine
 10
0.0
 20
-0.25
 30
0.0
 11
0.0
 21
-0.45
 31
0.0
  0
LINE
  5
156
330
14C
100
AcDbEntity
  8
0
  6
Continuous
 62
     0
370
    18
100
AcDbLine
 10
0.25
 20
0.0
 30
0.0
 11
0.45
 21
0.0
 31
0.0
  0
ENDBLK
  5
14E
330
14C
100
AcDbEntity
  8
0
100
AcDbBlockEnd
  0
BLOCK
  5
159
330
158
100
AcDbEntity
  8
0
100
AcDbBlockBegin
  2
SW_CENTERMARKSYMBOL_6
 70
     0
 10
0.0
 20
0.0
 30
0.0
  3
SW_CENTERMARKSYMBOL_6
  1

  0
LINE
  5
15B
330
158
100
AcDbEntity
  8
0
  6
Continuous
 62
     0
370
    18
100
AcDbLine
 10
0.0
 20
0.0
 30
0.0
 11
0.0
 21
0.25
 31
0.0
  0
LINE
  5
15C
330
158
100
AcDbEntity
  8
0
  6
Continuous
 62
     0
370
    18
100
AcDbLine
 10
0.0
 20
0.0
 30
0.0
 11
-0.25
 21
0.0
 31
0.0
  0
LINE
  5
15D
330
158
100
AcDbEntity
  8
0
  6
Continuous
 62
     0
370
    18
100
AcDbLine
 10
0.0
 20
0.0
 30
0.0
 11
0.0
 21
-0.25
 31
0.0
  0
LINE
  5
15E
330
158
100
AcDbEntity
  8
0
  6
Continuous
 62
     0
370
    18
100
AcDbLine
 10
0.0
 20
0.0
 30
0.0
 11
0.25
 21
0.0
 31
0.0
  0
LINE
  5
15F
330
158
100
AcDbEntity
  8
0
  6
Continuous
 62
     0
370
    18
100
AcDbLine
 10
0.0
 20
0.25
 30
0.0
 11
0.0
 21
0.45
 31
0.0
  0
LINE
  5
160
330
158
100
AcDbEntity
  8
0
  6
Continuous
 62
     0
370
    18
100
AcDbLine
 10
-0.25
 20
0.0
 30
0.0
 11
-0.45
 21
0.0
 31
0.0
  0
LINE
  5
161
330
158
100
AcDbEntity
  8
0
  6
Continuous
 62
     0
370
    18
100
AcDbLine
 10
0.0
 20
-0.25
 30
0.0
 11
0.0
 21
-0.45
 31
0.0
  0
LINE
  5
162
330
158
100
AcDbEntity
  8
0
  6
Continuous
 62
     0
370
    18
100
AcDbLine
 10
0.25
 20
0.0
 30
0.0
 11
0.45
 21
0.0
 31
0.0
  0
ENDBLK
  5
15A
330
158
100
AcDbEntity
  8
0
100
AcDbBlockEnd
  0
BLOCK
  5
165
330
164
100
AcDbEntity
  8
0
100
AcDbBlockBegin
  2
SW_CENTERMARKSYMBOL_7
 70
     0
 10
0.0
 20
0.0
 30
0.0
  3
SW_CENTERMARKSYMBOL_7
  1

  0
LINE
  5
167
330
164
100
AcDbEntity
  8
0
  6
Continuous
 62
     0
370
    18
100
AcDbLine
 10
0.0
 20
0.0
 30
0.0
 11
0.0
 21
0.25
 31
0.0
  0
LINE
  5
168
330
164
100
AcDbEntity
  8
0
  6
Continuous
 62
     0
370
    18
100
AcDbLine
 10
0.0
 20
0.0
 30
0.0
 11
-0.25
 21
0.0
 31
0.0
  0
LINE
  5
169
330
164
100
AcDbEntity
  8
0
  6
Continuous
 62
     0
370
    18
100
AcDbLine
 10
0.0
 20
0.0
 30
0.0
 11
0.0
 21
-0.25
 31
0.0
  0
LINE
  5
16A
330
164
100
AcDbEntity
  8
0
  6
Continuous
 62
     0
370
    18
100
AcDbLine
 10
0.0
 20
0.0
 30
0.0
 11
0.25
 21
0.0
 31
0.0
  0
LINE
  5
16B
330
164
100
AcDbEntity
  8
0
  6
Continuous
 62
     0
370
    18
100
AcDbLine
 10
0.0
 20
0.25
 30
0.0
 11
0.0
 21
0.5
 31
0.0
  0
LINE
  5
16C
330
164
100
AcDbEntity
  8
0
  6
Continuous
 62
     0
370
    18
100
AcDbLine
 10
-0.25
 20
0.0
 30
0.0
 11
-0.5
 21
0.0
 31
0.0
  0
LINE
  5
16D
330
164
100
AcDbEntity
  8
0
  6
Continuous
 62
     0
370
    18
100
AcDbLine
 10
0.0
 20
-0.25
 30
0.0
 11
0.0
 21
-0.5
 31
0.0
  0
LINE
  5
16E
330
164
100
AcDbEntity
  8
0
  6
Continuous
 62
     0
370
    18
100
AcDbLine
 10
0.25
 20
0.0
 30
0.0
 11
0.5
 21
0.0
 31
0.0
  0
ENDBLK
  5
166
330
164
100
AcDbEntity
  8
0
100
AcDbBlockEnd
  0
BLOCK
  5
171
330
170
100
AcDbEntity
  8
0
100
AcDbBlockBegin
  2
SW_CENTERMARKSYMBOL_8
 70
     0
 10
0.0
 20
0.0
 30
0.0
  3
SW_CENTERMARKSYMBOL_8
  1

  0
LINE
  5
173
330
170
100
AcDbEntity
  8
0
  6
Continuous
 62
     0
370
    18
100
AcDbLine
 10
0.0
 20
0.0
 30
0.0
 11
0.0
 21
0.25
 31
0.0
  0
LINE
  5
174
330
170
100
AcDbEntity
  8
0
  6
Continuous
 62
     0
370
    18
100
AcDbLine
 10
0.0
 20
0.0
 30
0.0
 11
-0.25
 21
0.0
 31
0.0
  0
LINE
  5
175
330
170
100
AcDbEntity
  8
0
  6
Continuous
 62
     0
370
    18
100
AcDbLine
 10
0.0
 20
0.0
 30
0.0
 11
0.0
 21
-0.25
 31
0.0
  0
LINE
  5
176
330
170
100
AcDbEntity
  8
0
  6
Continuous
 62
     0
370
    18
100
AcDbLine
 10
0.0
 20
0.0
 30
0.0
 11
0.25
 21
0.0
 31
0.0
  0
LINE
  5
177
330
170
100
AcDbEntity
  8
0
  6
Continuous
 62
     0
370
    18
100
AcDbLine
 10
0.0
 20
0.25
 30
0.0
 11
0.0
 21
0.5
 31
0.0
  0
LINE
  5
178
330
170
100
AcDbEntity
  8
0
  6
Continuous
 62
     0
370
    18
100
AcDbLine
 10
-0.25
 20
0.0
 30
0.0
 11
-0.5
 21
0.0
 31
0.0
  0
LINE
  5
179
330
170
100
AcDbEntity
  8
0
  6
Continuous
 62
     0
370
    18
100
AcDbLine
 10
0.0
 20
-0.25
 30
0.0
 11
0.0
 21
-0.5
 31
0.0
  0
LINE
  5
17A
330
170
100
AcDbEntity
  8
0
  6
Continuous
 62
     0
370
    18
100
AcDbLine
 10
0.25
 20
0.0
 30
0.0
 11
0.5
 21
0.0
 31
0.0
  0
ENDBLK
  5
172
330
170
100
AcDbEntity
  8
0
100
AcDbBlockEnd
  0
BLOCK
  5
17D
330
17C
100
AcDbEntity
  8
0
100
AcDbBlockBegin
  2
SW_CENTERMARKSYMBOL_9
 70
     0
 10
0.0
 20
0.0
 30
0.0
  3
SW_CENTERMARKSYMBOL_9
  1

  0
LINE
  5
17F
330
17C
100
AcDbEntity
  8
0
  6
Continuous
 62
     0
370
    18
100
AcDbLine
 10
0.0
 20
0.0
 30
0.0
 11
0.0
 21
0.25
 31
0.0
  0
LINE
  5
180
330
17C
100
AcDbEntity
  8
0
  6
Continuous
 62
     0
370
    18
100
AcDbLine
 10
0.0
 20
0.0
 30
0.0
 11
-0.25
 21
0.0
 31
0.0
  0
LINE
  5
181
330
17C
100
AcDbEntity
  8
0
  6
Continuous
 62
     0
370
    18
100
AcDbLine
 10
0.0
 20
0.0
 30
0.0
 11
0.0
 21
-0.25
 31
0.0
  0
LINE
  5
182
330
17C
100
AcDbEntity
  8
0
  6
Continuous
 62
     0
370
    18
100
AcDbLine
 10
0.0
 20
0.0
 30
0.0
 11
0.25
 21
0.0
 31
0.0
  0
LINE
  5
183
330
17C
100
AcDbEntity
  8
0
  6
Continuous
 62
     0
370
    18
100
AcDbLine
 10
0.0
 20
0.25
 30
0.0
 11
0.0
 21
0.5
 31
0.0
  0
LINE
  5
184
330
17C
100
AcDbEntity
  8
0
  6
Continuous
 62
     0
370
    18
100
AcDbLine
 10
-0.25
 20
0.0
 30
0.0
 11
-0.5
 21
0.0
 31
0.0
  0
LINE
  5
185
330
17C
100
AcDbEntity
  8
0
  6
Continuous
 62
     0
370
    18
100
AcDbLine
 10
0.0
 20
-0.25
 30
0.0
 11
0.0
 21
-0.5
 31
0.0
  0
LINE
  5
186
330
17C
100
AcDbEntity
  8
0
  6
Continuous
 62
     0
370
    18
100
AcDbLine
 10
0.25
 20
0.0
 30
0.0
 11
0.5
 21
0.0
 31
0.0
  0
ENDBLK
  5
17E
330
17C
100
AcDbEntity
  8
0
100
AcDbBlockEnd
  0
BLOCK
  5
189
330
188
100
AcDbEntity
  8
0
100
AcDbBlockBegin
  2
SW_CENTERMARKSYMBOL_10
 70
     0
 10
0.0
 20
0.0
 30
0.0
  3
SW_CENTERMARKSYMBOL_10
  1

  0
LINE
  5
18B
330
188
100
AcDbEntity
  8
0
  6
Continuous
 62
     0
370
    18
100
AcDbLine
 10
0.0
 20
0.0
 30
0.0
 11
0.0
 21
0.25
 31
0.0
  0
LINE
  5
18C
330
188
100
AcDbEntity
  8
0
  6
Continuous
 62
     0
370
    18
100
AcDbLine
 10
0.0
 20
0.0
 30
0.0
 11
-0.25
 21
0.0
 31
0.0
  0
LINE
  5
18D
330
188
100
AcDbEntity
  8
0
  6
Continuous
 62
     0
370
    18
100
AcDbLine
 10
0.0
 20
0.0
 30
0.0
 11
0.0
 21
-0.25
 31
0.0
  0
LINE
  5
18E
330
188
100
AcDbEntity
  8
0
  6
Continuous
 62
     0
370
    18
100
AcDbLine
 10
0.0
 20
0.0
 30
0.0
 11
0.25
 21
0.0
 31
0.0
  0
LINE
  5
18F
330
188
100
AcDbEntity
  8
0
  6
Continuous
 62
     0
370
    18
100
AcDbLine
 10
0.0
 20
0.25
 30
0.0
 11
0.0
 21
0.5
 31
0.0
  0
LINE
  5
190
330
188
100
AcDbEntity
  8
0
  6
Continuous
 62
     0
370
    18
100
AcDbLine
 10
-0.25
 20
0.0
 30
0.0
 11
-0.5
 21
0.0
 31
0.0
  0
LINE
  5
191
330
188
100
AcDbEntity
  8
0
  6
Continuous
 62
     0
370
    18
100
AcDbLine
 10
0.0
 20
-0.25
 30
0.0
 11
0.0
 21
-0.5
 31
0.0
  0
LINE
  5
192
330
188
100
AcDbEntity
  8
0
  6
Continuous
 62
     0
370
    18
100
AcDbLine
 10
0.25
 20
0.0
 30
0.0
 11
0.5
 21
0.0
 31
0.0
  0
ENDBLK
  5
18A
330
188
100
AcDbEntity
  8
0
100
AcDbBlockEnd
  0
ENDSEC
  0
SECTION
  2
ENTITIES
  0
LINE
  5
73
330
1F
100
AcDbEntity
  8
0
  6
Continuous
 62
     7
370
    25
100
AcDbLine
 10
119.873779028
 20
49.4079360365
 30
0.0
 11
119.873779028
 21
49.7079360365
 31
0.0
  0
LINE
  5
74
330
1F
100
AcDbEntity
  8
0
  6
Continuous
 62
     7
370
    25
100
AcDbLine
 10
59.873779028
 20
49.7079360365
 30
0.0
 11
59.873779028
 21
49.4079360365
 31
0.0
  0
LINE
  5
75
330
1F
100
AcDbEntity
  8
0
  6
Continuous
 62
     7
370
    25
100
AcDbLine
 10
89.873779028
 20
49.4079360365
 30
0.0
 11
119.873779028
 21
49.4079360365
 31
0.0
  0
LINE
  5
76
330
1F
100
AcDbEntity
  8
0
  6
Continuous
 62
     7
370
    25
100
AcDbLine
 10
59.873779028
 20
49.4079360365
 30
0.0
 11
89.873779028
 21
49.4079360365
 31
0.0
  0
LINE
  5
77
330
1F
100
AcDbEntity
  8
0
  6
Continuous
 62
     7
370
    25
100
AcDbLine
 10
89.873779028
 20
49.7079360365
 30
0.0
 11
119.873779028
 21
49.7079360365
 31
0.0
  0
LINE
  5
78
330
1F
100
AcDbEntity
  8
0
  6
Continuous
 62
     7
370
    25
100
AcDbLine
 10
59.873779028
 20
49.7079360365
 30
0.0
 11
89.873779028
 21
49.7079360365
 31
0.0
  0
DIMENSION
  5
79
330
1F
100
AcDbEntity
  8
0
  6
Continuous
 62
     7
370
    18
100
AcDbDimension
  2
_D
 10
59.873779028
 20
67.367823677
 30
0.0
 11
88.9110823988
 21
67.367823677
 31
0.0
 70
   160
  1
%%c<>
 71
     2
 42
-1.0
  3
SLDDIMSTYLE0
100
AcDbAlignedDimension
 13
119.873779028
 23
49.7079360365
 33
0.0
 14
59.873779028
 24
49.7079360365
 34
0.0
100
AcDbRotatedDimension
  0
LINE
  5
86
330
1F
100
AcDbEntity
  8
0
  6
Continuous
 62
     7
100
AcDbLine
 10
89.873779028
 20
145.6739325843
 30
0.0
 11
89.873779028
 21
118.6364919749
 31
0.0
  0
LINE
  5
87
330
1F
100
AcDbEntity
  8
0
  6
Continuous
 62
     7
370
    25
100
AcDbLine
 10
64.873779028
 20
152.4239325843
 30
0.0
 11
64.873779028
 21
138.9239325843
 31
0.0
  0
LINE
  5
88
330
1F
100
AcDbEntity
  8
0
  6
Continuous
 62
     7
370
    25
100
AcDbLine
 10
64.873779028
 20
138.9239325843
 30
0.0
 11
71.373779028
 21
138.9239325843
 31
0.0
  0
LINE
  5
89
330
1F
100
AcDbEntity
  8
0
  6
Continuous
 62
     7
370
    25
100
AcDbLine
 10
71.373779028
 20
152.4239325843
 30
0.0
 11
71.373779028
 21
138.9239325843
 31
0.0
  0
LINE
  5
8A
330
1F
100
AcDbEntity
  8
0
  6
Continuous
 62
     7
370
    25
100
AcDbLine
 10
64.873779028
 20
152.4239325843
 30
0.0
 11
71.373779028
 21
152.4239325843
 31
0.0
  0
CIRCLE
  5
8B
330
1F
100
AcDbEntity
  8
0
  6
Continuous
 62
     7
370
    25
100
AcDbCircle
 10
89.873779028
 20
145.6739325843
 30
0.0
 40
30.0
  0
LINE
  5
8C
330
1F
100
AcDbEntity
  8
0
  6
Continuous
 62
     7
370
    25
100
AcDbLine
 10
108.373779028
 20
152.4239325843
 30
0.0
 11
108.373779028
 21
138.9239325843
 31
0.0
  0
LINE
  5
8D
330
1F
100
AcDbEntity
  8
0
  6
Continuous
 62
     7
370
    25
100
AcDbLine
 10
114.873779028
 20
138.9239325843
 30
0.0
 11
108.373779028
 21
138.9239325843
 31
0.0
  0
LINE
  5
8E
330
1F
100
AcDbEntity
  8
0
  6
Continuous
 62
     7
370
    25
100
AcDbLine
 10
114.873779028
 20
152.4239325843
 30
0.0
 11
114.873779028
 21
138.9239325843
 31
0.0
  0
LINE
  5
8F
330
1F
100
AcDbEntity
  8
0
  6
Continuous
 62
     7
370
    25
100
AcDbLine
 10
114.873779028
 20
152.4239325843
 30
0.0
 11
108.373779028
 21
152.4239325843
 31
0.0
  0
CIRCLE
  5
90
330
1F
100
AcDbEntity
  8
0
  6
Continuous
 62
     7
370
    25
100
AcDbCircle
 10
117.373779028
 20
145.6739325843
 30
0.0
 40
0.2000000000000171
  0
CIRCLE
  5
91
330
1F
100
AcDbEntity
  8
0
  6
Continuous
 62
     7
370
    25
100
AcDbCircle
 10
103.623779028
 20
121.8582339802
 30
0.0
 40
0.2000000000000028
  0
CIRCLE
  5
92
330
1F
100
AcDbEntity
  8
0
  6
Continuous
 62
     7
370
    25
100
AcDbCircle
 10
76.123779028
 20
121.8582339802
 30
0.0
 40
0.2000000000000028
  0
CIRCLE
  5
93
330
1F
100
AcDbEntity
  8
0
  6
Continuous
 62
     7
370
    25
100
AcDbCircle
 10
62.373779028
 20
145.6739325843
 30
0.0
 40
0.2000000000000171
  0
CIRCLE
  5
94
330
1F
100
AcDbEntity
  8
0
  6
Continuous
 62
     7
370
    25
100
AcDbCircle
 10
76.123779028
 20
169.4896311883
 30
0.0
 40
0.1999999999999602
  0
CIRCLE
  5
95
330
1F
100
AcDbEntity
  8
0
  6
Continuous
 62
     7
370
    25
100
AcDbCircle
 10
103.623779028
 20
169.4896311883
 30
0.0
 40
0.1999999999999886
  0
CIRCLE
  5
96
330
1F
100
AcDbEntity
  8
0
  6
Continuous
 62
     7
370
    25
100
AcDbCircle
 10
101.873779028
 20
138.3989325843
 30
0.0
 40
0.25
  0
CIRCLE
  5
97
330
1F
100
AcDbEntity
  8
0
  6
Continuous
 62
     7
370
    25
100
AcDbCircle
 10
101.873779028
 20
146.4989325843
 30
0.0
 40
0.25
  0
CIRCLE
  5
98
330
1F
100
AcDbEntity
  8
0
  6
Continuous
 62
     7
370
    25
100
AcDbCircle
 10
77.873779028
 20
138.3989325843
 30
0.0
 40
0.25
  0
CIRCLE
  5
99
330
1F
100
AcDbEntity
  8
0
  6
Continuous
 62
     7
370
    25
100
AcDbCircle
 10
77.873779028
 20
146.4989325843
 30
0.0
 40
0.25
  0
LINE
  5
9A
330
1F
100
AcDbEntity
  8
0
  6
CENTERX2
 62
     7
370
    18
100
AcDbLine
 10
76.123779028
 20
169.4896311883
 30
0.0
 11
89.873779028
 21
145.6739325843
 31
0.0
  0
DIMENSION
  5
9B
330
1F
100
AcDbEntity
  8
0
  6
Continuous
 62
     7
370
    18
100
AcDbDimension
  2
_D_1
 10
59.623779028
 20
145.6739325843
 30
0.0
 11
83.2648822469
 21
149.2102612263
 31
0.0
 70
   162
  1
<>
 71
     1
 42
-1.0
  3
SLDDIMSTYLE1
100
AcDb2LineAngularDimension
 13
76.123779028
 23
169.4896311883
 33
0.0
 14
89.873779028
 24
145.6739325843
 34
0.0
 15
120.123779028
 25
145.6739325843
 35
0.0
 16
83.3824499888
 26
149.4217031525
 36
0.0
  0
DIMENSION
  5
A6
330
1F
100
AcDbEntity
  8
0
  6
Continuous
 62
     7
370
    18
100
AcDbDimension
  2
_D_2
 10
108.373779028
 20
187.4142671689
 30
0.0
 11
111.2314519348
 21
187.4142671689
 31
0.0
 70
   160
  1
<>
 71
     2
 42
-1.0
  3
SLDDIMSTYLE2
100
AcDbAlignedDimension
 13
114.873779028
 23
152.4239325843
 33
0.0
 14
108.373779028
 24
152.4239325843
 34
0.0
100
AcDbRotatedDimension
  0
DIMENSION
  5
B3
330
1F
100
AcDbEntity
  8
0
  6
Continuous
 62
     7
370
    18
100
AcDbDimension
  2
_D_3
 10
128.8629925111
 20
138.9239325843
 30
0.0
 11
128.8629925111
 21
145.6739325843
 31
0.0
 70
   160
  1
<>
 71
     2
 42
-1.0
  3
SLDDIMSTYLE2
100
AcDbAlignedDimension
 13
114.873779028
 23
152.4239325843
 33
0.0
 14
114.873779028
 24
138.9239325843
 34
0.0
 50
90.0
100
AcDbRotatedDimension
  0
DIMENSION
  5
BF
330
1F
100
AcDbEntity
  8
0
  6
Continuous
 62
     7
370
    18
100
AcDbDimension
  2
_D_4
 10
89.873779028
 20
179.9662271965
 30
0.0
 11
97.9119113607
 21
179.9662271965
 31
0.0
 70
   160
  1
<>
 71
     2
 42
-1.0
  3
SLDDIMSTYLE0
100
AcDbAlignedDimension
 13
108.373779028
 23
152.4239325843
 33
0.0
 14
89.873779028
 24
175.9239325843
 34
0.0
100
AcDbRotatedDimension
  0
DIMENSION
  5
C9
330
1F
100
AcDbEntity
  8
0
  6
Continuous
 62
     7
370
    18
100
AcDbDimension
  2
_D_5
 10
76.3169641933
 20
169.4378673793
 30
0.0
 11
44.570903925
 21
177.9442112706
 31
0.0
 70
   163
  1
<>*8°üÅë
 71
     1
 42
-1.0
  3
SLDDIMSTYLE3
100
AcDbDiametricDimension
 15
75.9305938627
 25
169.5413949974
 35
0.0
 40
0.0
  0
DIMENSION
  5
D8
330
1F
100
AcDbEntity
  8
0
  6
Continuous
 62
     7
370
    18
100
AcDbDimension
  2
_D_6
 10
89.873779028
 20
99.6739325843
 30
0.0
 11
76.0028132884
 21
99.6739325843
 31
0.0
 70
   160
  1
<>
 71
     2
 42
-1.0
  3
SLDDIMSTYLE2
100
AcDbAlignedDimension
 13
62.373779028
 23
145.2239325843
 33
0.0
 14
89.873779028
 24
115.4239325843
 34
0.0
100
AcDbRotatedDimension
  0
DIMENSION
  5
E2
330
1F
100
AcDbEntity
  8
0
  6
Continuous
 62
     7
370
    18
100
AcDbDimension
  2
_D_7
 10
89.873779028
 20
107.9246411871
 30
0.0
 11
85.2252583534
 21
107.9246411871
 31
0.0
 70
   160
  1
<>
 71
     2
 42
-1.0
  3
SLDDIMSTYLE2
100
AcDbAlignedDimension
 13
77.873779028
 23
145.9989325843
 33
0.0
 14
89.873779028
 24
115.4239325843
 34
0.0
100
AcDbRotatedDimension
  0
DIMENSION
  5
EE
330
1F
100
AcDbEntity
  8
0
  6
Continuous
 62
     7
370
    18
100
AcDbDimension
  2
_D_8
 10
89.873779028
 20
187.4142671689
 30
0.0
 11
83.2648822469
 21
187.4142671689
 31
0.0
 70
   160
  1
<>
 71
     2
 42
-1.0
  3
SLDDIMSTYLE2
100
AcDbAlignedDimension
 13
77.873779028
 23
146.9989325843
 33
0.0
 14
89.873779028
 24
175.9239325843
 34
0.0
100
AcDbRotatedDimension
  0
DIMENSION
  5
FA
330
1F
100
AcDbEntity
  8
0
  6
Continuous
 62
     7
370
    18
100
AcDbDimension
  2
_D_9
 10
55.8111210409
 20
138.3989325843
 30
0.0
 11
55.8111210409
 21
143.4420339833
 31
0.0
 70
   160
  1
<>
 71
     2
 42
-1.0
  3
SLDDIMSTYLE2
100
AcDbAlignedDimension
 13
77.373779028
 23
146.4989325843
 33
0.0
 14
77.373779028
 24
138.3989325843
 34
0.0
 50
90.0
100
AcDbRotatedDimension
  0
DIMENSION
  5
106
330
1F
100
AcDbEntity
  8
0
  6
Continuous
 62
     7
370
    18
100
AcDbDimension
  2
_D_10
 10
78.0690556625
 20
146.3428331416
 30
0.0
 11
55.8111310409
 21
164.1353004797
 31
0.0
 70
   163
  1
<>
 71
     1
 42
-1.0
  3
SLDDIMSTYLE4
100
AcDbDiametricDimension
 15
77.6785023935
 25
146.6550320269
 35
0.0
 40
0.0
  0
INSERT
  5
11B
330
1F
100
AcDbEntity
  8
0
  6
Continuous
 62
     7
370
    18
100
AcDbBlockReference
  2
SW_CENTERMARKSYMBOL_0
 10
89.873779028
 20
145.6739325843
 30
0.0
  0
INSERT
  5
127
330
1F
100
AcDbEntity
  8
0
  6
Continuous
 62
     7
370
    18
100
AcDbBlockReference
  2
SW_CENTERMARKSYMBOL_1
 10
117.373779028
 20
145.6739325843
 30
0.0
  0
INSERT
  5
133
330
1F
100
AcDbEntity
  8
0
  6
Continuous
 62
     7
370
    18
100
AcDbBlockReference
  2
SW_CENTERMARKSYMBOL_2
 10
103.623779028
 20
121.8582339802
 30
0.0
  0
INSERT
  5
13F
330
1F
100
AcDbEntity
  8
0
  6
Continuous
 62
     7
370
    18
100
AcDbBlockReference
  2
SW_CENTERMARKSYMBOL_3
 10
76.123779028
 20
121.8582339802
 30
0.0
  0
INSERT
  5
14B
330
1F
100
AcDbEntity
  8
0
  6
Continuous
 62
     7
370
    18
100
AcDbBlockReference
  2
SW_CENTERMARKSYMBOL_4
 10
62.373779028
 20
145.6739325843
 30
0.0
  0
INSERT
  5
157
330
1F
100
AcDbEntity
  8
0
  6
Continuous
 62
     7
370
    18
100
AcDbBlockReference
  2
SW_CENTERMARKSYMBOL_5
 10
76.123779028
 20
169.4896311883
 30
0.0
  0
INSERT
  5
163
330
1F
100
AcDbEntity
  8
0
  6
Continuous
 62
     7
370
    18
100
AcDbBlockReference
  2
SW_CENTERMARKSYMBOL_6
 10
103.623779028
 20
169.4896311883
 30
0.0
  0
INSERT
  5
16F
330
1F
100
AcDbEntity
  8
0
  6
Continuous
 62
     7
370
    18
100
AcDbBlockReference
  2
SW_CENTERMARKSYMBOL_7
 10
101.873779028
 20
138.3989325843
 30
0.0
  0
INSERT
  5
17B
330
1F
100
AcDbEntity
  8
0
  6
Continuous
 62
     7
370
    18
100
AcDbBlockReference
  2
SW_CENTERMARKSYMBOL_8
 10
101.873779028
 20
146.4989325843
 30
0.0
  0
INSERT
  5
187
330
1F
100
AcDbEntity
  8
0
  6
Continuous
 62
     7
370
    18
100
AcDbBlockReference
  2
SW_CENTERMARKSYMBOL_9
 10
77.873779028
 20
138.3989325843
 30
0.0
  0
INSERT
  5
193
330
1F
100
AcDbEntity
  8
0
  6
Continuous
 62
     7
370
    18
100
AcDbBlockReference
  2
SW_CENTERMARKSYMBOL_10
 10
77.873779028
 20
146.4989325843
 30
0.0
  0
LINE
  5
194
330
1F
100
AcDbEntity
  8
0
  6
Continuous
 62
     7
370
    25
100
AcDbLine
 10
234.817752809
 20
149.8835862939
 30
0.0
 11
234.817752809
 21
150.1285485375
 31
0.0
  0
LINE
  5
195
330
1F
100
AcDbEntity
  8
0
  6
Continuous
 62
     7
370
    25
100
AcDbLine
 10
174.817752809
 20
150.1285485375
 30
0.0
 11
174.817752809
 21
149.8835862939
 31
0.0
  0
LINE
  5
196
330
1F
100
AcDbEntity
  8
0
  6
Continuous
 62
     7
370
    25
100
AcDbLine
 10
191.9130540523
 20
163.0890273127
 30
0.0
 11
182.3671125063
 21
157.5782725579
 31
0.0
  0
LINE
  5
197
330
1F
100
AcDbEntity
  8
0
  6
Continuous
 62
     7
370
    25
100
AcDbLine
 10
182.3671125063
 20
157.5782725579
 30
0.0
 11
186.963306584
 21
154.9249461945
 31
0.0
  0
LINE
  5
198
330
1F
100
AcDbEntity
  8
0
  6
Continuous
 62
     7
370
    25
100
AcDbLine
 10
196.50924813
 20
160.4357009493
 30
0.0
 11
186.963306584
 21
154.9249461945
 31
0.0
  0
LINE
  5
199
330
1F
100
AcDbEntity
  8
0
  6
Continuous
 62
     7
370
    25
100
AcDbLine
 10
191.9130540523
 20
163.0890273127
 30
0.0
 11
196.50924813
 21
160.4357009493
 31
0.0
  0
LWPOLYLINE
  5
19A
330
1F
100
AcDbEntity
  8
0
  6
Continuous
 62
     7
370
    25
100
AcDbPolyline
 90
      184
 70
   128
 43
0.0
 10
183.6045493734
 20
137.8824268602
 10
184.3452500822
 20
137.4692643321
 10
185.110082375
 20
137.0710237013
 10
185.8981447199
 20
136.6881743864
 10
186.7085082031
 20
136.321167664
 10
187.5402176234
 20
135.9704361365
 10
188.3922926189
 20
135.6363932221
 10
189.2637288218
 20
135.3194326679
 10
190.1534990429
 20
135.0199280852
 10
191.060554482
 20
134.7382325095
 10
191.9838259642
 20
134.4746779842
 10
192.9222252004
 20
134.2295751694
 10
193.8746460698
 20
134.0032129754
 10
194.8399659239
 20
133.7958582225
 10
195.8170469098
 20
133.6077553264
 10
196.8047373113
 20
133.4391260098
 10
197.8018729067
 20
133.2901690413
 10
198.8072783408
 20
133.1610600014
 10
199.8197685106
 20
133.0519510748
 10
200.8381499619
 20
132.9629708717
 10
201.8612222964
 20
132.8942242758
 10
202.8877795867
 20
132.845792321
 10
203.9166117972
 20
132.8177320956
 10
204.946506211
 20
132.8100766749
 10
205.9762488591
 20
132.8228350827
 10
207.0046259514
 20
132.8559922802
 10
208.0304253075
 20
132.909509184
 10
209.0524377852
 20
132.983322712
 10
210.0694587063
 20
133.077345858
 10
211.0802892762
 20
133.1914677938
 10
212.0837379971
 20
133.3255540004
 10
213.0786220722
 20
133.4794464261
 10
214.0637688005
 20
133.652963673
 10
215.0380169584
 20
133.845901211
 10
216.0002181689
 20
134.0580316184
 10
216.9492382551
 20
134.2891048504
 10
217.8839585772
 20
134.5388485338
 10
218.8032773509
 20
134.8069682879
 10
219.7061109461
 20
135.0931480713
 10
220.5913951644
 20
135.397050555
 10
221.4580864935
 20
135.7183175196
 10
222.305163337
 20
136.0565702775
 10
223.1316272186
 20
136.4114101196
 10
223.9365039594
 20
136.7824187849
 10
224.7188448259
 20
137.1691589539
 10
225.4777276481
 20
137.5711747638
 10
226.212257907
 20
137.9879923458
 10
226.9215697886
 20
138.4191203839
 10
227.6048272047
 20
138.8640506939
 10
228.2612247782
 20
139.3222588225
 10
228.8899887926
 20
139.7932046652
 10
229.490378104
 20
140.2763331034
 10
230.0616850145
 20
140.7710746584
 10
230.6032361067
 20
141.2768461627
 10
231.1143930373
 20
141.7930514475
 10
231.5945532894
 20
142.3190820454
 10
232.0431508832
 20
142.8543179074
 10
232.4596570423
 20
143.3981281344
 10
232.843580818
 20
143.9498717199
 10
233.1944696671
 20
144.5088983065
 10
233.511909986
 20
145.0745489518
 10
233.7955275977
 20
145.6461569058
 10
234.0449881931
 20
146.223048396
 10
234.2599977253
 20
146.8045434222
 10
234.4403027557
 20
147.389956558
 10
234.5856907532
 20
147.9785977585
 10
234.6959903442
 20
148.5697731737
 10
234.7710715151
 20
149.1627859666
 10
234.8108457656
 20
149.7569371342
 10
234.8152662123
 20
150.3515263318
 10
234.7843276448
 20
150.9458526986
 10
234.7180665313
 20
151.5392156831
 10
234.6165609758
 20
152.1309158699
 10
234.4799306263
 20
152.7202558032
 10
234.3083365332
 20
153.3065408094
 10
234.1019809598
 20
153.8890798161
 10
233.8611071439
 20
154.467186166
 10
233.5859990112
 20
155.0401784271
 10
233.2769808402
 20
155.6073811952
 10
232.9344168804
 20
156.1681258907
 10
232.5587109228
 20
156.721751546
 10
232.1503058237
 20
157.2676055852
 10
231.7096829832
 20
157.8050445929
 10
231.2373617772
 20
158.3334350728
 10
230.7338989457
 20
158.8521541945
 10
230.1998879361
 20
159.3605905273
 10
229.6359582042
 20
159.8581447613
 10
229.0427744715
 20
160.3442304136
 10
228.4210359424
 20
160.8182745199
 10
227.7714754799
 20
161.2797183093
 10
227.0948587411
 20
161.7280178635
 10
226.3919832757
 20
162.1626447578
 10
225.663677585
 20
162.5830866836
 10
224.910800146
 20
162.988848053
 10
224.134238399
 20
163.379450582
 10
223.3349077017
 20
163.7544338553
 10
222.5137502506
 20
164.1133558683
 10
221.6717339696
 20
164.4557935482
 10
220.8098513701
 20
164.7813432529
 10
219.92911838
 20
165.0896212468
 10
219.0305731472
 20
165.380264153
 10
218.1152748152
 20
165.6529293813
 10
217.1843022751
 20
165.9072955328
 10
216.2387528935
 20
166.1430627781
 10
215.2797412191
 20
166.3599532108
 10
214.3083976694
 20
166.5577111754
 10
213.3258671976
 20
166.7361035683
 10
212.3333079432
 20
166.8949201128
 10
211.3318898672
 20
167.0339736069
 10
210.3227933726
 20
167.1531001437
 10
209.3072079133
 20
167.2521593052
 10
208.2863305917
 20
167.331034327
 10
207.2613647482
 20
167.3896322369
 10
206.2335185424
 20
167.4278839635
 10
205.2040035288
 20
167.4457444184
 10
204.1740332294
 20
167.4431925488
 10
203.1448217025
 20
167.4202313628
 10
202.1175821122
 20
167.3768879253
 10
201.0935252982
 20
167.3132133268
 10
200.0738583485
 20
167.2292826224
 10
199.0597831767
 20
167.1251947439
 10
198.0524951051
 20
167.001072383
 10
197.0531814559
 20
166.8570618466
 10
196.0630201517
 20
166.6933328844
 10
195.0831783266
 20
166.5100784891
 10
194.1148109513
 20
166.3075146681
 10
193.1590594707
 20
166.0858801901
 10
192.2170504594
 20
165.8454363024
 10
191.2898942929
 20
165.5864664238
 10
190.3786838396
 20
165.3092758104
 10
189.4844931717
 20
165.0141911955
 10
188.6083763002
 20
164.7015604045
 10
187.7513659315
 20
164.3717519452
 10
186.9144722507
 20
164.0251545733
 10
186.0986817309
 20
163.662176834
 10
185.3049559699
 20
163.2832465806
 10
184.5342305574
 20
162.8888104701
 10
183.7874139717
 20
162.4793334368
 10
183.0653865091
 20
162.0552981441
 10
182.3689992459
 20
161.617204416
 10
181.699073036
 20
161.1655686471
 10
181.0563975423
 20
160.7009231949
 10
180.4417303068
 20
160.2238157515
 10
179.8557958571
 20
159.7348086986
 10
179.2992848526
 20
159.2344784441
 10
178.7728532703
 20
158.7234147432
 10
178.2771216317
 20
158.2022200026
 10
177.8126742714
 20
157.6715085711
 10
177.380058648
 20
157.1319060149
 10
176.9797846993
 20
156.5840483806
 10
176.6123242408
 20
156.0285814452
 10
176.2781104096
 20
155.4661599552
 10
175.9775371542
 20
154.8974468543
 10
175.7109587697
 20
154.3231125028
 10
175.4786894804
 20
153.7438338865
 10
175.2810030696
 20
153.1602938195
 10
175.1181325563
 20
152.5731801388
 10
174.9902699213
 20
151.9831848938
 10
174.8975658801
 20
151.3910035305
 10
174.8401297061
 20
150.7973340718
 10
174.8180291009
 20
150.2028762944
 10
174.8312901154
 20
149.6083309046
 10
174.8798971182
 20
149.0143987116
 10
174.9637928149
 20
148.4217798022
 10
175.0828783149
 20
147.8311727149
 10
175.2370132484
 20
147.2432736168
 10
175.4260159316
 20
146.6587754832
 10
175.6496635813
 20
146.0783672805
 10
175.9076925767
 20
145.502733154
 10
176.1997987711
 20
144.9325516218
 10
176.5256378496
 20
144.3684947749
 10
176.8848257355
 20
143.8112274849
 10
177.2769390426
 20
143.2614066203
 10
177.7015155748
 20
142.7196802722
 10
178.1580548701
 20
142.1866869906
 10
178.6460187915
 20
141.6630550315
 10
179.1648321603
 20
141.1494016162
 10
179.7138834351
 20
140.6463322044
 10
180.2925254316
 20
140.1544397798
 10
180.9000760865
 20
139.6743041514
 10
181.5358192605
 20
139.2064912702
 10
182.1990055832
 20
138.7515525621
 10
182.8888533359
 20
138.3100242777
 10
183.6045493734
 20
137.8824268602
  0
LINE
  5
19B
330
1F
100
AcDbEntity
  8
0
  6
Continuous
 62
     7
370
    25
100
AcDbLine
 10
222.6721990339
 20
145.3321508806
 30
0.0
 11
213.1262574879
 21
139.8213961258
 31
0.0
  0
LINE
  5
19C
330
1F
100
AcDbEntity
  8
0
  6
Continuous
 62
     7
370
    25
100
AcDbLine
 10
217.7224515656
 20
137.1680697623
 30
0.0
 11
213.1262574879
 21
139.8213961258
 31
0.0
  0
LINE
  5
19D
330
1F
100
AcDbEntity
  8
0
  6
Continuous
 62
     7
370
    25
100
AcDbLine
 10
227.2683931117
 20
142.6788245171
 30
0.0
 11
217.7224515656
 21
137.1680697623
 31
0.0
  0
LINE
  5
19E
330
1F
100
AcDbEntity
  8
0
  6
Continuous
 62
     7
370
    25
100
AcDbLine
 10
227.2683931117
 20
142.6788245171
 30
0.0
 11
222.6721990339
 21
145.3321508806
 31
0.0
  0
LWPOLYLINE
  5
19F
330
1F
100
AcDbEntity
  8
0
  6
Continuous
 62
     7
370
    25
100
AcDbPolyline
 90
       17
 70
   128
 43
0.0
 10
224.1217679354
 20
138.8212961888
 10
224.1866526051
 20
138.7962681396
 10
224.2631892916
 20
138.7874794575
 10
224.3397259781
 20
138.7962681396
 10
224.4046106479
 20
138.8212961888
 10
224.4479651981
 20
138.8587533113
 10
224.4631892916
 20
138.902937
 10
224.4479651981
 20
138.9471206886
 10
224.4046106479
 20
138.9845778111
 10
224.3397259781
 20
139.0096058603
 10
224.2631892916
 20
139.0183945424
 10
224.1866526051
 20
139.0096058603
 10
224.1217679354
 20
138.9845778111
 10
224.0784133851
 20
138.9471206886
 10
224.0631892916
 20
138.902937
 10
224.0784133851
 20
138.8587533113
 10
224.1217679354
 20
138.8212961888
  0
LWPOLYLINE
  5
1A0
330
1F
100
AcDbEntity
  8
0
  6
Continuous
 62
     7
370
    25
100
AcDbPolyline
 90
       17
 70
   128
 43
0.0
 10
197.5588077124
 20
134.712437193
 10
197.6236923822
 20
134.6874091439
 10
197.7002290687
 20
134.6786204618
 10
197.7767657551
 20
134.6874091439
 10
197.8416504249
 20
134.712437193
 10
197.8850049752
 20
134.7498943156
 10
197.9002290687
 20
134.7940780042
 10
197.8850049752
 20
134.8382616928
 10
197.8416504249
 20
134.8757188154
 10
197.7767657551
 20
134.9007468645
 10
197.7002290687
 20
134.9095355466
 10
197.6236923822
 20
134.9007468645
 10
197.5588077124
 20
134.8757188154
 10
197.5154531622
 20
134.8382616928
 10
197.5002290687
 20
134.7940780042
 10
197.5154531622
 20
134.7498943156
 10
197.5588077124
 20
134.712437193
  0
LWPOLYLINE
  5
1A1
330
1F
100
AcDbEntity
  8
0
  6
Continuous
 62
     7
370
    25
100
AcDbPolyline
 90
       17
 70
   128
 43
0.0
 10
178.1133712298
 20
145.9380487306
 10
178.1782558996
 20
145.9130206814
 10
178.254792586
 20
145.9042319993
 10
178.3313292725
 20
145.9130206814
 10
178.3962139423
 20
145.9380487306
 10
178.4395684925
 20
145.9755058531
 10
178.454792586
 20
146.0196895417
 10
178.4395684925
 20
146.0638732304
 10
178.3962139423
 20
146.1013303529
 10
178.3313292725
 20
146.1263584021
 10
178.254792586
 20
146.1351470842
 10
178.1782558996
 20
146.1263584021
 10
178.1133712298
 20
146.1013303529
 10
178.0700166795
 20
146.0638732304
 10
178.054792586
 20
146.0196895417
 10
178.0700166795
 20
145.9755058531
 10
178.1133712298
 20
145.9380487306
  0
LWPOLYLINE
  5
1A2
330
1F
100
AcDbEntity
  8
0
  6
Continuous
 62
     7
370
    25
100
AcDbPolyline
 90
       17
 70
   128
 43
0.0
 10
185.2308949701
 20
161.2725192639
 10
185.2957796399
 20
161.2474912148
 10
185.3723163264
 20
161.2387025327
 10
185.4488530128
 20
161.2474912148
 10
185.5137376826
 20
161.2725192639
 10
185.5570922329
 20
161.3099763865
 10
185.5723163264
 20
161.3541600751
 10
185.5570922329
 20
161.3983437637
 10
185.5137376826
 20
161.4358008863
 10
185.4488530128
 20
161.4608289354
 10
185.3723163264
 20
161.4696176175
 10
185.2957796399
 20
161.4608289354
 10
185.2308949701
 20
161.4358008863
 10
185.1875404199
 20
161.3983437637
 10
185.1723163264
 20
161.3541600751
 10
185.1875404199
 20
161.3099763865
 10
185.2308949701
 20
161.2725192639
  0
LWPOLYLINE
  5
1A3
330
1F
100
AcDbEntity
  8
0
  6
Continuous
 62
     7
370
    25
100
AcDbPolyline
 90
       17
 70
   128
 43
0.0
 10
211.7938551931
 20
165.3813782597
 10
211.8587398628
 20
165.3563502105
 10
211.9352765493
 20
165.3475615284
 10
212.0118132358
 20
165.3563502105
 10
212.0766979055
 20
165.3813782597
 10
212.1200524558
 20
165.4188353822
 10
212.1352765493
 20
165.4630190708
 10
212.1200524558
 20
165.5072027595
 10
212.0766979055
 20
165.544659882
 10
212.0118132358
 20
165.5696879312
 10
211.9352765493
 20
165.5784766133
 10
211.8587398628
 20
165.5696879312
 10
211.7938551931
 20
165.544659882
 10
211.7505006428
 20
165.5072027595
 10
211.7352765493
 20
165.4630190708
 10
211.7505006428
 20
165.4188353822
 10
211.7938551931
 20
165.3813782597
  0
LWPOLYLINE
  5
1A4
330
1F
100
AcDbEntity
  8
0
  6
Continuous
 62
     7
370
    25
100
AcDbPolyline
 90
       17
 70
   128
 43
0.0
 10
231.2392916757
 20
154.1557667221
 10
231.3041763455
 20
154.130738673
 10
231.3807130319
 20
154.1219499909
 10
231.4572497184
 20
154.130738673
 10
231.5221343882
 20
154.1557667221
 10
231.5654889384
 20
154.1932238447
 10
231.5807130319
 20
154.2374075333
 10
231.5654889384
 20
154.2815912219
 10
231.5221343882
 20
154.3190483445
 10
231.4572497184
 20
154.3440763936
 10
231.3807130319
 20
154.3528650757
 10
231.3041763455
 20
154.3440763936
 10
231.2392916757
 20
154.3190483445
 10
231.1959371254
 20
154.2815912219
 10
231.1807130319
 20
154.2374075333
 10
231.1959371254
 20
154.1932238447
 10
231.2392916757
 20
154.1557667221
  0
LWPOLYLINE
  5
1A5
330
1F
100
AcDbEntity
  8
0
  6
Continuous
 62
     7
370
    25
100
AcDbPolyline
 90
       17
 70
   128
 43
0.0
 10
207.9820556548
 20
142.1583643458
 10
208.063161492
 20
142.1270792844
 10
208.1588323501
 20
142.1160934318
 10
208.2545032082
 20
142.1270792844
 10
208.3356090454
 20
142.1583643458
 10
208.3898022332
 20
142.205185749
 10
208.4088323501
 20
142.2604153598
 10
208.3898022332
 20
142.3156449706
 10
208.3356090454
 20
142.3624663738
 10
208.2545032082
 20
142.3937514352
 10
208.1588323501
 20
142.4047372878
 10
208.063161492
 20
142.3937514352
 10
207.9820556548
 20
142.3624663738
 10
207.927862467
 20
142.3156449706
 10
207.9088323501
 20
142.2604153598
 10
207.927862467
 20
142.205185749
 10
207.9820556548
 20
142.1583643458
  0
LWPOLYLINE
  5
1A6
330
1F
100
AcDbEntity
  8
0
  6
Continuous
 62
     7
370
    25
100
AcDbPolyline
 90
       17
 70
   128
 43
0.0
 10
213.7096205824
 20
145.4648171987
 10
213.7907264196
 20
145.4335321373
 10
213.8863972777
 20
145.4225462847
 10
213.9820681358
 20
145.4335321373
 10
214.063173973
 20
145.4648171987
 10
214.1173671608
 20
145.5116386019
 10
214.1363972777
 20
145.5668682127
 10
214.1173671608
 20
145.6220978235
 10
214.063173973
 20
145.6689192267
 10
213.9820681358
 20
145.7002042881
 10
213.8863972777
 20
145.7111901407
 10
213.7907264196
 20
145.7002042881
 10
213.7096205824
 20
145.6689192267
 10
213.6554273946
 20
145.6220978235
 10
213.6363972777
 20
145.5668682127
 10
213.6554273946
 20
145.5116386019
 10
213.7096205824
 20
145.4648171987
  0
LWPOLYLINE
  5
1A7
330
1F
100
AcDbEntity
  8
0
  6
Continuous
 62
     7
370
    25
100
AcDbPolyline
 90
       17
 70
   128
 43
0.0
 10
191.0114929063
 20
151.9552616877
 10
190.9572997185
 20
152.0020830909
 10
190.9382696016
 20
152.0573127017
 10
190.9572997185
 20
152.1125423125
 10
191.0114929063
 20
152.1593637157
 10
191.0925987435
 20
152.1906487771
 10
191.1882696016
 20
152.2016346297
 10
191.2839404597
 20
152.1906487771
 10
191.3650462969
 20
152.1593637157
 10
191.4192394847
 20
152.1125423125
 10
191.4382696016
 20
152.0573127017
 10
191.4192394847
 20
152.0020830909
 10
191.3650462969
 20
151.9552616877
 10
191.2839404597
 20
151.9239766263
 10
191.1882696016
 20
151.9129907737
 10
191.0925987435
 20
151.9239766263
 10
191.0114929063
 20
151.9552616877
  0
LWPOLYLINE
  5
1A8
330
1F
100
AcDbEntity
  8
0
  6
Continuous
 62
     7
370
    25
100
AcDbPolyline
 90
       17
 70
   128
 43
0.0
 10
196.7390578339
 20
155.2617145406
 10
196.6848646461
 20
155.3085359438
 10
196.6658345292
 20
155.3637655546
 10
196.6848646461
 20
155.4189951654
 10
196.7390578339
 20
155.4658165686
 10
196.8201636711
 20
155.49710163
 10
196.9158345292
 20
155.5080874826
 10
197.0115053873
 20
155.49710163
 10
197.0926112245
 20
155.4658165686
 10
197.1468044124
 20
155.4189951654
 10
197.1658345292
 20
155.3637655546
 10
197.1468044124
 20
155.3085359438
 10
197.0926112245
 20
155.2617145406
 10
197.0115053873
 20
155.2304294792
 10
196.9158345292
 20
155.2194436266
 10
196.8201636711
 20
155.2304294792
 10
196.7390578339
 20
155.2617145406
  0
LWPOLYLINE
  5
1A9
330
1F
100
AcDbEntity
  8
0
  6
Continuous
 62
     7
370
    25
100
AcDbPolyline
 90
       70
 70
   128
 43
0.0
 10
183.6045493734
 20
137.6374646166
 10
184.3452500822
 20
137.2243020886
 10
185.110082375
 20
136.8260614577
 10
185.8981447199
 20
136.4432121428
 10
186.7085082031
 20
136.0762054204
 10
187.5402176234
 20
135.7254738929
 10
188.3922926189
 20
135.3914309786
 10
189.2637288218
 20
135.0744704244
 10
190.1534990429
 20
134.7749658417
 10
191.060554482
 20
134.4932702659
 10
191.9838259642
 20
134.2297157406
 10
192.9222252004
 20
133.9846129258
 10
193.8746460698
 20
133.7582507318
 10
194.8399659239
 20
133.550895979
 10
195.8170469098
 20
133.3627930828
 10
196.8047373113
 20
133.1941637662
 10
197.8018729067
 20
133.0452067978
 10
198.8072783408
 20
132.9160977578
 10
199.8197685106
 20
132.8069888312
 10
200.8381499619
 20
132.7180086281
 10
201.8612222964
 20
132.6492620323
 10
202.8877795867
 20
132.6008300775
 10
203.9166117972
 20
132.572769852
 10
204.946506211
 20
132.5651144313
 10
205.9762488591
 20
132.5778728391
 10
207.0046259514
 20
132.6110300366
 10
208.0304253075
 20
132.6645469404
 10
209.0524377852
 20
132.7383604685
 10
210.0694587063
 20
132.8323836144
 10
211.0802892762
 20
132.9465055503
 10
212.0837379971
 20
133.0805917569
 10
213.0786220722
 20
133.2344841825
 10
214.0637688005
 20
133.4080014295
 10
215.0380169584
 20
133.6009389674
 10
216.0002181689
 20
133.8130693748
 10
216.9492382551
 20
134.0441426069
 10
217.8839585772
 20
134.2938862903
 10
218.8032773509
 20
134.5620060443
 10
219.7061109461
 20
134.8481858277
 10
220.5913951644
 20
135.1520883115
 10
221.4580864935
 20
135.473355276
 10
222.305163337
 20
135.8116080339
 10
223.1316272186
 20
136.166447876
 10
223.9365039594
 20
136.5374565414
 10
224.7188448259
 20
136.9241967104
 10
225.4777276481
 20
137.3262125202
 10
226.212257907
 20
137.7430301022
 10
226.9215697886
 20
138.1741581403
 10
227.6048272047
 20
138.6190884503
 10
228.2612247782
 20
139.0772965789
 10
228.8899887926
 20
139.5482424216
 10
229.490378104
 20
140.0313708599
 10
230.0616850145
 20
140.5261124149
 10
230.6032361067
 20
141.0318839191
 10
231.1143930373
 20
141.5480892039
 10
231.5945532894
 20
142.0741198018
 10
232.0431508832
 20
142.6093556639
 10
232.4596570423
 20
143.1531658908
 10
232.843580818
 20
143.7049094763
 10
233.1944696671
 20
144.2639360629
 10
233.511909986
 20
144.8295867083
 10
233.7955275977
 20
145.4011946622
 10
234.0449881931
 20
145.9780861524
 10
234.2599977253
 20
146.5595811786
 10
234.4403027557
 20
147.1449943145
 10
234.5856907532
 20
147.7336355149
 10
234.6959903442
 20
148.3248109301
 10
234.7710715151
 20
148.917823723
 10
234.8108457656
 20
149.5119748906
 10
234.817752809
 20
149.8835862939
  0
LWPOLYLINE
  5
1AA
330
1F
100
AcDbEntity
  8
0
  6
Continuous
 62
     7
370
    25
100
AcDbPolyline
 90
       24
 70
   128
 43
0.0
 10
174.817752809
 20
149.8835862939
 10
174.8312901154
 20
149.363368661
 10
174.8798971182
 20
148.7694364681
 10
174.9637928149
 20
148.1768175587
 10
175.0828783149
 20
147.5862104713
 10
175.2370132484
 20
146.9983113733
 10
175.4260159316
 20
146.4138132397
 10
175.6496635813
 20
145.8334050369
 10
175.9076925767
 20
145.2577709104
 10
176.1997987711
 20
144.6875893782
 10
176.5256378496
 20
144.1235325314
 10
176.8848257355
 20
143.5662652414
 10
177.2769390426
 20
143.0164443767
 10
177.7015155748
 20
142.4747180287
 10
178.1580548701
 20
141.9417247471
 10
178.6460187915
 20
141.4180927879
 10
179.1648321603
 20
140.9044393727
 10
179.7138834351
 20
140.4013699608
 10
180.2925254316
 20
139.9094775362
 10
180.9000760865
 20
139.4293419078
 10
181.5358192605
 20
138.9615290267
 10
182.1990055832
 20
138.5065903186
 10
182.8888533359
 20
138.0650620341
 10
183.6045493734
 20
137.6374646166
  0
LINE
  5
1AB
330
1F
100
AcDbEntity
  8
0
  6
Continuous
 62
     7
370
    25
100
AcDbLine
 10
222.6721990339
 20
145.087188637
 30
0.0
 11
222.6721990339
 21
145.3321508806
 31
0.0
  0
LINE
  5
1AC
330
1F
100
AcDbEntity
  8
0
  6
Continuous
 62
     7
370
    25
100
AcDbLine
 10
222.6721990339
 20
145.087188637
 30
0.0
 11
213.3384240025
 21
139.698915004
 31
0.0
  0
ARC
  5
1AD
330
1F
100
AcDbEntity
  8
0
  6
Continuous
 62
     7
370
    25
100
AcDbCircle
 10
208.1588323501
 20
141.7558896092
 30
0.0
 40
0.4042814224445888
100
AcDbArc
 50
70.9083775434
 51
109.0916224566
  0
LINE
  5
1AE
330
1F
100
AcDbEntity
  8
0
  6
Continuous
 62
     7
370
    25
100
AcDbLine
 10
227.0562265971
 20
142.5563433953
 30
0.0
 11
222.6721990339
 21
145.087188637
 31
0.0
  0
ARC
  5
1AF
330
1F
100
AcDbEntity
  8
0
  6
Continuous
 62
     7
370
    25
100
AcDbCircle
 10
213.8863972777
 20
145.0623424621
 30
0.0
 40
0.4042814224444442
100
AcDbArc
 50
70.9083775434
 51
109.0916224566
  0
ARC
  5
1B0
330
1F
100
AcDbEntity
  8
0
  6
Continuous
 62
     7
370
    25
100
AcDbCircle
 10
191.1882696016
 20
151.552786951
 30
0.0
 40
0.4042814224448905
100
AcDbArc
 50
70.9083775434
 51
109.0916224566
  0
ARC
  5
1B1
330
1F
100
AcDbEntity
  8
0
  6
Continuous
 62
     7
370
    25
100
AcDbCircle
 10
196.9158345292
 20
154.8592398039
 30
0.0
 40
0.4042814224438368
100
AcDbArc
 50
70.9083775433
 51
109.0916224567
  0
LINE
  5
1B2
330
1F
100
AcDbEntity
  8
0
  6
Continuous
 62
     7
370
    25
100
AcDbLine
 10
191.9130540523
 20
162.8440650691
 30
0.0
 11
191.9130540523
 21
163.0890273127
 31
0.0
  0
LINE
  5
1B3
330
1F
100
AcDbEntity
  8
0
  6
Continuous
 62
     7
370
    25
100
AcDbLine
 10
191.9130540523
 20
162.8440650691
 30
0.0
 11
182.5792790209
 21
157.4557914361
 31
0.0
  0
LINE
  5
1B4
330
1F
100
AcDbEntity
  8
0
  6
Continuous
 62
     7
370
    25
100
AcDbLine
 10
191.9130540523
 20
162.8440650691
 30
0.0
 11
196.2970816155
 21
160.3132198275
 31
0.0
  0
ENDSEC
  0
SECTION
  2
OBJECTS
  0
DICTIONARY
  5
C
330
0
100
AcDbDictionary
281
     1
  3
ACAD_GROUP
350
D
  3
ACAD_LAYOUT
350
1A
  3
ACAD_MLINESTYLE
350
17
  3
ACAD_PLOTSETTINGS
350
19
  3
ACAD_PLOTSTYLENAME
350
E
  3
ACAD_SCALELIST
350
47
  3
DWGPROPS
350
1B5
  0
DICTIONARY
  5
D
102
{ACAD_REACTORS
330
C
102
}
330
C
100
AcDbDictionary
281
     1
  0
DICTIONARY
  5
1A
102
{ACAD_REACTORS
330
C
102
}
330
C
100
AcDbDictionary
281
     1
  3
Layout1
350
1E
  3
Layout2
350
26
  3
Model
350
22
  0
DICTIONARY
  5
17
102
{ACAD_REACTORS
330
C
102
}
330
C
100
AcDbDictionary
281
     1
  3
Standard
350
18
  0
DICTIONARY
  5
19
102
{ACAD_REACTORS
330
C
102
}
330
C
100
AcDbDictionary
281
     1
  0
ACDBDICTIONARYWDFLT
  5
E
102
{ACAD_REACTORS
330
C
102
}
330
C
100
AcDbDictionary
281
     1
  3
Normal
350
F
100
AcDbDictionaryWithDefault
340
F
  0
DICTIONARY
  5
47
102
{ACAD_REACTORS
330
C
102
}
330
C
100
AcDbDictionary
281
     1
  3
A0
350
48
  3
A1
350
49
  3
A2
350
4A
  3
A3
350
4B
  3
A4
350
4C
  3
A5
350
4D
  3
A6
350
4E
  3
A7
350
4F
  3
A8
350
50
  3
A9
350
51
  3
B0
350
52
  3
B1
350
53
  3
B2
350
54
  3
B3
350
55
  3
B4
350
56
  3
B5
350
57
  3
B6
350
58
  3
B7
350
59
  3
B8
350
5A
  3
B9
350
5B
  3
C0
350
5C
  3
C1
350
5D
  3
C2
350
5E
  3
C3
350
5F
  3
C4
350
60
  3
C5
350
61
  3
C6
350
62
  3
C7
350
63
  3
C8
350
64
  3
C9
350
65
  3
D0
350
66
  3
D1
350
67
  3
D2
350
68
  0
XRECORD
  5
1B5
102
{ACAD_REACTORS
330
C
102
}
330
C
100
AcDbXrecord
280
     1
  1
DWGPROPS COOKIE
  2

  3

  4

  6

  7

  8
user
  9

300
=
301
=
302
=
303
=
304
=
305
=
306
=
307
=
308
=
309
=
 40
0.0
 41
2459389.239145139
 42
2459389.239146898
  1

 90
        0
  0
LAYOUT
  5
1E
102
{ACAD_REACTORS
330
1A
102
}
330
1A
100
AcDbPlotSettings
  1

  2
none_device
  4

  6

 40
0.0
 41
0.0
 42
0.0
 43
0.0
 44
0.0
 45
0.0
 46
0.0
 47
0.0
 48
0.0
 49
0.0
140
0.0
141
0.0
142
1.0
143
1.0
 70
   688
 72
     1
 73
     0
 74
     5
  7

 75
    16
147
1.0
148
0.0
149
0.0
100
AcDbLayout
  1
Layout1
 70
     1
 71
     1
 10
0.0
 20
0.0
 11
420.0
 21
297.0
 12
0.0
 22
0.0
 32
0.0
 14
1.0000000000E+20
 24
1.0000000000E+20
 34
1.0000000000E+20
 15
-1.0000000000E+20
 25
-1.0000000000E+20
 35
-1.0000000000E+20
146
0.0
 13
0.0
 23
0.0
 33
0.0
 16
1.0
 26
0.0
 36
0.0
 17
0.0
 27
1.0
 37
0.0
 76
     0
330
1B
  0
LAYOUT
  5
26
102
{ACAD_REACTORS
330
1A
102
}
330
1A
100
AcDbPlotSettings
  1

  2
none_device
  4

  6

 40
0.0
 41
0.0
 42
0.0
 43
0.0
 44
0.0
 45
0.0
 46
0.0
 47
0.0
 48
0.0
 49
0.0
140
0.0
141
0.0
142
1.0
143
1.0
 70
   688
 72
     1
 73
     0
 74
     5
  7

 75
    16
147
1.0
148
0.0
149
0.0
100
AcDbLayout
  1
Layout2
 70
     1
 71
     2
 10
0.0
 20
0.0
 11
0.0
 21
0.0
 12
0.0
 22
0.0
 32
0.0
 14
0.0
 24
0.0
 34
0.0
 15
0.0
 25
0.0
 35
0.0
146
0.0
 13
0.0
 23
0.0
 33
0.0
 16
1.0
 26
0.0
 36
0.0
 17
0.0
 27
1.0
 37
0.0
 76
     0
330
23
  0
LAYOUT
  5
22
102
{ACAD_REACTORS
330
1A
102
}
330
1A
100
AcDbPlotSettings
  1

  2
none_device
  4
Letter_(8.50_x_11.00_Inches)
  6

 40
6.35
 41
6.35
 42
6.35000508
 43
6.35000508
 44
215.9
 45
279.4
 46
0.0
 47
0.0
 48
0.0
 49
0.0
140
0.0
141
0.0
142
1.0
143
1.0
 70
  1712
 72
     1
 73
     0
 74
     0
  7

 75
     0
147
1.0
148
0.0
149
0.0
100
AcDbLayout
  1
Model
 70
     1
 71
     0
 10
0.0
 20
0.0
 11
297.0
 21
210.0
 12
0.0
 22
0.0
 32
0.0
 14
0.0
 24
0.0
 34
0.0
 15
297.0
 25
210.0
 35
0.0
146
0.0
 13
0.0
 23
0.0
 33
0.0
 16
1.0
 26
0.0
 36
0.0
 17
0.0
 27
1.0
 37
0.0
 76
     0
330
1F
331
29
  0
MLINESTYLE
  5
18
102
{ACAD_REACTORS
330
17
102
}
330
17
100
AcDbMlineStyle
  2
Standard
 70
     0
  3

 62
   256
 51
90.0
 52
90.0
 71
     2
 49
0.5
 62
   256
  6
BYLAYER
 49
-0.5
 62
   256
  6
BYLAYER
  0
ACDBPLACEHOLDER
  5
F
102
{ACAD_REACTORS
330
E
102
}
330
E
  0
SCALE
  5
48
102
{ACAD_REACTORS
330
47
102
}
330
47
100
AcDbScale
 70
     0
300
1:1
140
1.0
141
1.0
290
     1
  0
SCALE
  5
49
102
{ACAD_REACTORS
330
47
102
}
330
47
100
AcDbScale
 70
     0
300
1:2
140
1.0
141
2.0
290
     0
  0
SCALE
  5
4A
102
{ACAD_REACTORS
330
47
102
}
330
47
100
AcDbScale
 70
     0
300
1:4
140
1.0
141
4.0
290
     0
  0
SCALE
  5
4B
102
{ACAD_REACTORS
330
47
102
}
330
47
100
AcDbScale
 70
     0
300
1:5
140
1.0
141
5.0
290
     0
  0
SCALE
  5
4C
102
{ACAD_REACTORS
330
47
102
}
330
47
100
AcDbScale
 70
     0
300
1:8
140
1.0
141
8.0
290
     0
  0
SCALE
  5
4D
102
{ACAD_REACTORS
330
47
102
}
330
47
100
AcDbScale
 70
     0
300
1:10
140
1.0
141
10.0
290
     0
  0
SCALE
  5
4E
102
{ACAD_REACTORS
330
47
102
}
330
47
100
AcDbScale
 70
     0
300
1:16
140
1.0
141
16.0
290
     0
  0
SCALE
  5
4F
102
{ACAD_REACTORS
330
47
102
}
330
47
100
AcDbScale
 70
     0
300
1:20
140
1.0
141
20.0
290
     0
  0
SCALE
  5
50
102
{ACAD_REACTORS
330
47
102
}
330
47
100
AcDbScale
 70
     0
300
1:30
140
1.0
141
30.0
290
     0
  0
SCALE
  5
51
102
{ACAD_REACTORS
330
47
102
}
330
47
100
AcDbScale
 70
     0
300
1:40
140
1.0
141
40.0
290
     0
  0
SCALE
  5
52
102
{ACAD_REACTORS
330
47
102
}
330
47
100
AcDbScale
 70
     0
300
1:50
140
1.0
141
50.0
290
     0
  0
SCALE
  5
53
102
{ACAD_REACTORS
330
47
102
}
330
47
100
AcDbScale
 70
     0
300
1:100
140
1.0
141
100.0
290
     0
  0
SCALE
  5
54
102
{ACAD_REACTORS
330
47
102
}
330
47
100
AcDbScale
 70
     0
300
2:1
140
2.0
141
1.0
290
     0
  0
SCALE
  5
55
102
{ACAD_REACTORS
330
47
102
}
330
47
100
AcDbScale
 70
     0
300
4:1
140
4.0
141
1.0
290
     0
  0
SCALE
  5
56
102
{ACAD_REACTORS
330
47
102
}
330
47
100
AcDbScale
 70
     0
300
8:1
140
8.0
141
1.0
290
     0
  0
SCALE
  5
57
102
{ACAD_REACTORS
330
47
102
}
330
47
100
AcDbScale
 70
     0
300
10:1
140
10.0
141
1.0
290
     0
  0
SCALE
  5
58
102
{ACAD_REACTORS
330
47
102
}
330
47
100
AcDbScale
 70
     0
300
100:1
140
100.0
141
1.0
290
     0
  0
SCALE
  5
59
102
{ACAD_REACTORS
330
47
102
}
330
47
100
AcDbScale
 70
     0
300
1/128" = 1'-0"
140
0.0078125
141
12.0
290
     0
  0
SCALE
  5
5A
102
{ACAD_REACTORS
330
47
102
}
330
47
100
AcDbScale
 70
     0
300
1/64" = 1'-0"
140
0.015625
141
12.0
290
     0
  0
SCALE
  5
5B
102
{ACAD_REACTORS
330
47
102
}
330
47
100
AcDbScale
 70
     0
300
1/32" = 1'-0"
140
0.03125
141
12.0
290
     0
  0
SCALE
  5
5C
102
{ACAD_REACTORS
330
47
102
}
330
47
100
AcDbScale
 70
     0
300
1/16" = 1'-0"
140
0.0625
141
12.0
290
     0
  0
SCALE
  5
5D
102
{ACAD_REACTORS
330
47
102
}
330
47
100
AcDbScale
 70
     0
300
3/32" = 1'-0"
140
0.09375
141
12.0
290
     0
  0
SCALE
  5
5E
102
{ACAD_REACTORS
330
47
102
}
330
47
100
AcDbScale
 70
     0
300
1/8" = 1'-0"
140
0.125
141
12.0
290
     0
  0
SCALE
  5
5F
102
{ACAD_REACTORS
330
47
102
}
330
47
100
AcDbScale
 70
     0
300
3/16" = 1'-0"
140
0.1875
141
12.0
290
     0
  0
SCALE
  5
60
102
{ACAD_REACTORS
330
47
102
}
330
47
100
AcDbScale
 70
     0
300
1/4" = 1'-0"
140
0.25
141
12.0
290
     0
  0
SCALE
  5
61
102
{ACAD_REACTORS
330
47
102
}
330
47
100
AcDbScale
 70
     0
300
3/8" = 1'-0"
140
0.375
141
12.0
290
     0
  0
SCALE
  5
62
102
{ACAD_REACTORS
330
47
102
}
330
47
100
AcDbScale
 70
     0
300
1/2" = 1'-0"
140
0.5
141
12.0
290
     0
  0
SCALE
  5
63
102
{ACAD_REACTORS
330
47
102
}
330
47
100
AcDbScale
 70
     0
300
3/4" = 1'-0"
140
0.75
141
12.0
290
     0
  0
SCALE
  5
64
102
{ACAD_REACTORS
330
47
102
}
330
47
100
AcDbScale
 70
     0
300
1" = 1'-0"
140
1.0
141
12.0
290
     0
  0
SCALE
  5
65
102
{ACAD_REACTORS
330
47
102
}
330
47
100
AcDbScale
 70
     0
300
1-1/2" = 1'-0"
140
1.5
141
12.0
290
     0
  0
SCALE
  5
66
102
{ACAD_REACTORS
330
47
102
}
330
47
100
AcDbScale
 70
     0
300
3" = 1'-0"
140
3.0
141
12.0
290
     0
  0
SCALE
  5
67
102
{ACAD_REACTORS
330
47
102
}
330
47
100
AcDbScale
 70
     0
300
6" = 1'-0"
140
6.0
141
12.0
290
     0
  0
SCALE
  5
68
102
{ACAD_REACTORS
330
47
102
}
330
47
100
AcDbScale
 70
     0
300
1'-0" = 1'-0"
140
12.0
141
12.0
290
     0
  0
ENDSEC
  0
EOF
