  0
SECTION
  2
HEADER
  9
$ACADVER
  1
AC1015
  9
$ACADMAINTVER
 70
     6
  9
$DWGCODEPAGE
  3
ANSI_949
  9
$INSBASE
 10
0.0
 20
0.0
 30
0.0
  9
$EXTMIN
 10
0.0
 20
0.0
 30
0.0
  9
$EXTMAX
 10
297.0
 20
210.0
 30
0.0
  9
$LIMMIN
 10
0.0
 20
0.0
  9
$LIMMAX
 10
297.0
 20
210.0
  9
$ORTHOMODE
 70
     0
  9
$REGENMODE
 70
     1
  9
$FILLMODE
 70
     1
  9
$QTEXTMODE
 70
     0
  9
$MIRRTEXT
 70
     1
  9
$LTSCALE
 40
1.0
  9
$ATTMODE
 70
     1
  9
$TEXTSIZE
 40
3.5
  9
$TRACEWID
 40
1.0
  9
$TEXTSTYLE
  7
Standard
  9
$CLAYER
  8
0
  9
$CELTYPE
  6
ByLayer
  9
$CECOLOR
 62
   256
  9
$CELTSCALE
 40
1.0
  9
$DISPSILH
 70
     0
  9
$DIMSCALE
 40
1.0
  9
$DIMASZ
 40
3.302
  9
$DIMEXO
 40
1.0
  9
$DIMDLI
 40
3.75
  9
$DIMRND
 40
0.0
  9
$DIMDLE
 40
0.0
  9
$DIMEXE
 40
1.0
  9
$DIMTP
 40
0.0
  9
$DIMTM
 40
0.0
  9
$DIMTXT
 40
3.5
  9
$DIMCEN
 40
2.5
  9
$DIMTSZ
 40
0.0
  9
$DIMTOL
 70
     0
  9
$DIMLIM
 70
     0
  9
$DIMTIH
 70
     1
  9
$DIMTOH
 70
     1
  9
$DIMSE1
 70
     0
  9
$DIMSE2
 70
     0
  9
$DIMTAD
 70
     1
  9
$DIMZIN
 70
     1
  9
$DIMBLK
  1

  9
$DIMASO
 70
     1
  9
$DIMSHO
 70
     1
  9
$DIMPOST
  1

  9
$DIMAPOST
  1

  9
$DIMALT
 70
     0
  9
$DIMALTD
 70
     3
  9
$DIMALTF
 40
0.0393700787
  9
$DIMLFAC
 40
10.0
  9
$DIMTOFL
 70
     1
  9
$DIMTVP
 40
0.0
  9
$DIMTIX
 70
     0
  9
$DIMSOXD
 70
     0
  9
$DIMSAH
 70
     0
  9
$DIMBLK1
  1

  9
$DIMBLK2
  1

  9
$DIMSTYLE
  2
ISO-25
  9
$DIMCLRD
 70
     0
  9
$DIMCLRE
 70
     0
  9
$DIMCLRT
 70
     0
  9
$DIMTFAC
 40
1.0
  9
$DIMGAP
 40
1.524
  9
$DIMJUST
 70
     0
  9
$DIMSD1
 70
     0
  9
$DIMSD2
 70
     0
  9
$DIMTOLJ
 70
     0
  9
$DIMTZIN
 70
     1
  9
$DIMALTZ
 70
     0
  9
$DIMALTTZ
 70
     0
  9
$DIMUPT
 70
     0
  9
$DIMDEC
 70
     2
  9
$DIMTDEC
 70
     2
  9
$DIMALTU
 70
     2
  9
$DIMALTTD
 70
     3
  9
$DIMTXSTY
  7
Standard
  9
$DIMAUNIT
 70
     0
  9
$DIMADEC
 70
     2
  9
$DIMALTRND
 40
0.0
  9
$DIMAZIN
 70
     0
  9
$DIMDSEP
 70
    44
  9
$DIMATFIT
 70
     3
  9
$DIMFRAC
 70
     0
  9
$DIMLDRBLK
  1

  9
$DIMLUNIT
 70
     2
  9
$DIMLWD
 70
    -2
  9
$DIMLWE
 70
    -2
  9
$DIMTMOVE
 70
     0
  9
$LUNITS
 70
     2
  9
$LUPREC
 70
     2
  9
$SKETCHINC
 40
1.0
  9
$FILLETRAD
 40
10.0
  9
$AUNITS
 70
     0
  9
$AUPREC
 70
     2
  9
$MENU
  1
.
  9
$ELEVATION
 40
0.0
  9
$PELEVATION
 40
0.0
  9
$THICKNESS
 40
0.0
  9
$LIMCHECK
 70
     0
  9
$CHAMFERA
 40
0.0
  9
$CHAMFERB
 40
0.0
  9
$CHAMFERC
 40
0.0
  9
$CHAMFERD
 40
0.0
  9
$SKPOLY
 70
     0
  9
$TDCREATE
 40
2459389.614562292
  9
$TDUCREATE
 40
2459389.239562292
  9
$TDUPDATE
 40
2459389.614562847
  9
$TDUUPDATE
 40
2459389.239562847
  9
$TDINDWG
 40
0.0000000116
  9
$TDUSRTIMER
 40
0.0000000116
  9
$USRTIMER
 70
     1
  9
$ANGBASE
 50
0.0
  9
$ANGDIR
 70
     0
  9
$PDMODE
 70
     0
  9
$PDSIZE
 40
-1.0
  9
$PLINEWID
 40
0.0
  9
$SPLFRAME
 70
     0
  9
$SPLINETYPE
 70
     6
  9
$SPLINESEGS
 70
     8
  9
$HANDSEED
  5
110
  9
$SURFTAB1
 70
     6
  9
$SURFTAB2
 70
     6
  9
$SURFTYPE
 70
     6
  9
$SURFU
 70
     6
  9
$SURFV
 70
     6
  9
$UCSBASE
  2

  9
$UCSNAME
  2

  9
$UCSORG
 10
0.0
 20
0.0
 30
0.0
  9
$UCSXDIR
 10
1.0
 20
0.0
 30
0.0
  9
$UCSYDIR
 10
0.0
 20
1.0
 30
0.0
  9
$UCSORTHOREF
  2

  9
$UCSORTHOVIEW
 70
     0
  9
$UCSORGTOP
 10
0.0
 20
0.0
 30
0.0
  9
$UCSORGBOTTOM
 10
0.0
 20
0.0
 30
0.0
  9
$UCSORGLEFT
 10
0.0
 20
0.0
 30
0.0
  9
$UCSORGRIGHT
 10
0.0
 20
0.0
 30
0.0
  9
$UCSORGFRONT
 10
0.0
 20
0.0
 30
0.0
  9
$UCSORGBACK
 10
0.0
 20
0.0
 30
0.0
  9
$PUCSBASE
  2

  9
$PUCSNAME
  2

  9
$PUCSORG
 10
0.0
 20
0.0
 30
0.0
  9
$PUCSXDIR
 10
1.0
 20
0.0
 30
0.0
  9
$PUCSYDIR
 10
0.0
 20
1.0
 30
0.0
  9
$PUCSORTHOREF
  2

  9
$PUCSORTHOVIEW
 70
     0
  9
$PUCSORGTOP
 10
0.0
 20
0.0
 30
0.0
  9
$PUCSORGBOTTOM
 10
0.0
 20
0.0
 30
0.0
  9
$PUCSORGLEFT
 10
0.0
 20
0.0
 30
0.0
  9
$PUCSORGRIGHT
 10
0.0
 20
0.0
 30
0.0
  9
$PUCSORGFRONT
 10
0.0
 20
0.0
 30
0.0
  9
$PUCSORGBACK
 10
0.0
 20
0.0
 30
0.0
  9
$USERI1
 70
     0
  9
$USERI2
 70
     0
  9
$USERI3
 70
     0
  9
$USERI4
 70
     0
  9
$USERI5
 70
     0
  9
$USERR1
 40
0.0
  9
$USERR2
 40
0.0
  9
$USERR3
 40
0.0
  9
$USERR4
 40
0.0
  9
$USERR5
 40
0.0
  9
$WORLDVIEW
 70
     1
  9
$SHADEDGE
 70
     3
  9
$SHADEDIF
 70
    70
  9
$TILEMODE
 70
     1
  9
$MAXACTVP
 70
    64
  9
$PINSBASE
 10
0.0
 20
0.0
 30
0.0
  9
$PLIMCHECK
 70
     0
  9
$PEXTMIN
 10
1.0000000000E+20
 20
1.0000000000E+20
 30
1.0000000000E+20
  9
$PEXTMAX
 10
-1.0000000000E+20
 20
-1.0000000000E+20
 30
-1.0000000000E+20
  9
$PLIMMIN
 10
0.0
 20
0.0
  9
$PLIMMAX
 10
420.0
 20
297.0
  9
$UNITMODE
 70
     0
  9
$VISRETAIN
 70
     1
  9
$PLINEGEN
 70
     0
  9
$PSLTSCALE
 70
     1
  9
$TREEDEPTH
 70
  3020
  9
$CMLSTYLE
  2
Standard
  9
$CMLJUST
 70
     0
  9
$CMLSCALE
 40
20.0
  9
$PROXYGRAPHICS
 70
     1
  9
$MEASUREMENT
 70
     1
  9
$CELWEIGHT
370
    -1
  9
$ENDCAPS
280
     0
  9
$JOINSTYLE
280
     0
  9
$LWDISPLAY
290
     1
  9
$INSUNITS
 70
     4
  9
$HYPERLINKBASE
  1

  9
$STYLESHEET
  1

  9
$XEDIT
290
     1
  9
$CEPSNTYPE
380
     0
  9
$PSTYLEMODE
290
     1
  9
$FINGERPRINTGUID
  2
{a179bde6-aaad-4bb5-9dd3-77990cba0b1f}
  9
$VERSIONGUID
  2
{FAEB1C32-E019-11D5-929B-00C0DF256EC4}
  9
$EXTNAMES
290
     1
  9
$PSVPSCALE
 40
0.0
  9
$OLESTARTUP
290
     0
  0
ENDSEC
  0
SECTION
  2
CLASSES
  0
CLASS
  1
ACDBDICTIONARYWDFLT
  2
AcDbDictionaryWithDefault
  3
ObjectDBX Classes
 90
        0
280
     0
281
     0
  0
CLASS
  1
VISUALSTYLE
  2
AcDbVisualStyle
  3
ObjectDBX Classes
 90
     4095
280
     0
281
     0
  0
CLASS
  1
MATERIAL
  2
AcDbMaterial
  3
ObjectDBX Classes
 90
     1153
280
     0
281
     0
  0
CLASS
  1
SCALE
  2
AcDbScale
  3
ObjectDBX Classes
 90
     1153
280
     0
281
     0
  0
CLASS
  1
TABLESTYLE
  2
AcDbTableStyle
  3
ObjectDBX Classes
 90
     4095
280
     0
281
     0
  0
CLASS
  1
MLEADERSTYLE
  2
AcDbMLeaderStyle
  3
ACDB_MLEADERSTYLE_CLASS
 90
     4095
280
     0
281
     0
  0
CLASS
  1
SUN
  2
AcDbSun
  3
SCENEOE
 90
     1153
280
     0
281
     0
  0
CLASS
  1
ACDBPLACEHOLDER
  2
AcDbPlaceHolder
  3
ObjectDBX Classes
 90
        0
280
     0
281
     0
  0
CLASS
  1
LAYOUT
  2
AcDbLayout
  3
ObjectDBX Classes
 90
        0
280
     0
281
     0
  0
ENDSEC
  0
SECTION
  2
TABLES
  0
TABLE
  2
VPORT
  5
8
330
0
100
AcDbSymbolTable
 70
     1
  0
VPORT
  5
29
330
8
100
AcDbSymbolTableRecord
100
AcDbViewportTableRecord
  2
*Active
 70
     0
 10
0.0
 20
0.0
 11
1.0
 21
1.0
 12
148.5
 22
105.0
 13
0.0
 23
0.0
 14
10.0
 24
10.0
 15
10.0
 25
10.0
 16
0.0
 26
0.0
 36
1.0
 17
0.0
 27
0.0
 37
0.0
 40
210.0
 41
1.4142857143
 42
50.0
 43
0.0
 44
0.0
 50
0.0
 51
0.0
 71
     0
 72
  2000
 73
     1
 74
     3
 75
     0
 76
     0
 77
     0
 78
     0
281
     0
 65
     1
110
0.0
120
0.0
130
0.0
111
1.0
121
0.0
131
0.0
112
0.0
122
1.0
132
0.0
 79
     0
146
0.0
  0
ENDTAB
  0
TABLE
  2
LTYPE
  5
5
330
0
100
AcDbSymbolTable
 70
     6
  0
LTYPE
  5
14
330
5
100
AcDbSymbolTableRecord
100
AcDbLinetypeTableRecord
  2
ByBlock
 70
     0
  3

 72
    65
 73
     0
 40
0.0
  0
LTYPE
  5
15
330
5
100
AcDbSymbolTableRecord
100
AcDbLinetypeTableRecord
  2
ByLayer
 70
     0
  3

 72
    65
 73
     0
 40
0.0
  0
LTYPE
  5
16
330
5
100
AcDbSymbolTableRecord
100
AcDbLinetypeTableRecord
  2
Continuous
 70
     0
  3
Solid line
 72
    65
 73
     0
 40
0.0
  0
LTYPE
  5
6E
330
5
100
AcDbSymbolTableRecord
100
AcDbLinetypeTableRecord
  2
HIDDEN
 70
     0
  3
Hidden __ __ __ __ __ __ __ __ __ __ __ __ __ __
 72
    65
 73
     2
 40
1.905
 49
1.27
 74
     0
 49
-0.635
 74
     0
  0
LTYPE
  5
6F
330
5
100
AcDbSymbolTableRecord
100
AcDbLinetypeTableRecord
  2
PHANTOM
 70
     0
  3
Phantom ______  __  __  ______  __  __  ______
 72
    65
 73
     6
 40
12.7
 49
6.35
 74
     0
 49
-1.27
 74
     0
 49
1.27
 74
     0
 49
-1.27
 74
     0
 49
1.27
 74
     0
 49
-1.27
 74
     0
  0
LTYPE
  5
70
330
5
100
AcDbSymbolTableRecord
100
AcDbLinetypeTableRecord
  2
CENTER
 70
     0
  3
Center ____ _ ____ _ ____ _ ____ _ ____ _ ____
 72
    65
 73
     4
 40
10.16
 49
6.35
 74
     0
 49
-1.27
 74
     0
 49
1.27
 74
     0
 49
-1.27
 74
     0
  0
LTYPE
  5
71
330
5
100
AcDbSymbolTableRecord
100
AcDbLinetypeTableRecord
  2
CENTERX2
 70
     0
  3
Center (2x) ________  __  ________  __  _____
 72
    65
 73
     4
 40
20.32
 49
12.7
 74
     0
 49
-2.54
 74
     0
 49
2.54
 74
     0
 49
-2.54
 74
     0
  0
LTYPE
  5
72
330
5
100
AcDbSymbolTableRecord
100
AcDbLinetypeTableRecord
  2
DOT2
 70
     0
  3
Dot (.5x) ........................................
 72
    65
 73
     2
 40
0.635
 49
0.0
 74
     0
 49
-0.635
 74
     0
  0
ENDTAB
  0
TABLE
  2
LAYER
  5
2
330
0
100
AcDbSymbolTable
 70
     1
  0
LAYER
  5
10
330
2
100
AcDbSymbolTableRecord
100
AcDbLayerTableRecord
  2
0
 70
     0
 62
     7
  6
Continuous
370
    -3
390
F
  0
ENDTAB
  0
TABLE
  2
STYLE
  5
3
330
0
100
AcDbSymbolTable
 70
     2
  0
STYLE
  5
11
330
3
100
AcDbSymbolTableRecord
100
AcDbTextStyleTableRecord
  2
Standard
 70
     0
 40
0.0
 41
1.0
 50
0.0
 71
     0
 42
3.5
  3
txt
  4

  0
STYLE
  5
7A
330
3
100
AcDbSymbolTableRecord
100
AcDbTextStyleTableRecord
  2
SLDTEXTSTYLE0
 70
     0
 40
0.0
 41
0.75
 50
0.0
 71
     0
 42
3.5
  3
TXT
  4

  0
ENDTAB
  0
TABLE
  2
VIEW
  5
6
330
0
100
AcDbSymbolTable
 70
     0
  0
ENDTAB
  0
TABLE
  2
UCS
  5
7
330
0
100
AcDbSymbolTable
 70
     0
  0
ENDTAB
  0
TABLE
  2
APPID
  5
9
330
0
100
AcDbSymbolTable
 70
     1
  0
APPID
  5
12
330
9
100
AcDbSymbolTableRecord
100
AcDbRegAppTableRecord
  2
ACAD
 70
     0
  0
ENDTAB
  0
TABLE
  2
DIMSTYLE
  5
A
330
0
100
AcDbSymbolTable
 70
     5
100
AcDbDimStyleTable
  0
DIMSTYLE
105
27
330
A
100
AcDbSymbolTableRecord
100
AcDbDimStyleTableRecord
  2
ISO-25
 70
     0
 41
2.5
 42
0.625
 43
3.75
 44
1.25
 73
     0
 74
     0
 77
     1
 78
     8
140
2.5
141
2.5
143
0.0393700787
147
0.625
171
     3
172
     1
178
     0
271
     2
272
     2
274
     3
278
    44
283
     0
284
     8
340
11
  0
DIMSTYLE
105
7B
102
{ACAD_REACTORS
330
79
102
}
330
A
100
AcDbSymbolTableRecord
100
AcDbDimStyleTableRecord
  2
SLDDIMSTYLE0
 70
     0
 41
3.302
 44
0.0
 45
0.000000001
 73
     0
 74
     0
 77
     1
 78
     4
 79
     1
140
3.5
144
10.0
147
0.875
173
     1
178
     0
271
     2
272
     2
276
     2
284
    12
340
7A
  0
DIMSTYLE
105
8F
102
{ACAD_REACTORS
330
8E
102
}
330
A
100
AcDbSymbolTableRecord
100
AcDbDimStyleTableRecord
  2
SLDDIMSTYLE1
 70
     0
 41
3.302
 44
0.0
 73
     0
 74
     0
 77
     1
 78
    12
 79
     3
140
3.5
144
10.0
147
0.875
173
     1
178
     0
179
     2
272
     2
276
     2
284
    12
340
7A
  0
DIMSTYLE
105
98
102
{ACAD_REACTORS
330
97
102
}
330
A
100
AcDbSymbolTableRecord
100
AcDbDimStyleTableRecord
  2
SLDDIMSTYLE2
 70
     0
 41
3.302
 44
0.0
 45
0.000000001
 73
     0
 74
     0
 77
     1
 78
     4
 79
     1
140
3.5
144
10.0
147
0.875
172
     1
173
     1
178
     0
271
     2
272
     2
276
     2
284
    12
289
     0
340
7A
  0
DIMSTYLE
105
A3
102
{ACAD_REACTORS
330
A2
102
}
330
A
100
AcDbSymbolTableRecord
100
AcDbDimStyleTableRecord
  2
SLDDIMSTYLE3
 70
     0
 41
3.302
 44
0.0
 45
0.000000001
 73
     0
 74
     0
 77
     1
 78
     4
 79
     1
140
3.5
141
0.0
144
10.0
147
0.875
172
     1
173
     1
178
     0
271
     2
272
     2
276
     2
284
    12
340
7A
341
A4
343
A4
  0
ENDTAB
  0
TABLE
  2
BLOCK_RECORD
  5
1
330
0
100
AcDbSymbolTable
 70
    13
  0
BLOCK_RECORD
  5
1F
330
1
100
AcDbSymbolTableRecord
100
AcDbBlockTableRecord
  2
*Model_Space
340
22
  0
BLOCK_RECORD
  5
1B
330
1
100
AcDbSymbolTableRecord
100
AcDbBlockTableRecord
  2
*Paper_Space
340
1E
  0
BLOCK_RECORD
  5
23
330
1
100
AcDbSymbolTableRecord
100
AcDbBlockTableRecord
  2
*Paper_Space0
340
26
  0
BLOCK_RECORD
  5
7C
330
1
100
AcDbSymbolTableRecord
100
AcDbBlockTableRecord
  2
_D
340
0
  0
BLOCK_RECORD
  5
90
330
1
100
AcDbSymbolTableRecord
100
AcDbBlockTableRecord
  2
_D_1
340
0
  0
BLOCK_RECORD
  5
99
330
1
100
AcDbSymbolTableRecord
100
AcDbBlockTableRecord
  2
_D_2
340
0
  0
BLOCK_RECORD
  5
A4
330
1
100
AcDbSymbolTableRecord
100
AcDbBlockTableRecord
  2
_None
340
0
  0
BLOCK_RECORD
  5
A7
330
1
100
AcDbSymbolTableRecord
100
AcDbBlockTableRecord
  2
_D_3
340
0
  0
BLOCK_RECORD
  5
B0
330
1
100
AcDbSymbolTableRecord
100
AcDbBlockTableRecord
  2
SW_CENTERMARKSYMBOL_0
340
0
102
{BLKREFS
331
BB
102
}
  0
BLOCK_RECORD
  5
BC
330
1
100
AcDbSymbolTableRecord
100
AcDbBlockTableRecord
  2
SW_CENTERMARKSYMBOL_1
340
0
102
{BLKREFS
331
C7
102
}
  0
BLOCK_RECORD
  5
C8
330
1
100
AcDbSymbolTableRecord
100
AcDbBlockTableRecord
  2
SW_CENTERMARKSYMBOL_2
340
0
102
{BLKREFS
331
D3
102
}
  0
BLOCK_RECORD
  5
D4
330
1
100
AcDbSymbolTableRecord
100
AcDbBlockTableRecord
  2
SW_CENTERMARKSYMBOL_3
340
0
102
{BLKREFS
331
DF
102
}
  0
BLOCK_RECORD
  5
E0
330
1
100
AcDbSymbolTableRecord
100
AcDbBlockTableRecord
  2
SW_CENTERMARKSYMBOL_4
340
0
102
{BLKREFS
331
EB
102
}
  0
BLOCK_RECORD
  5
EC
330
1
100
AcDbSymbolTableRecord
100
AcDbBlockTableRecord
  2
SW_CENTERMARKSYMBOL_5
340
0
102
{BLKREFS
331
F7
102
}
  0
BLOCK_RECORD
  5
F8
330
1
100
AcDbSymbolTableRecord
100
AcDbBlockTableRecord
  2
SW_CENTERMARKSYMBOL_6
340
0
102
{BLKREFS
331
103
102
}
  0
ENDTAB
  0
ENDSEC
  0
SECTION
  2
BLOCKS
  0
BLOCK
  5
20
330
1F
100
AcDbEntity
  8
0
100
AcDbBlockBegin
  2
*Model_Space
 70
     0
 10
0.0
 20
0.0
 30
0.0
  3
*Model_Space
  1

  0
ENDBLK
  5
21
330
1F
100
AcDbEntity
  8
0
100
AcDbBlockEnd
  0
BLOCK
  5
1C
330
1B
100
AcDbEntity
 67
     1
  8
0
100
AcDbBlockBegin
  2
*Paper_Space
 70
     0
 10
0.0
 20
0.0
 30
0.0
  3
*Paper_Space
  1

  0
ENDBLK
  5
1D
330
1B
100
AcDbEntity
 67
     1
  8
0
100
AcDbBlockEnd
  0
BLOCK
  5
24
330
23
100
AcDbEntity
  8
0
100
AcDbBlockBegin
  2
*Paper_Space0
 70
     0
 10
0.0
 20
0.0
 30
0.0
  3
*Paper_Space0
  1

  0
ENDBLK
  5
25
330
23
100
AcDbEntity
  8
0
100
AcDbBlockEnd
  0
BLOCK
  5
7D
330
7C
100
AcDbEntity
  8
0
100
AcDbBlockBegin
  2
_D
 70
     0
 10
0.0
 20
0.0
 30
0.0
  3
_D
  1

  0
SOLID
  5
7F
330
7C
100
AcDbEntity
  8
0
  6
Continuous
 62
     7
370
    18
100
AcDbTrace
 10
112.8431604353
 20
62.7153542946
 30
0.0
 11
109.5411604353
 21
63.2233542946
 31
0.0
 12
109.5411604353
 22
62.2073542946
 32
0.0
 13
109.5411604353
 23
62.2073542946
 33
0.0
  0
SOLID
  5
80
330
7C
100
AcDbEntity
  8
0
  6
Continuous
 62
     7
370
    18
100
AcDbTrace
 10
52.8431604353
 20
62.7153542946
 30
0.0
 11
56.1451604353
 21
62.2073542946
 31
0.0
 12
56.1451604353
 22
63.2233542946
 32
0.0
 13
56.1451604353
 23
63.2233542946
 33
0.0
  0
LINE
  5
81
330
7C
100
AcDbEntity
  8
0
  6
Continuous
 62
     7
370
     0
100
AcDbLine
 10
112.8431604353
 20
50.4040177685
 30
0.0
 11
112.8431604353
 21
63.7153542946
 31
0.0
  0
LINE
  5
82
330
7C
100
AcDbEntity
  8
0
  6
Continuous
 62
     7
370
     0
100
AcDbLine
 10
52.8431604353
 20
50.4040177685
 30
0.0
 11
52.8431604353
 21
63.7153542946
 31
0.0
  0
LINE
  5
83
330
7C
100
AcDbEntity
  8
0
  6
Continuous
 62
     7
370
     0
100
AcDbLine
 10
112.8431604353
 20
62.7153542946
 30
0.0
 11
52.8431604353
 21
62.7153542946
 31
0.0
  0
MTEXT
  5
84
330
7C
100
AcDbEntity
  8
0
  6
Continuous
 62
     7
370
    18
100
AcDbMText
 10
81.2094146867
 20
67.2270913838
 30
0.0
 40
3.5
 41
0.0
 71
     1
 72
     1
  1
%%c
  7
SLDTEXTSTYLE0
 73
     1
 44
1.0
  0
MTEXT
  5
85
330
7C
100
AcDbEntity
  8
0
  6
Continuous
 62
     7
370
    18
100
AcDbMText
 10
86.4878520851
 20
67.2805635604
 30
0.0
 40
3.5
 41
0.0
 71
     1
 72
     1
  1
600.00
  7
SLDTEXTSTYLE0
 73
     1
 44
1.0
  0
ENDBLK
  5
7E
330
7C
100
AcDbEntity
  8
0
100
AcDbBlockEnd
  0
BLOCK
  5
91
330
90
100
AcDbEntity
  8
0
100
AcDbBlockBegin
  2
_D_1
 70
     0
 10
0.0
 20
0.0
 30
0.0
  3
_D_1
  1

  0
ARC
  5
93
330
90
100
AcDbEntity
  8
0
  6
Continuous
 62
     7
370
    18
100
AcDbCircle
 10
82.8431604353
 20
136.3077035055
 30
0.0
 40
16.79066919367861
100
AcDbArc
 50
120.0
 51
180.0
  0
SOLID
  5
94
330
90
100
AcDbEntity
  8
0
  6
Continuous
 62
     7
370
    18
100
AcDbTrace
 10
74.4478258384
 20
150.8488495738
 30
0.0
 11
71.4662699087
 21
149.3416693463
 31
0.0
 12
72.0571705981
 22
148.5151753202
 32
0.0
 13
72.0571705981
 23
148.5151753202
 33
0.0
  0
SOLID
  5
95
330
90
100
AcDbEntity
  8
0
  6
Continuous
 62
     7
370
    18
100
AcDbTrace
 10
66.0524912416
 20
136.3077035055
 30
0.0
 11
66.8781848092
 21
139.5449088021
 31
0.0
 12
65.8669696418
 22
139.6433967972
 32
0.0
 13
65.8669696418
 23
139.6433967972
 33
0.0
  0
MTEXT
  5
96
330
90
100
AcDbEntity
  8
0
  6
Continuous
 62
     7
370
    18
100
AcDbMText
 10
63.0208740618
 20
144.8666729805
 30
0.0
 40
3.5
 41
0.0
 71
     1
 72
     1
  1
60¡Æ
  7
SLDTEXTSTYLE0
 11
0.54075812651706
 21
0.8411781313168806
 31
0.0
 73
     1
 44
1.0
  0
ENDBLK
  5
92
330
90
100
AcDbEntity
  8
0
100
AcDbBlockEnd
  0
BLOCK
  5
9A
330
99
100
AcDbEntity
  8
0
100
AcDbBlockBegin
  2
_D_2
 70
     0
 10
0.0
 20
0.0
 30
0.0
  3
_D_2
  1

  0
SOLID
  5
9C
330
99
100
AcDbEntity
  8
0
  6
Continuous
 62
     7
370
    18
100
AcDbTrace
 10
55.3431604353
 20
96.3077035055
 30
0.0
 11
58.6451604353
 21
95.7997035055
 31
0.0
 12
58.6451604353
 22
96.8157035055
 32
0.0
 13
58.6451604353
 23
96.8157035055
 33
0.0
  0
SOLID
  5
9D
330
99
100
AcDbEntity
  8
0
  6
Continuous
 62
     7
370
    18
100
AcDbTrace
 10
82.8431604353
 20
96.3077035055
 30
0.0
 11
79.5411604353
 21
96.8157035055
 31
0.0
 12
79.5411604353
 22
95.7997035055
 32
0.0
 13
79.5411604353
 23
95.7997035055
 33
0.0
  0
LINE
  5
9E
330
99
100
AcDbEntity
  8
0
  6
Continuous
 62
     7
370
     0
100
AcDbLine
 10
55.3431604353
 20
134.8577035055
 30
0.0
 11
55.3431604353
 21
95.3077035055
 31
0.0
  0
LINE
  5
9F
330
99
100
AcDbEntity
  8
0
  6
Continuous
 62
     7
370
     0
100
AcDbLine
 10
82.8431604353
 20
105.0577035055
 30
0.0
 11
82.8431604353
 21
95.3077035055
 31
0.0
  0
LINE
  5
A0
330
99
100
AcDbEntity
  8
0
  6
Continuous
 62
     7
370
     0
100
AcDbLine
 10
55.3431604353
 20
96.3077035055
 30
0.0
 11
82.8431604353
 21
96.3077035055
 31
0.0
  0
MTEXT
  5
A1
330
99
100
AcDbEntity
  8
0
  6
Continuous
 62
     7
370
    18
100
AcDbMText
 10
61.2413248812
 20
100.8194404201
 30
0.0
 40
3.5
 41
0.0
 71
     1
 72
     1
  1
275.00
  7
SLDTEXTSTYLE0
 73
     1
 44
1.0
  0
ENDBLK
  5
9B
330
99
100
AcDbEntity
  8
0
100
AcDbBlockEnd
  0
BLOCK
  5
A5
330
A4
100
AcDbEntity
  8
0
100
AcDbBlockBegin
  2
_None
 70
     0
 10
0.0
 20
0.0
 30
0.0
  3
_None
  1

  0
ENDBLK
  5
A6
330
A4
100
AcDbEntity
  8
0
100
AcDbBlockEnd
  0
BLOCK
  5
A8
330
A7
100
AcDbEntity
  8
0
100
AcDbBlockBegin
  2
_D_3
 70
     0
 10
0.0
 20
0.0
 30
0.0
  3
_D_3
  1

  0
SOLID
  5
AA
330
A7
100
AcDbEntity
  8
0
  6
Continuous
 62
     7
370
    18
100
AcDbTrace
 10
55.14997527
 20
136.3594673145
 30
0.0
 11
52.0919682665
 21
137.7047781212
 31
0.0
 12
51.8290081167
 22
136.7233974817
 32
0.0
 13
51.8290081167
 23
136.7233974817
 33
0.0
  0
LINE
  5
AB
330
A7
100
AcDbEntity
  8
0
  6
Continuous
 62
     7
370
     0
100
AcDbLine
 10
55.14997527
 20
136.3594673145
 30
0.0
 11
19.8413087951
 21
145.8203959823
 31
0.0
  0
LINE
  5
AC
330
A7
100
AcDbEntity
  8
0
  6
Continuous
 62
     7
370
     0
100
AcDbLine
 10
55.14997527
 20
136.3594673145
 30
0.0
 11
55.5363456005
 21
136.2559396965
 31
0.0
  0
MTEXT
  5
AD
330
A7
100
AcDbEntity
  8
0
  6
Continuous
 62
     7
370
    18
100
AcDbMText
 10
21.003477487
 20
150.1576685874
 30
0.0
 40
3.5
 41
0.0
 71
     1
 72
     1
  1
%%c
  7
SLDTEXTSTYLE0
 11
0.965925826289068
 21
-0.2588190451025217
 31
0.0
 73
     1
 44
1.0
  0
MTEXT
  5
AE
330
A7
100
AcDbEntity
  8
0
  6
Continuous
 62
     7
370
    18
100
AcDbMText
 10
26.1158961102
 20
148.8431586167
 30
0.0
 40
3.5
 41
0.0
 71
     1
 72
     1
  1
4.00
  7
SLDTEXTSTYLE0
 11
0.965925826289068
 21
-0.2588190451025217
 31
0.0
 73
     1
 44
1.0
  0
MTEXT
  5
AF
330
A7
100
AcDbEntity
  8
0
  6
Continuous
 62
     7
370
    18
100
AcDbMText
 10
34.858866568
 20
146.5004867431
 30
0.0
 40
3.5
 41
0.0
 71
     1
 72
     1
  1
hole*6
  7
SLDTEXTSTYLE0
 11
0.965925826289068
 21
-0.2588190451025217
 31
0.0
 73
     1
 44
1.0
  0
ENDBLK
  5
A9
330
A7
100
AcDbEntity
  8
0
100
AcDbBlockEnd
  0
BLOCK
  5
B1
330
B0
100
AcDbEntity
  8
0
100
AcDbBlockBegin
  2
SW_CENTERMARKSYMBOL_0
 70
     0
 10
0.0
 20
0.0
 30
0.0
  3
SW_CENTERMARKSYMBOL_0
  1

  0
LINE
  5
B3
330
B0
100
AcDbEntity
  8
0
  6
Continuous
 62
     0
370
    18
100
AcDbLine
 10
0.0
 20
0.0
 30
0.0
 11
0.0
 21
0.25
 31
0.0
  0
LINE
  5
B4
330
B0
100
AcDbEntity
  8
0
  6
Continuous
 62
     0
370
    18
100
AcDbLine
 10
0.0
 20
0.0
 30
0.0
 11
-0.25
 21
0.0
 31
0.0
  0
LINE
  5
B5
330
B0
100
AcDbEntity
  8
0
  6
Continuous
 62
     0
370
    18
100
AcDbLine
 10
0.0
 20
0.0
 30
0.0
 11
0.0
 21
-0.25
 31
0.0
  0
LINE
  5
B6
330
B0
100
AcDbEntity
  8
0
  6
Continuous
 62
     0
370
    18
100
AcDbLine
 10
0.0
 20
0.0
 30
0.0
 11
0.25
 21
0.0
 31
0.0
  0
LINE
  5
B7
330
B0
100
AcDbEntity
  8
0
  6
Continuous
 62
     0
370
    18
100
AcDbLine
 10
0.0
 20
0.5
 30
0.0
 11
0.0
 21
30.25
 31
0.0
  0
LINE
  5
B8
330
B0
100
AcDbEntity
  8
0
  6
Continuous
 62
     0
370
    18
100
AcDbLine
 10
-0.5
 20
0.0
 30
0.0
 11
-30.25
 21
0.0
 31
0.0
  0
LINE
  5
B9
330
B0
100
AcDbEntity
  8
0
  6
Continuous
 62
     0
370
    18
100
AcDbLine
 10
0.0
 20
-0.5
 30
0.0
 11
0.0
 21
-30.25
 31
0.0
  0
LINE
  5
BA
330
B0
100
AcDbEntity
  8
0
  6
Continuous
 62
     0
370
    18
100
AcDbLine
 10
0.5
 20
0.0
 30
0.0
 11
30.25
 21
0.0
 31
0.0
  0
ENDBLK
  5
B2
330
B0
100
AcDbEntity
  8
0
100
AcDbBlockEnd
  0
BLOCK
  5
BD
330
BC
100
AcDbEntity
  8
0
100
AcDbBlockBegin
  2
SW_CENTERMARKSYMBOL_1
 70
     0
 10
0.0
 20
0.0
 30
0.0
  3
SW_CENTERMARKSYMBOL_1
  1

  0
LINE
  5
BF
330
BC
100
AcDbEntity
  8
0
  6
Continuous
 62
     0
370
    18
100
AcDbLine
 10
0.0
 20
0.0
 30
0.0
 11
0.0
 21
0.25
 31
0.0
  0
LINE
  5
C0
330
BC
100
AcDbEntity
  8
0
  6
Continuous
 62
     0
370
    18
100
AcDbLine
 10
0.0
 20
0.0
 30
0.0
 11
-0.25
 21
0.0
 31
0.0
  0
LINE
  5
C1
330
BC
100
AcDbEntity
  8
0
  6
Continuous
 62
     0
370
    18
100
AcDbLine
 10
0.0
 20
0.0
 30
0.0
 11
0.0
 21
-0.25
 31
0.0
  0
LINE
  5
C2
330
BC
100
AcDbEntity
  8
0
  6
Continuous
 62
     0
370
    18
100
AcDbLine
 10
0.0
 20
0.0
 30
0.0
 11
0.25
 21
0.0
 31
0.0
  0
LINE
  5
C3
330
BC
100
AcDbEntity
  8
0
  6
Continuous
 62
     0
370
    18
100
AcDbLine
 10
0.0
 20
0.25
 30
0.0
 11
0.0
 21
0.45
 31
0.0
  0
LINE
  5
C4
330
BC
100
AcDbEntity
  8
0
  6
Continuous
 62
     0
370
    18
100
AcDbLine
 10
-0.25
 20
0.0
 30
0.0
 11
-0.45
 21
0.0
 31
0.0
  0
LINE
  5
C5
330
BC
100
AcDbEntity
  8
0
  6
Continuous
 62
     0
370
    18
100
AcDbLine
 10
0.0
 20
-0.25
 30
0.0
 11
0.0
 21
-0.45
 31
0.0
  0
LINE
  5
C6
330
BC
100
AcDbEntity
  8
0
  6
Continuous
 62
     0
370
    18
100
AcDbLine
 10
0.25
 20
0.0
 30
0.0
 11
0.45
 21
0.0
 31
0.0
  0
ENDBLK
  5
BE
330
BC
100
AcDbEntity
  8
0
100
AcDbBlockEnd
  0
BLOCK
  5
C9
330
C8
100
AcDbEntity
  8
0
100
AcDbBlockBegin
  2
SW_CENTERMARKSYMBOL_2
 70
     0
 10
0.0
 20
0.0
 30
0.0
  3
SW_CENTERMARKSYMBOL_2
  1

  0
LINE
  5
CB
330
C8
100
AcDbEntity
  8
0
  6
Continuous
 62
     0
370
    18
100
AcDbLine
 10
0.0
 20
0.0
 30
0.0
 11
0.0
 21
0.25
 31
0.0
  0
LINE
  5
CC
330
C8
100
AcDbEntity
  8
0
  6
Continuous
 62
     0
370
    18
100
AcDbLine
 10
0.0
 20
0.0
 30
0.0
 11
-0.25
 21
0.0
 31
0.0
  0
LINE
  5
CD
330
C8
100
AcDbEntity
  8
0
  6
Continuous
 62
     0
370
    18
100
AcDbLine
 10
0.0
 20
0.0
 30
0.0
 11
0.0
 21
-0.25
 31
0.0
  0
LINE
  5
CE
330
C8
100
AcDbEntity
  8
0
  6
Continuous
 62
     0
370
    18
100
AcDbLine
 10
0.0
 20
0.0
 30
0.0
 11
0.25
 21
0.0
 31
0.0
  0
LINE
  5
CF
330
C8
100
AcDbEntity
  8
0
  6
Continuous
 62
     0
370
    18
100
AcDbLine
 10
0.0
 20
0.25
 30
0.0
 11
0.0
 21
0.45
 31
0.0
  0
LINE
  5
D0
330
C8
100
AcDbEntity
  8
0
  6
Continuous
 62
     0
370
    18
100
AcDbLine
 10
-0.25
 20
0.0
 30
0.0
 11
-0.45
 21
0.0
 31
0.0
  0
LINE
  5
D1
330
C8
100
AcDbEntity
  8
0
  6
Continuous
 62
     0
370
    18
100
AcDbLine
 10
0.0
 20
-0.25
 30
0.0
 11
0.0
 21
-0.45
 31
0.0
  0
LINE
  5
D2
330
C8
100
AcDbEntity
  8
0
  6
Continuous
 62
     0
370
    18
100
AcDbLine
 10
0.25
 20
0.0
 30
0.0
 11
0.45
 21
0.0
 31
0.0
  0
ENDBLK
  5
CA
330
C8
100
AcDbEntity
  8
0
100
AcDbBlockEnd
  0
BLOCK
  5
D5
330
D4
100
AcDbEntity
  8
0
100
AcDbBlockBegin
  2
SW_CENTERMARKSYMBOL_3
 70
     0
 10
0.0
 20
0.0
 30
0.0
  3
SW_CENTERMARKSYMBOL_3
  1

  0
LINE
  5
D7
330
D4
100
AcDbEntity
  8
0
  6
Continuous
 62
     0
370
    18
100
AcDbLine
 10
0.0
 20
0.0
 30
0.0
 11
0.0
 21
0.25
 31
0.0
  0
LINE
  5
D8
330
D4
100
AcDbEntity
  8
0
  6
Continuous
 62
     0
370
    18
100
AcDbLine
 10
0.0
 20
0.0
 30
0.0
 11
-0.25
 21
0.0
 31
0.0
  0
LINE
  5
D9
330
D4
100
AcDbEntity
  8
0
  6
Continuous
 62
     0
370
    18
100
AcDbLine
 10
0.0
 20
0.0
 30
0.0
 11
0.0
 21
-0.25
 31
0.0
  0
LINE
  5
DA
330
D4
100
AcDbEntity
  8
0
  6
Continuous
 62
     0
370
    18
100
AcDbLine
 10
0.0
 20
0.0
 30
0.0
 11
0.25
 21
0.0
 31
0.0
  0
LINE
  5
DB
330
D4
100
AcDbEntity
  8
0
  6
Continuous
 62
     0
370
    18
100
AcDbLine
 10
0.0
 20
0.25
 30
0.0
 11
0.0
 21
0.45
 31
0.0
  0
LINE
  5
DC
330
D4
100
AcDbEntity
  8
0
  6
Continuous
 62
     0
370
    18
100
AcDbLine
 10
-0.25
 20
0.0
 30
0.0
 11
-0.45
 21
0.0
 31
0.0
  0
LINE
  5
DD
330
D4
100
AcDbEntity
  8
0
  6
Continuous
 62
     0
370
    18
100
AcDbLine
 10
0.0
 20
-0.25
 30
0.0
 11
0.0
 21
-0.45
 31
0.0
  0
LINE
  5
DE
330
D4
100
AcDbEntity
  8
0
  6
Continuous
 62
     0
370
    18
100
AcDbLine
 10
0.25
 20
0.0
 30
0.0
 11
0.45
 21
0.0
 31
0.0
  0
ENDBLK
  5
D6
330
D4
100
AcDbEntity
  8
0
100
AcDbBlockEnd
  0
BLOCK
  5
E1
330
E0
100
AcDbEntity
  8
0
100
AcDbBlockBegin
  2
SW_CENTERMARKSYMBOL_4
 70
     0
 10
0.0
 20
0.0
 30
0.0
  3
SW_CENTERMARKSYMBOL_4
  1

  0
LINE
  5
E3
330
E0
100
AcDbEntity
  8
0
  6
Continuous
 62
     0
370
    18
100
AcDbLine
 10
0.0
 20
0.0
 30
0.0
 11
0.0
 21
0.25
 31
0.0
  0
LINE
  5
E4
330
E0
100
AcDbEntity
  8
0
  6
Continuous
 62
     0
370
    18
100
AcDbLine
 10
0.0
 20
0.0
 30
0.0
 11
-0.25
 21
0.0
 31
0.0
  0
LINE
  5
E5
330
E0
100
AcDbEntity
  8
0
  6
Continuous
 62
     0
370
    18
100
AcDbLine
 10
0.0
 20
0.0
 30
0.0
 11
0.0
 21
-0.25
 31
0.0
  0
LINE
  5
E6
330
E0
100
AcDbEntity
  8
0
  6
Continuous
 62
     0
370
    18
100
AcDbLine
 10
0.0
 20
0.0
 30
0.0
 11
0.25
 21
0.0
 31
0.0
  0
LINE
  5
E7
330
E0
100
AcDbEntity
  8
0
  6
Continuous
 62
     0
370
    18
100
AcDbLine
 10
0.0
 20
0.25
 30
0.0
 11
0.0
 21
0.45
 31
0.0
  0
LINE
  5
E8
330
E0
100
AcDbEntity
  8
0
  6
Continuous
 62
     0
370
    18
100
AcDbLine
 10
-0.25
 20
0.0
 30
0.0
 11
-0.45
 21
0.0
 31
0.0
  0
LINE
  5
E9
330
E0
100
AcDbEntity
  8
0
  6
Continuous
 62
     0
370
    18
100
AcDbLine
 10
0.0
 20
-0.25
 30
0.0
 11
0.0
 21
-0.45
 31
0.0
  0
LINE
  5
EA
330
E0
100
AcDbEntity
  8
0
  6
Continuous
 62
     0
370
    18
100
AcDbLine
 10
0.25
 20
0.0
 30
0.0
 11
0.45
 21
0.0
 31
0.0
  0
ENDBLK
  5
E2
330
E0
100
AcDbEntity
  8
0
100
AcDbBlockEnd
  0
BLOCK
  5
ED
330
EC
100
AcDbEntity
  8
0
100
AcDbBlockBegin
  2
SW_CENTERMARKSYMBOL_5
 70
     0
 10
0.0
 20
0.0
 30
0.0
  3
SW_CENTERMARKSYMBOL_5
  1

  0
LINE
  5
EF
330
EC
100
AcDbEntity
  8
0
  6
Continuous
 62
     0
370
    18
100
AcDbLine
 10
0.0
 20
0.0
 30
0.0
 11
0.0
 21
0.25
 31
0.0
  0
LINE
  5
F0
330
EC
100
AcDbEntity
  8
0
  6
Continuous
 62
     0
370
    18
100
AcDbLine
 10
0.0
 20
0.0
 30
0.0
 11
-0.25
 21
0.0
 31
0.0
  0
LINE
  5
F1
330
EC
100
AcDbEntity
  8
0
  6
Continuous
 62
     0
370
    18
100
AcDbLine
 10
0.0
 20
0.0
 30
0.0
 11
0.0
 21
-0.25
 31
0.0
  0
LINE
  5
F2
330
EC
100
AcDbEntity
  8
0
  6
Continuous
 62
     0
370
    18
100
AcDbLine
 10
0.0
 20
0.0
 30
0.0
 11
0.25
 21
0.0
 31
0.0
  0
LINE
  5
F3
330
EC
100
AcDbEntity
  8
0
  6
Continuous
 62
     0
370
    18
100
AcDbLine
 10
0.0
 20
0.25
 30
0.0
 11
0.0
 21
0.45
 31
0.0
  0
LINE
  5
F4
330
EC
100
AcDbEntity
  8
0
  6
Continuous
 62
     0
370
    18
100
AcDbLine
 10
-0.25
 20
0.0
 30
0.0
 11
-0.45
 21
0.0
 31
0.0
  0
LINE
  5
F5
330
EC
100
AcDbEntity
  8
0
  6
Continuous
 62
     0
370
    18
100
AcDbLine
 10
0.0
 20
-0.25
 30
0.0
 11
0.0
 21
-0.45
 31
0.0
  0
LINE
  5
F6
330
EC
100
AcDbEntity
  8
0
  6
Continuous
 62
     0
370
    18
100
AcDbLine
 10
0.25
 20
0.0
 30
0.0
 11
0.45
 21
0.0
 31
0.0
  0
ENDBLK
  5
EE
330
EC
100
AcDbEntity
  8
0
100
AcDbBlockEnd
  0
BLOCK
  5
F9
330
F8
100
AcDbEntity
  8
0
100
AcDbBlockBegin
  2
SW_CENTERMARKSYMBOL_6
 70
     0
 10
0.0
 20
0.0
 30
0.0
  3
SW_CENTERMARKSYMBOL_6
  1

  0
LINE
  5
FB
330
F8
100
AcDbEntity
  8
0
  6
Continuous
 62
     0
370
    18
100
AcDbLine
 10
0.0
 20
0.0
 30
0.0
 11
0.0
 21
0.25
 31
0.0
  0
LINE
  5
FC
330
F8
100
AcDbEntity
  8
0
  6
Continuous
 62
     0
370
    18
100
AcDbLine
 10
0.0
 20
0.0
 30
0.0
 11
-0.25
 21
0.0
 31
0.0
  0
LINE
  5
FD
330
F8
100
AcDbEntity
  8
0
  6
Continuous
 62
     0
370
    18
100
AcDbLine
 10
0.0
 20
0.0
 30
0.0
 11
0.0
 21
-0.25
 31
0.0
  0
LINE
  5
FE
330
F8
100
AcDbEntity
  8
0
  6
Continuous
 62
     0
370
    18
100
AcDbLine
 10
0.0
 20
0.0
 30
0.0
 11
0.25
 21
0.0
 31
0.0
  0
LINE
  5
FF
330
F8
100
AcDbEntity
  8
0
  6
Continuous
 62
     0
370
    18
100
AcDbLine
 10
0.0
 20
0.25
 30
0.0
 11
0.0
 21
0.45
 31
0.0
  0
LINE
  5
100
330
F8
100
AcDbEntity
  8
0
  6
Continuous
 62
     0
370
    18
100
AcDbLine
 10
-0.25
 20
0.0
 30
0.0
 11
-0.45
 21
0.0
 31
0.0
  0
LINE
  5
101
330
F8
100
AcDbEntity
  8
0
  6
Continuous
 62
     0
370
    18
100
AcDbLine
 10
0.0
 20
-0.25
 30
0.0
 11
0.0
 21
-0.45
 31
0.0
  0
LINE
  5
102
330
F8
100
AcDbEntity
  8
0
  6
Continuous
 62
     0
370
    18
100
AcDbLine
 10
0.25
 20
0.0
 30
0.0
 11
0.45
 21
0.0
 31
0.0
  0
ENDBLK
  5
FA
330
F8
100
AcDbEntity
  8
0
100
AcDbBlockEnd
  0
ENDSEC
  0
SECTION
  2
ENTITIES
  0
LINE
  5
73
330
1F
100
AcDbEntity
  8
0
  6
Continuous
 62
     7
370
    25
100
AcDbLine
 10
112.8431604353
 20
49.1040177685
 30
0.0
 11
112.8431604353
 21
49.4040177685
 31
0.0
  0
LINE
  5
74
330
1F
100
AcDbEntity
  8
0
  6
Continuous
 62
     7
370
    25
100
AcDbLine
 10
52.8431604353
 20
49.4040177685
 30
0.0
 11
52.8431604353
 21
49.1040177685
 31
0.0
  0
LINE
  5
75
330
1F
100
AcDbEntity
  8
0
  6
Continuous
 62
     7
370
    25
100
AcDbLine
 10
82.8431604353
 20
49.1040177685
 30
0.0
 11
112.8431604353
 21
49.1040177685
 31
0.0
  0
LINE
  5
76
330
1F
100
AcDbEntity
  8
0
  6
Continuous
 62
     7
370
    25
100
AcDbLine
 10
52.8431604353
 20
49.1040177685
 30
0.0
 11
82.8431604353
 21
49.1040177685
 31
0.0
  0
LINE
  5
77
330
1F
100
AcDbEntity
  8
0
  6
Continuous
 62
     7
370
    25
100
AcDbLine
 10
82.8431604353
 20
49.4040177685
 30
0.0
 11
112.8431604353
 21
49.4040177685
 31
0.0
  0
LINE
  5
78
330
1F
100
AcDbEntity
  8
0
  6
Continuous
 62
     7
370
    25
100
AcDbLine
 10
52.8431604353
 20
49.4040177685
 30
0.0
 11
82.8431604353
 21
49.4040177685
 31
0.0
  0
DIMENSION
  5
79
330
1F
100
AcDbEntity
  8
0
  6
Continuous
 62
     7
370
    18
100
AcDbDimension
  2
_D
 10
52.8431604353
 20
62.7153542946
 30
0.0
 11
90.9604393427
 21
62.7153542946
 31
0.0
 70
   160
  1
%%c<>
 71
     2
 42
-1.0
  3
SLDDIMSTYLE0
100
AcDbAlignedDimension
 13
112.8431604353
 23
49.4040177685
 33
0.0
 14
52.8431604353
 24
49.4040177685
 34
0.0
100
AcDbRotatedDimension
  0
CIRCLE
  5
86
330
1F
100
AcDbEntity
  8
0
  6
Continuous
 62
     7
370
    25
100
AcDbCircle
 10
110.3431604353
 20
136.3077035055
 30
0.0
 40
0.2000000000000171
  0
CIRCLE
  5
87
330
1F
100
AcDbEntity
  8
0
  6
Continuous
 62
     7
370
    25
100
AcDbCircle
 10
96.5931604353
 20
112.4920049014
 30
0.0
 40
0.2000000000000028
  0
CIRCLE
  5
88
330
1F
100
AcDbEntity
  8
0
  6
Continuous
 62
     7
370
    25
100
AcDbCircle
 10
69.0931604353
 20
112.4920049014
 30
0.0
 40
0.2000000000000171
  0
CIRCLE
  5
89
330
1F
100
AcDbEntity
  8
0
  6
Continuous
 62
     7
370
    25
100
AcDbCircle
 10
55.3431604353
 20
136.3077035055
 30
0.0
 40
0.2000000000000171
  0
CIRCLE
  5
8A
330
1F
100
AcDbEntity
  8
0
  6
Continuous
 62
     7
370
    25
100
AcDbCircle
 10
69.0931604353
 20
160.1234021096
 30
0.0
 40
0.1999999999999886
  0
CIRCLE
  5
8B
330
1F
100
AcDbEntity
  8
0
  6
Continuous
 62
     7
370
    25
100
AcDbCircle
 10
96.5931604353
 20
160.1234021096
 30
0.0
 40
0.1999999999999886
  0
CIRCLE
  5
8C
330
1F
100
AcDbEntity
  8
0
  6
Continuous
 62
     7
370
    25
100
AcDbCircle
 10
82.8431604353
 20
136.3077035055
 30
0.0
 40
30.0
  0
LINE
  5
8D
330
1F
100
AcDbEntity
  8
0
  6
CENTERX2
 62
     7
370
    18
100
AcDbLine
 10
69.0931604353
 20
160.1234021096
 30
0.0
 11
82.8431604353
 21
136.3077035055
 31
0.0
  0
DIMENSION
  5
8E
330
1F
100
AcDbEntity
  8
0
  6
Continuous
 62
     7
370
    18
100
AcDbDimension
  2
_D_1
 10
52.5931604353
 20
136.3077035055
 30
0.0
 11
68.7192166994
 21
145.3873943217
 31
0.0
 70
   162
  1
<>
 71
     1
 42
-1.0
  3
SLDDIMSTYLE1
100
AcDb2LineAngularDimension
 13
69.0931604353
 23
160.1234021096
 33
0.0
 14
82.8431604353
 24
136.3077035055
 34
0.0
 15
113.0931604353
 25
136.3077035055
 35
0.0
 16
68.302014367
 26
144.7030381023
 36
0.0
  0
DIMENSION
  5
97
330
1F
100
AcDbEntity
  8
0
  6
Continuous
 62
     7
370
    18
100
AcDbDimension
  2
_D_2
 10
82.8431604353
 20
96.3077035055
 30
0.0
 11
68.3531308381
 21
96.3077035055
 31
0.0
 70
   160
  1
<>
 71
     2
 42
-1.0
  3
SLDDIMSTYLE2
100
AcDbAlignedDimension
 13
55.3431604353
 23
135.8577035055
 33
0.0
 14
82.8431604353
 24
106.0577035055
 34
0.0
100
AcDbRotatedDimension
  0
DIMENSION
  5
A2
330
1F
100
AcDbEntity
  8
0
  6
Continuous
 62
     7
370
    18
100
AcDbDimension
  2
_D_3
 10
55.5363456005
 20
136.2559396965
 30
0.0
 11
33.5682547418
 21
142.1422845808
 31
0.0
 70
   163
  1
<>hole*6
 71
     1
 42
-1.0
  3
SLDDIMSTYLE3
100
AcDbDiametricDimension
 15
55.14997527
 25
136.3594673145
 35
0.0
 40
0.0
  0
INSERT
  5
BB
330
1F
100
AcDbEntity
  8
0
  6
Continuous
 62
     7
370
    18
100
AcDbBlockReference
  2
SW_CENTERMARKSYMBOL_0
 10
82.8431604353
 20
136.3077035055
 30
0.0
  0
INSERT
  5
C7
330
1F
100
AcDbEntity
  8
0
  6
Continuous
 62
     7
370
    18
100
AcDbBlockReference
  2
SW_CENTERMARKSYMBOL_1
 10
110.3431604353
 20
136.3077035055
 30
0.0
  0
INSERT
  5
D3
330
1F
100
AcDbEntity
  8
0
  6
Continuous
 62
     7
370
    18
100
AcDbBlockReference
  2
SW_CENTERMARKSYMBOL_2
 10
96.5931604353
 20
112.4920049014
 30
0.0
  0
INSERT
  5
DF
330
1F
100
AcDbEntity
  8
0
  6
Continuous
 62
     7
370
    18
100
AcDbBlockReference
  2
SW_CENTERMARKSYMBOL_3
 10
69.0931604353
 20
112.4920049014
 30
0.0
  0
INSERT
  5
EB
330
1F
100
AcDbEntity
  8
0
  6
Continuous
 62
     7
370
    18
100
AcDbBlockReference
  2
SW_CENTERMARKSYMBOL_4
 10
55.3431604353
 20
136.3077035055
 30
0.0
  0
INSERT
  5
F7
330
1F
100
AcDbEntity
  8
0
  6
Continuous
 62
     7
370
    18
100
AcDbBlockReference
  2
SW_CENTERMARKSYMBOL_5
 10
69.0931604353
 20
160.1234021096
 30
0.0
  0
INSERT
  5
103
330
1F
100
AcDbEntity
  8
0
  6
Continuous
 62
     7
370
    18
100
AcDbBlockReference
  2
SW_CENTERMARKSYMBOL_6
 10
96.5931604353
 20
160.1234021096
 30
0.0
  0
LINE
  5
104
330
1F
100
AcDbEntity
  8
0
  6
Continuous
 62
     7
370
    25
100
AcDbLine
 10
235.8317978428
 20
141.2464831824
 30
0.0
 11
235.8317978428
 21
141.491445426
 31
0.0
  0
LINE
  5
105
330
1F
100
AcDbEntity
  8
0
  6
Continuous
 62
     7
370
    25
100
AcDbLine
 10
175.8317978428
 20
141.491445426
 30
0.0
 11
175.8317978428
 21
141.2464831824
 31
0.0
  0
LWPOLYLINE
  5
106
330
1F
100
AcDbEntity
  8
0
  6
Continuous
 62
     7
370
    25
100
AcDbPolyline
 90
       70
 70
   128
 43
0.0
 10
184.6185944072
 20
129.0003615051
 10
185.359295116
 20
128.587198977
 10
186.1241274088
 20
128.1889583462
 10
186.9121897538
 20
127.8061090313
 10
187.7225532369
 20
127.4391023088
 10
188.5542626572
 20
127.0883707813
 10
189.4063376527
 20
126.754327867
 10
190.2777738557
 20
126.4373673128
 10
191.1675440768
 20
126.1378627301
 10
192.0745995158
 20
125.8561671544
 10
192.9978709981
 20
125.5926126291
 10
193.9362702342
 20
125.3475098142
 10
194.8886911036
 20
125.1211476203
 10
195.8540109577
 20
124.9137928674
 10
196.8310919436
 20
124.7256899713
 10
197.8187823452
 20
124.5570606546
 10
198.8159179406
 20
124.4081036862
 10
199.8213233747
 20
124.2789946462
 10
200.8338135444
 20
124.1698857196
 10
201.8521949957
 20
124.0809055165
 10
202.8752673303
 20
124.0121589207
 10
203.9018246205
 20
123.9637269659
 10
204.930656831
 20
123.9356667404
 10
205.9605512448
 20
123.9280113198
 10
206.990293893
 20
123.9407697275
 10
208.0186709853
 20
123.9739269251
 10
209.0444703413
 20
124.0274438289
 10
210.066482819
 20
124.1012573569
 10
211.0835037402
 20
124.1952805029
 10
212.0943343101
 20
124.3094024387
 10
213.0977830309
 20
124.4434886453
 10
214.0926671061
 20
124.597381071
 10
215.0778138343
 20
124.7708983179
 10
216.0520619922
 20
124.9638358559
 10
217.0142632027
 20
125.1759662633
 10
217.963283289
 20
125.4070394953
 10
218.8980036111
 20
125.6567831787
 10
219.8173223847
 20
125.9249029328
 10
220.7201559799
 20
126.2110827162
 10
221.6054401982
 20
126.5149851999
 10
222.4721315273
 20
126.8362521645
 10
223.3192083708
 20
127.1745049224
 10
224.1456722525
 20
127.5293447644
 10
224.9505489933
 20
127.9003534298
 10
225.7328898597
 20
128.2870935988
 10
226.491772682
 20
128.6891094087
 10
227.2263029409
 20
129.1059269906
 10
227.9356148225
 20
129.5370550287
 10
228.6188722386
 20
129.9819853388
 10
229.2752698121
 20
130.4401934673
 10
229.9040338265
 20
130.9111393101
 10
230.5044231378
 20
131.3942677483
 10
231.0757300483
 20
131.8890093033
 10
231.6172811405
 20
132.3947808076
 10
232.1284380711
 20
132.9109860924
 10
232.6085983233
 20
133.4370166902
 10
233.057195917
 20
133.9722525523
 10
233.4737020762
 20
134.5160627793
 10
233.8576258518
 20
135.0678063648
 10
234.208514701
 20
135.6268329514
 10
234.5259550198
 20
136.1924835967
 10
234.8095726315
 20
136.7640915507
 10
235.059033227
 20
137.3409830408
 10
235.2740427592
 20
137.9224780671
 10
235.4543477896
 20
138.5078912029
 10
235.599735787
 20
139.0965324034
 10
235.710035378
 20
139.6877078186
 10
235.785116549
 20
140.2807206114
 10
235.8248907994
 20
140.874871779
 10
235.8317978428
 20
141.2464831824
  0
LWPOLYLINE
  5
107
330
1F
100
AcDbEntity
  8
0
  6
Continuous
 62
     7
370
    25
100
AcDbPolyline
 90
       24
 70
   128
 43
0.0
 10
175.8317978428
 20
141.2464831824
 10
175.8453351492
 20
140.7262655494
 10
175.8939421521
 20
140.1323333565
 10
175.9778378487
 20
139.5397144471
 10
176.0969233487
 20
138.9491073598
 10
176.2510582822
 20
138.3612082617
 10
176.4400609655
 20
137.7767101281
 10
176.6637086151
 20
137.1963019253
 10
176.9217376105
 20
136.6206677988
 10
177.2138438049
 20
136.0504862667
 10
177.5396828834
 20
135.4864294198
 10
177.8988707693
 20
134.9291621298
 10
178.2909840765
 20
134.3793412652
 10
178.7155606086
 20
133.8376149171
 10
179.172099904
 20
133.3046216355
 10
179.6600638253
 20
132.7809896763
 10
180.1788771942
 20
132.2673362611
 10
180.7279284689
 20
131.7642668493
 10
181.3065704655
 20
131.2723744246
 10
181.9141211203
 20
130.7922387962
 10
182.5498642943
 20
130.3244259151
 10
183.213050617
 20
129.869487207
 10
183.9028983697
 20
129.4279589226
 10
184.6185944072
 20
129.0003615051
  0
LWPOLYLINE
  5
108
330
1F
100
AcDbEntity
  8
0
  6
Continuous
 62
     7
370
    25
100
AcDbPolyline
 90
      184
 70
   128
 43
0.0
 10
184.6185944072
 20
129.2453237486
 10
185.359295116
 20
128.8321612206
 10
186.1241274088
 20
128.4339205897
 10
186.9121897538
 20
128.0510712748
 10
187.7225532369
 20
127.6840645524
 10
188.5542626572
 20
127.3333330249
 10
189.4063376527
 20
126.9992901106
 10
190.2777738557
 20
126.6823295564
 10
191.1675440768
 20
126.3828249737
 10
192.0745995158
 20
126.1011293979
 10
192.9978709981
 20
125.8375748726
 10
193.9362702342
 20
125.5924720578
 10
194.8886911036
 20
125.3661098638
 10
195.8540109577
 20
125.158755111
 10
196.8310919436
 20
124.9706522148
 10
197.8187823452
 20
124.8020228982
 10
198.8159179406
 20
124.6530659298
 10
199.8213233747
 20
124.5239568898
 10
200.8338135444
 20
124.4148479632
 10
201.8521949957
 20
124.3258677601
 10
202.8752673303
 20
124.2571211643
 10
203.9018246205
 20
124.2086892095
 10
204.930656831
 20
124.180628984
 10
205.9605512448
 20
124.1729735633
 10
206.990293893
 20
124.1857319711
 10
208.0186709853
 20
124.2188891686
 10
209.0444703413
 20
124.2724060724
 10
210.066482819
 20
124.3462196005
 10
211.0835037402
 20
124.4402427465
 10
212.0943343101
 20
124.5543646823
 10
213.0977830309
 20
124.6884508889
 10
214.0926671061
 20
124.8423433145
 10
215.0778138343
 20
125.0158605615
 10
216.0520619922
 20
125.2087980994
 10
217.0142632027
 20
125.4209285068
 10
217.963283289
 20
125.6520017389
 10
218.8980036111
 20
125.9017454223
 10
219.8173223847
 20
126.1698651763
 10
220.7201559799
 20
126.4560449598
 10
221.6054401982
 20
126.7599474435
 10
222.4721315273
 20
127.081214408
 10
223.3192083708
 20
127.4194671659
 10
224.1456722525
 20
127.774307008
 10
224.9505489933
 20
128.1453156734
 10
225.7328898597
 20
128.5320558424
 10
226.491772682
 20
128.9340716522
 10
227.2263029409
 20
129.3508892342
 10
227.9356148225
 20
129.7820172723
 10
228.6188722386
 20
130.2269475823
 10
229.2752698121
 20
130.6851557109
 10
229.9040338265
 20
131.1561015536
 10
230.5044231378
 20
131.6392299919
 10
231.0757300483
 20
132.1339715469
 10
231.6172811405
 20
132.6397430512
 10
232.1284380711
 20
133.155948336
 10
232.6085983233
 20
133.6819789338
 10
233.057195917
 20
134.2172147959
 10
233.4737020762
 20
134.7610250228
 10
233.8576258518
 20
135.3127686083
 10
234.208514701
 20
135.8717951949
 10
234.5259550198
 20
136.4374458403
 10
234.8095726315
 20
137.0090537942
 10
235.059033227
 20
137.5859452844
 10
235.2740427592
 20
138.1674403107
 10
235.4543477896
 20
138.7528534465
 10
235.599735787
 20
139.341494647
 10
235.710035378
 20
139.9326700622
 10
235.785116549
 20
140.525682855
 10
235.8248907994
 20
141.1198340226
 10
235.8293112461
 20
141.7144232203
 10
235.7983726786
 20
142.308749587
 10
235.7321115651
 20
142.9021125716
 10
235.6306060097
 20
143.4938127583
 10
235.4939756602
 20
144.0831526916
 10
235.322381567
 20
144.6694376979
 10
235.1160259936
 20
145.2519767045
 10
234.8751521778
 20
145.8300830545
 10
234.600044045
 20
146.4030753155
 10
234.291025874
 20
146.9702780837
 10
233.9484619143
 20
147.5310227791
 10
233.5727559566
 20
148.0846484344
 10
233.1643508575
 20
148.6305024736
 10
232.723728017
 20
149.1679414814
 10
232.251406811
 20
149.6963319613
 10
231.7479439795
 20
150.2150510829
 10
231.21393297
 20
150.7234874157
 10
230.650003238
 20
151.2210416497
 10
230.0568195053
 20
151.7071273021
 10
229.4350809763
 20
152.1811714083
 10
228.7855205137
 20
152.6426151977
 10
228.108903775
 20
153.090914752
 10
227.4060283095
 20
153.5255416462
 10
226.6777226189
 20
153.9459835721
 10
225.9248451799
 20
154.3517449414
 10
225.1482834328
 20
154.7423474705
 10
224.3489527356
 20
155.1173307438
 10
223.5277952844
 20
155.4762527567
 10
222.6857790035
 20
155.8186904366
 10
221.8238964039
 20
156.1442401414
 10
220.9431634138
 20
156.4525181353
 10
220.044618181
 20
156.7431610414
 10
219.1293198491
 20
157.0158262698
 10
218.1983473089
 20
157.2701924213
 10
217.2527979273
 20
157.5059596665
 10
216.293786253
 20
157.7228500992
 10
215.3224427033
 20
157.9206080638
 10
214.3399122314
 20
158.0990004567
 10
213.3473529771
 20
158.2578170013
 10
212.3459349011
 20
158.3968704953
 10
211.3368384065
 20
158.5159970322
 10
210.3212529471
 20
158.6150561936
 10
209.3003756256
 20
158.6939312155
 10
208.2754097821
 20
158.7525291253
 10
207.2475635762
 20
158.7907808519
 10
206.2180485626
 20
158.8086413068
 10
205.1880782632
 20
158.8060894372
 10
204.1588667363
 20
158.7831282512
 10
203.131627146
 20
158.7397848138
 10
202.107570332
 20
158.6761102152
 10
201.0879033823
 20
158.5921795109
 10
200.0738282105
 20
158.4880916324
 10
199.0665401389
 20
158.3639692715
 10
198.0672264898
 20
158.219958735
 10
197.0770651855
 20
158.0562297729
 10
196.0972233605
 20
157.8729753775
 10
195.1288559851
 20
157.6704115566
 10
194.1731045046
 20
157.4487770785
 10
193.2310954932
 20
157.2083331908
 10
192.3039393268
 20
156.9493633123
 10
191.3927288734
 20
156.6721726989
 10
190.4985382056
 20
156.3770880839
 10
189.622421334
 20
156.0644572929
 10
188.7654109653
 20
155.7346488336
 10
187.9285172846
 20
155.3880514617
 10
187.1127267647
 20
155.0250737224
 10
186.3190010037
 20
154.646143469
 10
185.5482755913
 20
154.2517073585
 10
184.8014590056
 20
153.8422303252
 10
184.0794315429
 20
153.4181950326
 10
183.3830442798
 20
152.9801013044
 10
182.7131180698
 20
152.5284655355
 10
182.0704425762
 20
152.0638200833
 10
181.4557753407
 20
151.5867126399
 10
180.8698408909
 20
151.097705587
 10
180.3133298864
 20
150.5973753326
 10
179.7868983041
 20
150.0863116316
 10
179.2911666655
 20
149.5651168911
 10
178.8267193052
 20
149.0344054595
 10
178.3941036819
 20
148.4948029034
 10
177.9938297332
 20
147.9469452691
 10
177.6263692746
 20
147.3914783337
 10
177.2921554434
 20
146.8290568436
 10
176.991582188
 20
146.2603437428
 10
176.7250038035
 20
145.6860093912
 10
176.4927345143
 20
145.106730775
 10
176.2950481034
 20
144.523190708
 10
176.1321775902
 20
143.9360770273
 10
176.0043149551
 20
143.3460817823
 10
175.911610914
 20
142.753900419
 10
175.8541747399
 20
142.1602309602
 10
175.8320741347
 20
141.5657731828
 10
175.8453351492
 20
140.971227793
 10
175.8939421521
 20
140.3772956001
 10
175.9778378487
 20
139.7846766907
 10
176.0969233487
 20
139.1940696033
 10
176.2510582822
 20
138.6061705053
 10
176.4400609655
 20
138.0216723717
 10
176.6637086151
 20
137.4412641689
 10
176.9217376105
 20
136.8656300424
 10
177.2138438049
 20
136.2954485103
 10
177.5396828834
 20
135.7313916634
 10
177.8988707693
 20
135.1741243734
 10
178.2909840765
 20
134.6243035087
 10
178.7155606086
 20
134.0825771607
 10
179.172099904
 20
133.5495838791
 10
179.6600638253
 20
133.0259519199
 10
180.1788771942
 20
132.5122985047
 10
180.7279284689
 20
132.0092290929
 10
181.3065704655
 20
131.5173366682
 10
181.9141211203
 20
131.0372010398
 10
182.5498642943
 20
130.5693881587
 10
183.213050617
 20
130.1144494506
 10
183.9028983697
 20
129.6729211661
 10
184.6185944072
 20
129.2453237486
  0
LWPOLYLINE
  5
109
330
1F
100
AcDbEntity
  8
0
  6
Continuous
 62
     7
370
    25
100
AcDbPolyline
 90
       17
 70
   128
 43
0.0
 10
225.1358129692
 20
130.1841930772
 10
225.200697639
 20
130.1591650281
 10
225.2772343255
 20
130.150376346
 10
225.3537710119
 20
130.1591650281
 10
225.4186556817
 20
130.1841930772
 10
225.462010232
 20
130.2216501998
 10
225.4772343255
 20
130.2658338884
 10
225.462010232
 20
130.310017577
 10
225.4186556817
 20
130.3474746996
 10
225.3537710119
 20
130.3725027487
 10
225.2772343255
 20
130.3812914308
 10
225.200697639
 20
130.3725027487
 10
225.1358129692
 20
130.3474746996
 10
225.092458419
 20
130.310017577
 10
225.0772343255
 20
130.2658338884
 10
225.092458419
 20
130.2216501998
 10
225.1358129692
 20
130.1841930772
  0
LWPOLYLINE
  5
10A
330
1F
100
AcDbEntity
  8
0
  6
Continuous
 62
     7
370
    25
100
AcDbPolyline
 90
       17
 70
   128
 43
0.0
 10
198.5728527463
 20
126.0753340815
 10
198.637737416
 20
126.0503060323
 10
198.7142741025
 20
126.0415173502
 10
198.790810789
 20
126.0503060323
 10
198.8556954587
 20
126.0753340815
 10
198.899050009
 20
126.112791204
 10
198.9142741025
 20
126.1569748926
 10
198.899050009
 20
126.2011585813
 10
198.8556954587
 20
126.2386157038
 10
198.790810789
 20
126.2636437529
 10
198.7142741025
 20
126.272432435
 10
198.637737416
 20
126.2636437529
 10
198.5728527463
 20
126.2386157038
 10
198.529498196
 20
126.2011585813
 10
198.5142741025
 20
126.1569748926
 10
198.529498196
 20
126.112791204
 10
198.5728527463
 20
126.0753340815
  0
LWPOLYLINE
  5
10B
330
1F
100
AcDbEntity
  8
0
  6
Continuous
 62
     7
370
    25
100
AcDbPolyline
 90
       17
 70
   128
 43
0.0
 10
179.1274162636
 20
137.300945619
 10
179.1923009334
 20
137.2759175699
 10
179.2688376199
 20
137.2671288878
 10
179.3453743064
 20
137.2759175699
 10
179.4102589761
 20
137.300945619
 10
179.4536135264
 20
137.3384027416
 10
179.4688376199
 20
137.3825864302
 10
179.4536135264
 20
137.4267701188
 10
179.4102589761
 20
137.4642272414
 10
179.3453743064
 20
137.4892552905
 10
179.2688376199
 20
137.4980439726
 10
179.1923009334
 20
137.4892552905
 10
179.1274162636
 20
137.4642272414
 10
179.0840617134
 20
137.4267701188
 10
179.0688376199
 20
137.3825864302
 10
179.0840617134
 20
137.3384027416
 10
179.1274162636
 20
137.300945619
  0
LWPOLYLINE
  5
10C
330
1F
100
AcDbEntity
  8
0
  6
Continuous
 62
     7
370
    25
100
AcDbPolyline
 90
       17
 70
   128
 43
0.0
 10
186.244940004
 20
152.6354161523
 10
186.3098246737
 20
152.6103881032
 10
186.3863613602
 20
152.6015994211
 10
186.4628980467
 20
152.6103881032
 10
186.5277827164
 20
152.6354161523
 10
186.5711372667
 20
152.6728732749
 10
186.5863613602
 20
152.7170569635
 10
186.5711372667
 20
152.7612406521
 10
186.5277827164
 20
152.7986977747
 10
186.4628980467
 20
152.8237258238
 10
186.3863613602
 20
152.8325145059
 10
186.3098246737
 20
152.8237258238
 10
186.244940004
 20
152.7986977747
 10
186.2015854537
 20
152.7612406521
 10
186.1863613602
 20
152.7170569635
 10
186.2015854537
 20
152.6728732749
 10
186.244940004
 20
152.6354161523
  0
LWPOLYLINE
  5
10D
330
1F
100
AcDbEntity
  8
0
  6
Continuous
 62
     7
370
    25
100
AcDbPolyline
 90
       17
 70
   128
 43
0.0
 10
212.8079002269
 20
156.7442751481
 10
212.8727848967
 20
156.719247099
 10
212.9493215831
 20
156.7104584169
 10
213.0258582696
 20
156.719247099
 10
213.0907429394
 20
156.7442751481
 10
213.1340974896
 20
156.7817322707
 10
213.1493215831
 20
156.8259159593
 10
213.1340974896
 20
156.8700996479
 10
213.0907429394
 20
156.9075567705
 10
213.0258582696
 20
156.9325848196
 10
212.9493215831
 20
156.9413735017
 10
212.8727848967
 20
156.9325848196
 10
212.8079002269
 20
156.9075567705
 10
212.7645456766
 20
156.8700996479
 10
212.7493215831
 20
156.8259159593
 10
212.7645456766
 20
156.7817322707
 10
212.8079002269
 20
156.7442751481
  0
LWPOLYLINE
  5
10E
330
1F
100
AcDbEntity
  8
0
  6
Continuous
 62
     7
370
    25
100
AcDbPolyline
 90
       17
 70
   128
 43
0.0
 10
232.2533367095
 20
145.5186636105
 10
232.3182213793
 20
145.4936355614
 10
232.3947580658
 20
145.4848468793
 10
232.4712947523
 20
145.4936355614
 10
232.536179422
 20
145.5186636105
 10
232.5795339723
 20
145.5561207331
 10
232.5947580658
 20
145.6003044217
 10
232.5795339723
 20
145.6444881103
 10
232.536179422
 20
145.6819452329
 10
232.4712947523
 20
145.706973282
 10
232.3947580658
 20
145.7157619641
 10
232.3182213793
 20
145.706973282
 10
232.2533367095
 20
145.6819452329
 10
232.2099821593
 20
145.6444881103
 10
232.1947580658
 20
145.6003044217
 10
232.2099821593
 20
145.5561207331
 10
232.2533367095
 20
145.5186636105
  0
ENDSEC
  0
SECTION
  2
OBJECTS
  0
DICTIONARY
  5
C
330
0
100
AcDbDictionary
281
     1
  3
ACAD_GROUP
350
D
  3
ACAD_LAYOUT
350
1A
  3
ACAD_MLINESTYLE
350
17
  3
ACAD_PLOTSETTINGS
350
19
  3
ACAD_PLOTSTYLENAME
350
E
  3
ACAD_SCALELIST
350
47
  3
DWGPROPS
350
10F
  0
DICTIONARY
  5
D
102
{ACAD_REACTORS
330
C
102
}
330
C
100
AcDbDictionary
281
     1
  0
DICTIONARY
  5
1A
102
{ACAD_REACTORS
330
C
102
}
330
C
100
AcDbDictionary
281
     1
  3
Layout1
350
1E
  3
Layout2
350
26
  3
Model
350
22
  0
DICTIONARY
  5
17
102
{ACAD_REACTORS
330
C
102
}
330
C
100
AcDbDictionary
281
     1
  3
Standard
350
18
  0
DICTIONARY
  5
19
102
{ACAD_REACTORS
330
C
102
}
330
C
100
AcDbDictionary
281
     1
  0
ACDBDICTIONARYWDFLT
  5
E
102
{ACAD_REACTORS
330
C
102
}
330
C
100
AcDbDictionary
281
     1
  3
Normal
350
F
100
AcDbDictionaryWithDefault
340
F
  0
DICTIONARY
  5
47
102
{ACAD_REACTORS
330
C
102
}
330
C
100
AcDbDictionary
281
     1
  3
A0
350
48
  3
A1
350
49
  3
A2
350
4A
  3
A3
350
4B
  3
A4
350
4C
  3
A5
350
4D
  3
A6
350
4E
  3
A7
350
4F
  3
A8
350
50
  3
A9
350
51
  3
B0
350
52
  3
B1
350
53
  3
B2
350
54
  3
B3
350
55
  3
B4
350
56
  3
B5
350
57
  3
B6
350
58
  3
B7
350
59
  3
B8
350
5A
  3
B9
350
5B
  3
C0
350
5C
  3
C1
350
5D
  3
C2
350
5E
  3
C3
350
5F
  3
C4
350
60
  3
C5
350
61
  3
C6
350
62
  3
C7
350
63
  3
C8
350
64
  3
C9
350
65
  3
D0
350
66
  3
D1
350
67
  3
D2
350
68
  0
XRECORD
  5
10F
102
{ACAD_REACTORS
330
C
102
}
330
C
100
AcDbXrecord
280
     1
  1
DWGPROPS COOKIE
  2

  3

  4

  6

  7

  8
user
  9

300
=
301
=
302
=
303
=
304
=
305
=
306
=
307
=
308
=
309
=
 40
0.0
 41
2459389.239562292
 42
2459389.239562847
  1

 90
        0
  0
LAYOUT
  5
1E
102
{ACAD_REACTORS
330
1A
102
}
330
1A
100
AcDbPlotSettings
  1

  2
none_device
  4

  6

 40
0.0
 41
0.0
 42
0.0
 43
0.0
 44
0.0
 45
0.0
 46
0.0
 47
0.0
 48
0.0
 49
0.0
140
0.0
141
0.0
142
1.0
143
1.0
 70
   688
 72
     1
 73
     0
 74
     5
  7

 75
    16
147
1.0
148
0.0
149
0.0
100
AcDbLayout
  1
Layout1
 70
     1
 71
     1
 10
0.0
 20
0.0
 11
420.0
 21
297.0
 12
0.0
 22
0.0
 32
0.0
 14
1.0000000000E+20
 24
1.0000000000E+20
 34
1.0000000000E+20
 15
-1.0000000000E+20
 25
-1.0000000000E+20
 35
-1.0000000000E+20
146
0.0
 13
0.0
 23
0.0
 33
0.0
 16
1.0
 26
0.0
 36
0.0
 17
0.0
 27
1.0
 37
0.0
 76
     0
330
1B
  0
LAYOUT
  5
26
102
{ACAD_REACTORS
330
1A
102
}
330
1A
100
AcDbPlotSettings
  1

  2
none_device
  4

  6

 40
0.0
 41
0.0
 42
0.0
 43
0.0
 44
0.0
 45
0.0
 46
0.0
 47
0.0
 48
0.0
 49
0.0
140
0.0
141
0.0
142
1.0
143
1.0
 70
   688
 72
     1
 73
     0
 74
     5
  7

 75
    16
147
1.0
148
0.0
149
0.0
100
AcDbLayout
  1
Layout2
 70
     1
 71
     2
 10
0.0
 20
0.0
 11
0.0
 21
0.0
 12
0.0
 22
0.0
 32
0.0
 14
0.0
 24
0.0
 34
0.0
 15
0.0
 25
0.0
 35
0.0
146
0.0
 13
0.0
 23
0.0
 33
0.0
 16
1.0
 26
0.0
 36
0.0
 17
0.0
 27
1.0
 37
0.0
 76
     0
330
23
  0
LAYOUT
  5
22
102
{ACAD_REACTORS
330
1A
102
}
330
1A
100
AcDbPlotSettings
  1

  2
none_device
  4
Letter_(8.50_x_11.00_Inches)
  6

 40
6.35
 41
6.35
 42
6.35000508
 43
6.35000508
 44
215.9
 45
279.4
 46
0.0
 47
0.0
 48
0.0
 49
0.0
140
0.0
141
0.0
142
1.0
143
1.0
 70
  1712
 72
     1
 73
     0
 74
     0
  7

 75
     0
147
1.0
148
0.0
149
0.0
100
AcDbLayout
  1
Model
 70
     1
 71
     0
 10
0.0
 20
0.0
 11
297.0
 21
210.0
 12
0.0
 22
0.0
 32
0.0
 14
0.0
 24
0.0
 34
0.0
 15
297.0
 25
210.0
 35
0.0
146
0.0
 13
0.0
 23
0.0
 33
0.0
 16
1.0
 26
0.0
 36
0.0
 17
0.0
 27
1.0
 37
0.0
 76
     0
330
1F
331
29
  0
MLINESTYLE
  5
18
102
{ACAD_REACTORS
330
17
102
}
330
17
100
AcDbMlineStyle
  2
Standard
 70
     0
  3

 62
   256
 51
90.0
 52
90.0
 71
     2
 49
0.5
 62
   256
  6
BYLAYER
 49
-0.5
 62
   256
  6
BYLAYER
  0
ACDBPLACEHOLDER
  5
F
102
{ACAD_REACTORS
330
E
102
}
330
E
  0
SCALE
  5
48
102
{ACAD_REACTORS
330
47
102
}
330
47
100
AcDbScale
 70
     0
300
1:1
140
1.0
141
1.0
290
     1
  0
SCALE
  5
49
102
{ACAD_REACTORS
330
47
102
}
330
47
100
AcDbScale
 70
     0
300
1:2
140
1.0
141
2.0
290
     0
  0
SCALE
  5
4A
102
{ACAD_REACTORS
330
47
102
}
330
47
100
AcDbScale
 70
     0
300
1:4
140
1.0
141
4.0
290
     0
  0
SCALE
  5
4B
102
{ACAD_REACTORS
330
47
102
}
330
47
100
AcDbScale
 70
     0
300
1:5
140
1.0
141
5.0
290
     0
  0
SCALE
  5
4C
102
{ACAD_REACTORS
330
47
102
}
330
47
100
AcDbScale
 70
     0
300
1:8
140
1.0
141
8.0
290
     0
  0
SCALE
  5
4D
102
{ACAD_REACTORS
330
47
102
}
330
47
100
AcDbScale
 70
     0
300
1:10
140
1.0
141
10.0
290
     0
  0
SCALE
  5
4E
102
{ACAD_REACTORS
330
47
102
}
330
47
100
AcDbScale
 70
     0
300
1:16
140
1.0
141
16.0
290
     0
  0
SCALE
  5
4F
102
{ACAD_REACTORS
330
47
102
}
330
47
100
AcDbScale
 70
     0
300
1:20
140
1.0
141
20.0
290
     0
  0
SCALE
  5
50
102
{ACAD_REACTORS
330
47
102
}
330
47
100
AcDbScale
 70
     0
300
1:30
140
1.0
141
30.0
290
     0
  0
SCALE
  5
51
102
{ACAD_REACTORS
330
47
102
}
330
47
100
AcDbScale
 70
     0
300
1:40
140
1.0
141
40.0
290
     0
  0
SCALE
  5
52
102
{ACAD_REACTORS
330
47
102
}
330
47
100
AcDbScale
 70
     0
300
1:50
140
1.0
141
50.0
290
     0
  0
SCALE
  5
53
102
{ACAD_REACTORS
330
47
102
}
330
47
100
AcDbScale
 70
     0
300
1:100
140
1.0
141
100.0
290
     0
  0
SCALE
  5
54
102
{ACAD_REACTORS
330
47
102
}
330
47
100
AcDbScale
 70
     0
300
2:1
140
2.0
141
1.0
290
     0
  0
SCALE
  5
55
102
{ACAD_REACTORS
330
47
102
}
330
47
100
AcDbScale
 70
     0
300
4:1
140
4.0
141
1.0
290
     0
  0
SCALE
  5
56
102
{ACAD_REACTORS
330
47
102
}
330
47
100
AcDbScale
 70
     0
300
8:1
140
8.0
141
1.0
290
     0
  0
SCALE
  5
57
102
{ACAD_REACTORS
330
47
102
}
330
47
100
AcDbScale
 70
     0
300
10:1
140
10.0
141
1.0
290
     0
  0
SCALE
  5
58
102
{ACAD_REACTORS
330
47
102
}
330
47
100
AcDbScale
 70
     0
300
100:1
140
100.0
141
1.0
290
     0
  0
SCALE
  5
59
102
{ACAD_REACTORS
330
47
102
}
330
47
100
AcDbScale
 70
     0
300
1/128" = 1'-0"
140
0.0078125
141
12.0
290
     0
  0
SCALE
  5
5A
102
{ACAD_REACTORS
330
47
102
}
330
47
100
AcDbScale
 70
     0
300
1/64" = 1'-0"
140
0.015625
141
12.0
290
     0
  0
SCALE
  5
5B
102
{ACAD_REACTORS
330
47
102
}
330
47
100
AcDbScale
 70
     0
300
1/32" = 1'-0"
140
0.03125
141
12.0
290
     0
  0
SCALE
  5
5C
102
{ACAD_REACTORS
330
47
102
}
330
47
100
AcDbScale
 70
     0
300
1/16" = 1'-0"
140
0.0625
141
12.0
290
     0
  0
SCALE
  5
5D
102
{ACAD_REACTORS
330
47
102
}
330
47
100
AcDbScale
 70
     0
300
3/32" = 1'-0"
140
0.09375
141
12.0
290
     0
  0
SCALE
  5
5E
102
{ACAD_REACTORS
330
47
102
}
330
47
100
AcDbScale
 70
     0
300
1/8" = 1'-0"
140
0.125
141
12.0
290
     0
  0
SCALE
  5
5F
102
{ACAD_REACTORS
330
47
102
}
330
47
100
AcDbScale
 70
     0
300
3/16" = 1'-0"
140
0.1875
141
12.0
290
     0
  0
SCALE
  5
60
102
{ACAD_REACTORS
330
47
102
}
330
47
100
AcDbScale
 70
     0
300
1/4" = 1'-0"
140
0.25
141
12.0
290
     0
  0
SCALE
  5
61
102
{ACAD_REACTORS
330
47
102
}
330
47
100
AcDbScale
 70
     0
300
3/8" = 1'-0"
140
0.375
141
12.0
290
     0
  0
SCALE
  5
62
102
{ACAD_REACTORS
330
47
102
}
330
47
100
AcDbScale
 70
     0
300
1/2" = 1'-0"
140
0.5
141
12.0
290
     0
  0
SCALE
  5
63
102
{ACAD_REACTORS
330
47
102
}
330
47
100
AcDbScale
 70
     0
300
3/4" = 1'-0"
140
0.75
141
12.0
290
     0
  0
SCALE
  5
64
102
{ACAD_REACTORS
330
47
102
}
330
47
100
AcDbScale
 70
     0
300
1" = 1'-0"
140
1.0
141
12.0
290
     0
  0
SCALE
  5
65
102
{ACAD_REACTORS
330
47
102
}
330
47
100
AcDbScale
 70
     0
300
1-1/2" = 1'-0"
140
1.5
141
12.0
290
     0
  0
SCALE
  5
66
102
{ACAD_REACTORS
330
47
102
}
330
47
100
AcDbScale
 70
     0
300
3" = 1'-0"
140
3.0
141
12.0
290
     0
  0
SCALE
  5
67
102
{ACAD_REACTORS
330
47
102
}
330
47
100
AcDbScale
 70
     0
300
6" = 1'-0"
140
6.0
141
12.0
290
     0
  0
SCALE
  5
68
102
{ACAD_REACTORS
330
47
102
}
330
47
100
AcDbScale
 70
     0
300
1'-0" = 1'-0"
140
12.0
141
12.0
290
     0
  0
ENDSEC
  0
EOF
